<svg width="36" height="36" viewBox="0 0 36 36" fill="none" xmlns="http://www.w3.org/2000/svg">
<path fill-rule="evenodd" clip-rule="evenodd" d="M18 36C27.9411 36 36 27.9411 36 18C36 8.05888 27.9411 0 18 0C8.05888 0 0 8.05888 0 18C0 27.9411 8.05888 36 18 36Z" fill="url(#paint0_linear)"/>
<path d="M10.2703 20.8947C10.3875 20.8009 10.5272 20.7326 10.6738 20.6995L10.7748 20.6828L10.8254 20.6794H10.8759L10.9769 20.6895L11.078 20.7126L11.1791 20.7476L11.2295 20.7695L11.3299 20.822L11.427 20.8861L11.4729 20.9217L11.5162 20.9598L11.5934 21.0416L11.6271 21.0857L11.6844 21.18L11.7282 21.2793L11.745 21.3296L11.7586 21.3801L11.7688 21.4307L11.7761 21.4812C11.7808 21.5318 11.784 21.5819 11.784 21.6328C11.784 21.7175 11.7782 21.8028 11.7586 21.8854L11.7282 21.9865L11.708 22.037L11.6574 22.1373L11.6271 22.1866L11.5934 22.2344L11.5162 22.323L11.427 22.3982L11.3792 22.4299L11.2799 22.4823L11.1791 22.5227L11.1285 22.5396L11.0275 22.5666C10.9775 22.5773 10.927 22.5844 10.8759 22.5862C10.8078 22.5884 10.7403 22.5807 10.6738 22.5666L10.5727 22.5396L10.5222 22.5227L10.4213 22.4823L10.3221 22.4299L10.2742 22.3982L10.1851 22.323L10.1078 22.2344L10.0741 22.1866L10.0438 22.1373L9.99325 22.037L9.97304 21.9865L9.94267 21.8854C9.91922 21.7868 9.91427 21.6833 9.91801 21.5822L9.92514 21.4812L9.94272 21.3801L9.95641 21.3296L9.99527 21.2285C10.0581 21.097 10.157 20.9853 10.2703 20.8947Z" fill="white"/>
<path d="M16.1364 23.053C16.2348 22.9545 16.3509 22.87 16.4849 22.828L16.5859 22.8058L16.6364 22.8003L16.7375 22.7958H16.8386L16.9396 22.8003L16.9902 22.8058L17.0407 22.8147L17.0912 22.8272L17.1922 22.8641L17.2426 22.888L17.2926 22.9146L17.3897 22.9788L17.4789 23.0584L17.5191 23.1035L17.5561 23.1509L17.6201 23.25C17.6654 23.3288 17.7002 23.4139 17.7213 23.5024L17.7387 23.6035L17.7432 23.654L17.7454 23.7046L17.7432 23.8056L17.7387 23.8562L17.7213 23.9572L17.6909 24.0583L17.6707 24.1088L17.6471 24.1593L17.5898 24.2596L17.5561 24.3088L17.5191 24.3562L17.4356 24.4426C17.3377 24.5295 17.2164 24.5886 17.0912 24.6248C16.9766 24.6579 16.8564 24.6673 16.7375 24.6599C16.6165 24.6523 16.4939 24.6275 16.3838 24.5753C16.2923 24.5319 16.2095 24.4725 16.1364 24.4025C16.0627 24.3318 15.9983 24.2507 15.9521 24.1593C15.9043 24.065 15.8819 23.9607 15.8707 23.8562C15.8654 23.8058 15.8629 23.7552 15.8641 23.7046C15.8652 23.6536 15.8707 23.6034 15.8772 23.553L15.8966 23.4519L15.9108 23.4014L15.9521 23.3003L16.0125 23.1995L16.05 23.1495L16.1364 23.053Z" fill="white"/>
<path d="M14.3625 24.8976C14.3113 24.9009 14.2612 24.9102 14.2109 24.9203L14.1604 24.9329L14.1099 24.9481L14.0096 24.9887L13.9603 25.0141L13.8666 25.0724C13.7963 25.1213 13.7317 25.1791 13.6788 25.2467L13.6211 25.3309L13.5722 25.4246L13.5338 25.5239L13.5064 25.6248L13.4964 25.6753L13.4888 25.7258L13.4822 25.8269C13.4821 25.8781 13.4887 25.9279 13.4958 25.9785L13.5052 26.029L13.5297 26.1301L13.546 26.1806L13.5654 26.2311L13.6161 26.332L13.6833 26.4311L13.7228 26.4785L13.8114 26.5649C13.8567 26.6031 13.906 26.636 13.9585 26.6636C14.0069 26.689 14.058 26.7082 14.1099 26.7251L14.2109 26.7526L14.312 26.7716L14.3625 26.7775L14.4131 26.7804L14.5141 26.7774C14.6182 26.7683 14.722 26.7415 14.8171 26.6983C14.9029 26.6594 14.9834 26.6076 15.0548 26.5462C15.1413 26.4718 15.2148 26.3827 15.2671 26.2809L15.3095 26.1805L15.3386 26.0795L15.3495 26.029L15.3579 25.9785L15.3642 25.9279L15.3692 25.8269C15.3689 25.7589 15.3616 25.6911 15.3464 25.6248C15.3345 25.5727 15.317 25.523 15.2982 25.4732L15.2761 25.4226L15.2218 25.3218L15.1511 25.2227L15.1097 25.1753L15.0173 25.0888L14.9682 25.0514L14.9182 25.0188L14.8173 24.9681C14.7531 24.9413 14.6838 24.9251 14.6152 24.9148L14.5647 24.9071L14.4636 24.8971L14.3625 24.8976Z" fill="white"/>
<path fill-rule="evenodd" clip-rule="evenodd" d="M6.79637 20.2518L6.83338 20.1674C6.81338 20.1674 6.79337 20.1674 6.77335 20.1675H6.77318C6.67524 20.1678 6.57709 20.1681 6.47958 20.1588L6.227 20.1254L5.97435 20.1083C5.9014 20.1009 5.82898 20.0886 5.75669 20.0762L5.73572 20.0727L5.72169 20.0703L5.5701 20.0436L5.46903 20.0209L5.36797 19.9936C5.29971 19.9726 5.23197 19.9504 5.16585 19.9234C5.07735 19.8871 4.99089 19.846 4.91397 19.7884L4.77239 19.6593L4.69352 19.5607L4.63308 19.4599L4.59246 19.3589C4.56212 19.2621 4.56091 19.1602 4.55971 19.0598L4.55966 19.0557C4.55845 18.9546 4.55935 18.8533 4.56824 18.7525C4.57274 18.7015 4.58261 18.6509 4.59327 18.6009C4.61527 18.4978 4.64557 18.3958 4.68396 18.2977C4.70407 18.2463 4.72653 18.1957 4.75072 18.1461C4.77558 18.0951 4.80084 18.0445 4.82776 17.9945C4.86463 17.9262 4.90395 17.8591 4.94372 17.7924L4.94879 17.7839C4.98763 17.7187 5.0266 17.6534 5.06876 17.5903C5.15054 17.4679 5.23675 17.3484 5.33261 17.2366C5.39225 17.167 5.45554 17.1012 5.52031 17.0364L5.62067 16.942C5.68532 16.8824 5.75416 16.827 5.82275 16.7721C5.88891 16.7191 5.95564 16.6663 6.02488 16.6173C6.10732 16.5591 6.19106 16.503 6.27753 16.4508L6.42913 16.3639C6.49588 16.3269 6.563 16.2906 6.63125 16.2564L6.83338 16.1604C6.93505 16.1118 7.03647 16.0625 7.13657 16.0108C7.2048 15.9754 7.27289 15.9396 7.33869 15.8999L7.59135 15.742C7.61111 15.7297 7.63097 15.7175 7.65083 15.7053C7.69883 15.6759 7.74684 15.6464 7.79347 15.6149C7.84576 15.5794 7.89637 15.5421 7.94507 15.5019C8.03352 15.4288 8.11604 15.3481 8.19573 15.2656C8.25855 15.2007 8.31915 15.1337 8.37638 15.0637C8.41674 15.0143 8.45486 14.9633 8.49288 14.9121C8.54129 14.8469 8.58685 14.7793 8.62907 14.71C8.68845 14.6125 8.74053 14.5104 8.78846 14.4068L8.87608 14.2047C8.90551 14.1366 8.93643 14.0693 8.96875 14.0026L9.04444 13.851L9.12288 13.6994C9.16927 13.6138 9.21887 13.53 9.26917 13.4467C9.34176 13.3265 9.41694 13.208 9.49744 13.093C9.58223 12.9719 9.67228 12.8548 9.76439 12.7393C9.83271 12.6536 9.90154 12.5681 9.97496 12.4866C10.0679 12.3835 10.1666 12.2851 10.2695 12.192C10.3182 12.148 10.3685 12.1058 10.4188 12.0635L10.4211 12.0616L10.6737 11.8504L10.6818 11.8435C10.6882 11.8382 10.6945 11.8328 10.7009 11.8274C10.7424 11.7924 10.7838 11.7575 10.8232 11.7201C10.8857 11.6607 10.9453 11.5974 10.9945 11.5263C11.047 11.4506 11.0902 11.3659 11.1039 11.2739C11.1193 11.1701 11.0911 11.0687 11.0598 10.9707C11.0266 10.8666 10.9838 10.7663 10.9374 10.6675C10.902 10.5919 10.8644 10.5173 10.8268 10.4428C10.8136 10.4166 10.8004 10.3905 10.7873 10.3643C10.7777 10.345 10.7681 10.3258 10.7585 10.3065C10.6919 10.1729 10.6253 10.0392 10.5511 9.90952L10.3712 9.60633C10.3418 9.55636 10.3126 9.50608 10.2857 9.45474C10.2343 9.35686 10.19 9.2558 10.1532 9.15155C10.1298 9.08523 10.109 9.0179 10.0928 8.94942C10.0794 8.8927 10.0698 8.83521 10.0601 8.77775C10.0584 8.7676 10.0567 8.75744 10.055 8.7473C10.0537 8.73993 10.0525 8.73254 10.0512 8.72515C10.041 8.66559 10.0306 8.60545 10.0274 8.54517L10.032 8.39358L10.0595 8.19145C10.0619 8.17195 10.0638 8.1524 10.0659 8.1316C10.071 8.08063 10.0768 8.02218 10.0908 7.9388L10.1245 7.7872C10.1411 7.71943 10.1581 7.65157 10.1794 7.58508C10.2086 7.49361 10.2461 7.40549 10.2837 7.31728L10.3016 7.27523C10.3439 7.17542 10.3863 7.07574 10.4347 6.9787C10.4807 6.88684 10.5317 6.79795 10.5828 6.70894L10.747 6.42286C10.788 6.35393 10.8318 6.28622 10.8781 6.22073C10.9147 6.16884 10.9527 6.11815 10.9932 6.06918C11.0497 6.00082 11.1103 5.93598 11.1712 5.87154C11.2416 5.79703 11.313 5.72319 11.3898 5.65518C11.4672 5.58658 11.5495 5.52426 11.6339 5.4646C11.7001 5.41779 11.7678 5.37258 11.836 5.3286C11.9187 5.27521 12.0016 5.22222 12.0886 5.17591C12.2334 5.0989 12.3866 5.04095 12.5434 4.99391C12.6428 4.96411 12.7438 4.9369 12.8466 4.92208C12.9304 4.91001 13.0147 4.90776 13.0993 4.90715C13.1834 4.90655 13.2681 4.90715 13.3519 4.91554C13.4197 4.92232 13.4873 4.9339 13.554 4.94774C13.6218 4.96179 13.6896 4.97593 13.7562 4.99512C13.8412 5.01962 13.9252 5.04698 14.0088 5.0759L14.1604 5.13068L14.2615 5.17127L14.3625 5.21615C14.4314 5.24762 14.4985 5.28369 14.5647 5.32037L14.6657 5.37804C14.7174 5.4099 14.768 5.44249 14.8173 5.47793C14.8691 5.51514 14.9197 5.55454 14.9689 5.5951L14.9845 5.60792C15.0305 5.64579 15.0766 5.68373 15.1205 5.72404C15.2061 5.80255 15.2893 5.88333 15.3686 5.96812C15.4361 6.04014 15.4999 6.11535 15.5636 6.19056L15.5637 6.19061L15.5638 6.19073L15.5638 6.19079C15.5866 6.21767 15.6094 6.24454 15.6324 6.27127C15.6487 6.29027 15.6652 6.30917 15.6817 6.32807L15.6819 6.32827L15.682 6.32835C15.7236 6.37609 15.7653 6.42383 15.8047 6.47339C15.8956 6.58768 15.9819 6.70541 16.0626 6.82711C16.1171 6.90921 16.1695 6.99279 16.2159 7.07977C16.2767 7.19382 16.3259 7.31344 16.3735 7.43349C16.4261 7.56623 16.4748 7.7003 16.5138 7.83774C16.5701 8.0366 16.6067 8.24042 16.6405 8.44411C16.6431 8.45954 16.6457 8.47497 16.6483 8.4904L16.6484 8.49085C16.6572 8.54254 16.6659 8.59426 16.6726 8.64624L16.6832 8.7473L16.6954 8.89889L16.7231 9.10102C16.7293 9.1515 16.7333 9.20179 16.7355 9.25261C16.7383 9.31569 16.738 9.37896 16.7377 9.44215C16.7376 9.4632 16.7375 9.48425 16.7375 9.50527L16.7376 10.1116C16.7378 10.1791 16.738 10.2465 16.7419 10.3138C16.7437 10.3461 16.7467 10.3784 16.7496 10.4107C16.7544 10.4625 16.7592 10.5143 16.7592 10.5664C16.7592 10.6185 16.7544 10.6704 16.7495 10.7222C16.7481 10.7376 16.7467 10.7531 16.7453 10.7686L16.7395 10.8696C16.7374 10.9218 16.7373 10.9739 16.7372 11.0261C16.737 11.1088 16.7368 11.1914 16.7289 11.2739L16.7014 11.476C16.6952 11.5265 16.6912 11.5767 16.689 11.6276C16.6866 11.6806 16.6868 11.7338 16.6869 11.7869C16.687 11.8011 16.687 11.8154 16.687 11.8297V13.093L16.8467 13.0738L16.9409 13.0473C16.9916 13.0299 17.0416 13.0113 17.0912 12.9912C17.1772 12.9563 17.262 12.9182 17.3439 12.8745C17.4487 12.8186 17.5489 12.7542 17.6471 12.6873C17.751 12.6164 17.8521 12.5418 17.9503 12.4631C18.0027 12.4211 18.0526 12.3761 18.1019 12.3305C18.1709 12.2665 18.2377 12.1998 18.3038 12.1328C18.385 12.0505 18.4662 11.9682 18.5415 11.8802C18.6241 11.7836 18.6999 11.6811 18.7729 11.5771C18.8305 11.4946 18.8865 11.4108 18.938 11.3244C18.987 11.2422 19.0313 11.1573 19.0741 11.0717C19.1156 10.9888 19.1559 10.9051 19.1907 10.8191C19.2371 10.7041 19.2752 10.5853 19.3067 10.4654C19.3243 10.3986 19.3394 10.3314 19.3507 10.2632L19.3788 10.0611L19.4013 9.90952C19.4075 9.85904 19.4115 9.80876 19.4137 9.75793C19.416 9.70495 19.4159 9.65178 19.4157 9.5987L19.4157 9.56858L19.4157 9.25261C19.4157 9.24134 19.4157 9.23007 19.4157 9.2188C19.4157 9.12892 19.4157 9.03897 19.4243 8.94942C19.4286 8.90398 19.4356 8.85888 19.4425 8.81379C19.446 8.79164 19.4494 8.76949 19.4525 8.7473L19.4799 8.54517L19.4955 8.44411L19.5102 8.34305C19.5117 8.33173 19.5132 8.32041 19.5147 8.3091L19.5147 8.30893C19.5221 8.25277 19.5295 8.19663 19.54 8.14092C19.5555 8.05867 19.5763 7.97736 19.597 7.89628L19.5991 7.88827C19.634 7.75171 19.6721 7.61592 19.7222 7.48402C19.7752 7.34439 19.8407 7.20951 19.9146 7.07977C19.9604 6.99924 20.0103 6.92109 20.0601 6.84299L20.0703 6.82711C20.0786 6.81395 20.087 6.80074 20.0953 6.78752C20.1301 6.73248 20.165 6.67723 20.2037 6.62498C20.2679 6.53831 20.3361 6.45483 20.4056 6.37237C20.477 6.28778 20.5488 6.204 20.6304 6.12899L20.7801 6.00648L20.8811 5.93513L21.0327 5.83391C21.1781 5.73926 21.3278 5.64979 21.4875 5.58091L21.5885 5.54079C21.6553 5.51781 21.7228 5.49758 21.7906 5.47782C21.8571 5.45843 21.9243 5.43984 21.9928 5.42865C22.0754 5.41514 22.1584 5.41381 22.2418 5.41248L22.2454 5.41243L22.397 5.41223C22.4171 5.41223 22.4372 5.41214 22.4573 5.41205C22.5722 5.41153 22.6875 5.41101 22.8013 5.4274C22.8868 5.43972 22.9709 5.461 23.0539 5.48441C23.1567 5.51338 23.2575 5.54805 23.3571 5.58656C23.4029 5.60424 23.4478 5.62422 23.4926 5.64416L23.5219 5.65719C23.5683 5.67777 23.6148 5.69843 23.6603 5.72096L23.7614 5.772L23.8624 5.82822C23.9312 5.86899 23.9994 5.91052 24.0645 5.95704C24.1835 6.04213 24.2927 6.13976 24.3968 6.24238C24.4466 6.29144 24.495 6.3419 24.5435 6.39236L24.5435 6.39242C24.5697 6.41973 24.596 6.44705 24.6224 6.47413C24.6416 6.49382 24.6609 6.51343 24.6801 6.53304C24.7425 6.59646 24.8049 6.65989 24.8644 6.72605C24.9233 6.79146 24.9797 6.85921 25.0343 6.92817L25.1521 7.07977C25.2013 7.14581 25.248 7.21357 25.2939 7.28189C25.3494 7.36445 25.4051 7.44745 25.4534 7.53455C25.4962 7.61167 25.5313 7.69227 25.5665 7.77298L25.5665 7.77306L25.5727 7.7872L25.5827 7.81006C25.6159 7.88591 25.6492 7.96185 25.677 8.03986C25.702 8.10988 25.7221 8.18141 25.7422 8.25293C25.7459 8.26613 25.7496 8.27933 25.7534 8.29252C25.7582 8.30952 25.7631 8.32651 25.768 8.3435L25.7682 8.3443L25.7682 8.34439C25.7826 8.39427 25.797 8.4442 25.8091 8.49464C25.8293 8.57837 25.8468 8.66257 25.8623 8.7473L25.8877 8.89889L25.92 9.10102L25.942 9.30314C25.9464 9.33976 25.9517 9.37625 25.957 9.41272L25.9571 9.41282L25.9571 9.4129L25.9571 9.4131L25.9571 9.41318L25.9571 9.4135L25.9572 9.41359C25.9665 9.47764 25.9758 9.54167 25.9802 9.60633C25.9849 9.67561 25.9848 9.74517 25.9848 9.81463C25.9847 9.82942 25.9847 9.84421 25.9847 9.85899V10.4654L25.9855 10.617L25.9893 10.718L26.0002 10.8191L26.0213 10.9199L26.0572 11.0184L26.1516 11.1468L26.2403 11.2073L26.3387 11.2451L26.4395 11.2663C26.457 11.2691 26.4745 11.2716 26.492 11.2742C26.5421 11.2816 26.5921 11.2889 26.6416 11.2997C26.6857 11.3092 26.7291 11.3214 26.7724 11.3335L26.7932 11.3393L26.8943 11.3679C26.9069 11.3715 26.9196 11.375 26.9322 11.3786C26.9875 11.3942 27.0428 11.4098 27.0964 11.43C27.1477 11.4494 27.1984 11.4692 27.248 11.4925C27.2999 11.517 27.3504 11.544 27.3996 11.5735C27.4518 11.6048 27.5016 11.6393 27.5512 11.6744L27.6523 11.7523L27.8039 11.8848L27.9553 12.032C28.0212 12.0979 28.0857 12.1649 28.1482 12.234L28.2318 12.335C28.2694 12.3825 28.3027 12.4342 28.333 12.4866C28.3703 12.5511 28.4018 12.6195 28.4291 12.6887C28.4554 12.7553 28.4802 12.8222 28.5008 12.8909C28.5208 12.9575 28.5365 13.025 28.5512 13.093L28.5813 13.2446C28.5903 13.2949 28.5987 13.3453 28.6037 13.3962C28.6118 13.4768 28.6121 13.5579 28.6123 13.6388L28.6123 13.6488C28.6127 13.75 28.613 13.8512 28.603 13.952C28.5979 14.0032 28.5865 14.0542 28.5725 14.1036C28.5579 14.1551 28.5393 14.2064 28.5174 14.2552C28.4942 14.3067 28.4705 14.3575 28.4431 14.4068C28.4142 14.459 28.3823 14.5093 28.3485 14.5584C28.3008 14.6278 28.2488 14.6935 28.1942 14.7575L28.1106 14.8454L28.0391 14.9078L27.9555 14.9626L28.0052 14.8782L28.0563 14.803C28.0704 14.7826 28.0847 14.7622 28.0989 14.7418C28.1638 14.6493 28.2288 14.5565 28.283 14.4573L28.355 14.3057L28.3919 14.2047L28.4221 14.1036L28.4423 14.0026L28.4473 13.9015L28.4366 13.8004C28.427 13.7493 28.4154 13.6991 28.4024 13.6488C28.3757 13.5465 28.3429 13.4457 28.309 13.3456C28.2741 13.2426 28.2378 13.1399 28.1891 13.0425C28.1543 12.9729 28.1145 12.9053 28.0717 12.8403C28.0144 12.7533 27.9553 12.6678 27.8885 12.5877C27.845 12.5356 27.7993 12.4848 27.7513 12.4368L27.747 12.4325C27.6996 12.385 27.6522 12.3375 27.6017 12.2933L27.5007 12.2069C27.4509 12.1671 27.4006 12.128 27.3491 12.0904C27.1604 11.9525 26.9585 11.8309 26.7427 11.7404C26.6603 11.7058 26.5764 11.6757 26.4901 11.6523C26.4396 11.6386 26.3885 11.6276 26.3374 11.6167L26.3373 11.6166C26.3044 11.6096 26.2714 11.6025 26.2387 11.5947C26.1608 11.5761 26.084 11.5545 26.007 11.5328L25.9847 11.5265C25.9847 11.5405 25.9847 11.5545 25.9847 11.5685C25.9846 11.6558 25.9846 11.743 25.9762 11.83L25.9486 12.0318L25.9388 12.1329L25.935 12.234L25.9342 12.3856V13.6994L25.9334 13.851L25.9334 13.8545C25.9322 13.9039 25.931 13.9534 25.9256 14.0026L25.9128 14.1036L25.8981 14.2047C25.8919 14.2552 25.8879 14.3054 25.8856 14.3563L25.8837 14.5079L25.8836 15.468L25.8829 15.569L25.8828 15.5726C25.8817 15.6219 25.8805 15.6715 25.8751 15.7206L25.8623 15.8217L25.8475 15.9227C25.8413 15.9732 25.8373 16.0235 25.8351 16.0743L25.8332 16.2259L25.8331 16.4281L25.8333 16.5796L25.8334 16.5821V16.5826C25.8338 16.6321 25.8343 16.6818 25.8377 16.7312C25.8417 16.7906 25.8501 16.8493 25.8584 16.9081C25.8667 16.9669 25.8751 17.0256 25.8791 17.085C25.8843 17.1606 25.884 17.2365 25.8837 17.3124C25.8833 17.3882 25.883 17.4641 25.8882 17.5397C25.8933 17.6136 25.9044 17.6868 25.9154 17.7599L25.9155 17.7606L25.9156 17.7611C25.9197 17.7884 25.9238 17.8156 25.9276 17.8429L25.9481 17.9945C25.9617 18.0792 25.977 18.1637 25.9967 18.2472C26.0209 18.3502 26.0515 18.4514 26.0891 18.5504C26.1291 18.6555 26.1757 18.7579 26.2351 18.8536C26.2785 18.9236 26.3276 18.99 26.3798 19.0537C26.4322 19.1176 26.4878 19.1788 26.5492 19.2342C26.6098 19.2888 26.6755 19.3361 26.7429 19.3817L26.8438 19.4423L26.9448 19.4939L27.0459 19.5375C27.1114 19.5646 27.1799 19.5842 27.248 19.6035C27.2977 19.6176 27.3487 19.6294 27.3996 19.6386C27.4499 19.6477 27.5003 19.6539 27.5512 19.6575C27.6094 19.6616 27.6678 19.6617 27.7262 19.6619C27.7352 19.6619 27.7443 19.662 27.7533 19.662H28.4102L28.4321 19.6619C28.5261 19.6615 28.6204 19.6612 28.7134 19.6456C28.782 19.6342 28.8496 19.6156 28.9155 19.5934C28.9981 19.5656 29.0791 19.5341 29.1848 19.4918L29.2693 19.4599L29.205 19.3508L29.1955 19.3341C29.1616 19.2742 29.1276 19.2141 29.0899 19.1565C29.0077 19.0307 28.9134 18.9127 28.8099 18.8038C28.7626 18.754 28.7134 18.7062 28.6627 18.66L28.5113 18.5291L28.2586 18.3114C28.2379 18.2936 28.2171 18.276 28.1962 18.2584C28.1492 18.2187 28.1022 18.179 28.0567 18.1375C28.006 18.0913 27.9568 18.0435 27.9095 17.9938C27.8487 17.9298 27.7902 17.863 27.6991 17.7419C27.6526 17.6763 27.608 17.61 27.5688 17.5397C27.4977 17.4119 27.4453 17.2746 27.4011 17.1355C27.3851 17.0854 27.3704 17.0348 27.357 16.9839C27.3394 16.9172 27.3236 16.85 27.3137 16.7818C27.3016 16.6979 27.2997 16.6137 27.299 16.5291C27.2984 16.4619 27.3001 16.3939 27.3073 16.327C27.3184 16.2241 27.3427 16.1233 27.3707 16.0238C27.4046 15.9036 27.4449 15.7849 27.4943 15.6701C27.5163 15.6188 27.5403 15.5686 27.565 15.5185L27.6188 15.4174L27.6799 15.3166L27.7484 15.2183L27.8194 15.1305L27.8804 15.0681L27.9555 15.0132C27.9517 15.0267 27.9479 15.0401 27.944 15.0536L27.944 15.0539C27.9193 15.1408 27.8947 15.2278 27.8777 15.3166C27.8664 15.3757 27.8585 15.4354 27.8507 15.495L27.8506 15.4956C27.8474 15.5201 27.8442 15.5446 27.8407 15.569C27.8383 15.5861 27.8357 15.6032 27.8331 15.6203C27.823 15.6871 27.8129 15.7539 27.8129 15.8217C27.8129 15.8897 27.8227 15.9569 27.8338 16.0238C27.8352 16.0322 27.8366 16.0407 27.8379 16.0491C27.8504 16.1255 27.863 16.2025 27.8859 16.2765C27.913 16.3644 27.9525 16.4481 27.9957 16.5291C28.0418 16.6156 28.0936 16.6983 28.1519 16.7771C28.2536 16.9145 28.3748 17.0363 28.4992 17.1531L28.6676 17.3035L28.9661 17.5759L29.1175 17.7057C29.1681 17.7505 29.2177 17.7962 29.2646 17.8449L29.3537 17.9442L29.4315 18.0451L29.4983 18.1461C29.5277 18.1959 29.5562 18.2459 29.5821 18.2977C29.6226 18.3789 29.6594 18.463 29.6842 18.5504C29.6982 18.5998 29.7096 18.6508 29.7147 18.702C29.723 18.786 29.7244 18.8702 29.7238 18.9546C29.7234 19.0053 29.7221 19.0556 29.7153 19.1567L29.7004 19.2578C29.6861 19.3263 29.6696 19.3941 29.6453 19.4599L29.6027 19.561L29.5488 19.6621L29.4866 19.7631C29.4543 19.8147 29.4193 19.8649 29.3844 19.9147C29.2867 20.0544 29.1818 20.1885 29.0711 20.3182L28.9445 20.4618L28.8564 20.548L28.7127 20.6594L28.6123 20.7169C28.548 20.748 28.4798 20.7672 28.4102 20.7827C28.3434 20.7976 28.276 20.8075 28.2081 20.8158L28.006 20.8327C27.9715 20.8363 27.9371 20.8414 27.9028 20.8464C27.8364 20.8561 27.77 20.8658 27.7028 20.8658C27.6395 20.8658 27.5774 20.8567 27.515 20.8476L27.5007 20.8455L27.3491 20.8243L27.1975 20.8023C27.113 20.7874 27.0286 20.771 26.9448 20.7523C26.8249 20.7254 26.7056 20.6944 26.5911 20.6492C26.5218 20.6219 26.4551 20.5895 26.389 20.5552L26.2879 20.4974L26.1363 20.394C26.0851 20.3545 26.0349 20.314 25.9855 20.2723C25.9053 20.2047 25.8261 20.1355 25.7556 20.0577C25.714 20.0119 25.6765 19.9631 25.6027 19.864C25.5684 19.8143 25.5343 19.7646 25.5034 19.7126C25.4648 19.6476 25.4312 19.5801 25.4019 19.5105C25.3809 19.4609 25.3625 19.41 25.3458 19.3589C25.3131 19.259 25.2834 19.1583 25.2604 19.0557C25.2454 18.9887 25.234 18.9212 25.2228 18.8536L25.1905 18.6514L25.1684 18.4493C25.164 18.4127 25.1587 18.3762 25.1534 18.3397L25.1533 18.3389C25.144 18.2748 25.1347 18.2108 25.1303 18.1461C25.1268 18.0965 25.1264 18.0467 25.1259 17.9971L25.1259 17.9945L25.1255 17.7924L25.1237 17.6913C25.1215 17.6405 25.1175 17.5902 25.1113 17.5397L25.0966 17.4387L25.0838 17.3376C25.0784 17.2885 25.0772 17.2389 25.076 17.1896L25.0759 17.186L25.0752 16.9839L25.0752 16.4786L25.0753 16.4584V16.4583C25.0754 16.3977 25.0755 16.337 25.0797 16.2765L25.0896 16.1754L25.1113 16.0238C25.1178 15.9734 25.1215 15.923 25.1237 15.8722L25.1257 15.7206L25.1258 14.71L25.1277 14.5584L25.1401 14.4068L25.1676 14.2047L25.1743 14.1036L25.1762 13.952L25.1762 13.1941C25.1763 13.173 25.1761 13.152 25.176 13.1309V13.1308C25.1757 13.0676 25.1754 13.0044 25.1782 12.9414L25.1906 12.7898L25.2182 12.5877L25.2248 12.4866L25.2267 12.335V10.8696L25.2248 10.718L25.2124 10.5664L25.1848 10.3643L25.1782 10.2632L25.1763 10.1116L25.1762 9.85899L25.1762 9.84204C25.1761 9.78031 25.1759 9.71848 25.1717 9.65686C25.1672 9.59096 25.1577 9.52575 25.1482 9.46049L25.1482 9.46041L25.1481 9.45975C25.1454 9.44125 25.1427 9.42274 25.1401 9.40421L25.1301 9.30314L25.1172 9.10102L25.083 8.84836L25.0608 8.64624C25.0453 8.5443 25.0248 8.44323 25.0044 8.3422L24.9943 8.29252C24.967 8.15692 24.9397 8.02144 24.902 7.88827C24.858 7.73338 24.8019 7.5826 24.7415 7.43349L24.7397 7.42908C24.7128 7.36271 24.6858 7.29615 24.6553 7.23136C24.6232 7.16326 24.5908 7.095 24.5541 7.02923L24.4964 6.92817L24.4001 6.77658C24.3658 6.72472 24.3295 6.67384 24.291 6.62498C24.1917 6.49873 24.078 6.38429 23.9634 6.272C23.8979 6.20775 23.832 6.14314 23.7108 6.04224L23.6098 5.96426C23.56 5.92853 23.51 5.89352 23.4582 5.86078C23.3464 5.79012 23.2293 5.72869 23.1045 5.68447C23.0548 5.66686 23.0041 5.65206 22.9529 5.63982C22.8931 5.62554 22.8323 5.61548 22.7717 5.60544L22.7392 5.60004C22.6426 5.58392 22.5458 5.56777 22.4475 5.5678L22.296 5.57849L22.1949 5.5949L22.0433 5.62501C21.9413 5.64669 21.8393 5.67022 21.7401 5.70275C21.6177 5.7429 21.5004 5.79639 21.3864 5.85614C21.2993 5.90178 21.2138 5.9506 21.1337 6.00793C21.0244 6.08622 20.9264 6.17778 20.8307 6.272C20.7644 6.33743 20.7 6.40474 20.637 6.47339L20.549 6.57445L20.4225 6.72605C20.4154 6.73463 20.4084 6.7432 20.4013 6.75177C20.3541 6.80931 20.3068 6.86682 20.2644 6.92817C20.2307 6.97692 20.2006 7.02741 20.1729 7.07977C20.1509 7.12125 20.132 7.16423 20.1131 7.20716L20.113 7.2074L20.1069 7.22116L20.1024 7.23136L20.0585 7.33242C20.0225 7.41593 19.9868 7.49935 19.9563 7.58508C19.915 7.70106 19.8822 7.81961 19.8518 7.9388L19.8464 7.95961C19.8267 8.03639 19.8069 8.11348 19.7928 8.19145L19.7774 8.29252L19.7616 8.44411C19.7571 8.48076 19.7518 8.51728 19.7465 8.55379C19.7372 8.61809 19.7278 8.68238 19.7234 8.7473C19.7187 8.81659 19.7188 8.88619 19.7188 8.95566C19.7189 8.97043 19.7189 8.9852 19.7189 8.99996V9.35367L19.7143 9.60633L19.7045 9.70739L19.6896 9.80846L19.6749 9.90952C19.6728 9.92493 19.6707 9.94034 19.6687 9.95575C19.6618 10.0079 19.6548 10.0599 19.6451 10.1116C19.6296 10.194 19.6087 10.2754 19.5879 10.3566L19.586 10.3643L19.5457 10.5159C19.5209 10.6007 19.494 10.6847 19.466 10.7686C19.4433 10.8365 19.4197 10.9043 19.3928 10.9707C19.3496 11.0774 19.2981 11.1803 19.2466 11.2832L19.226 11.3244L19.1248 11.5265L19.0462 11.6781C18.979 11.8004 18.9034 11.9176 18.8234 12.0318C18.7505 12.1359 18.6747 12.2384 18.592 12.335C18.5183 12.4211 18.4389 12.5018 18.3594 12.5825L18.3543 12.5877L18.2029 12.7393C18.1851 12.7571 18.1673 12.7749 18.1496 12.7927C18.0512 12.8915 17.9527 12.9903 17.8492 13.0837C17.7855 13.1411 17.7168 13.1927 17.6471 13.2426C17.5975 13.278 17.5465 13.3119 17.4955 13.3454L17.4875 13.3507L17.4873 13.3508C17.4233 13.3929 17.3592 13.4351 17.2934 13.4744C17.2273 13.5137 17.1594 13.5497 17.0912 13.5853L16.8919 13.6891L16.8021 13.7482L16.7303 13.8201L16.6816 13.9068L16.6538 14.0033L16.6412 14.1037L16.6372 14.2047L16.6364 14.3563L16.6365 14.899C16.6365 14.9539 16.6366 15.0089 16.6345 15.0637L16.6286 15.1648L16.6159 15.3164C16.6121 15.3841 16.618 15.4512 16.6248 15.5185C16.6332 15.6031 16.6443 15.688 16.6623 15.7711C16.6748 15.8293 16.6912 15.8866 16.7075 15.9439L16.7076 15.9441C16.7198 15.987 16.732 16.0298 16.7426 16.0731L16.7645 16.1673L16.7786 16.2426L16.788 16.327L16.8725 16.3053L16.9477 16.2765L17.042 16.2307L17.2934 16.0885L17.5965 15.9152L17.7987 15.8004C17.818 15.7894 17.8372 15.7782 17.8565 15.767L17.8566 15.7669L17.8569 15.7668C17.9045 15.7391 17.9521 15.7114 18.0008 15.6857C18.0997 15.6335 18.1997 15.5827 18.304 15.5419C18.3862 15.5098 18.4709 15.4837 18.5566 15.4629C18.6232 15.4467 18.6905 15.4333 18.7588 15.4262C18.8092 15.4209 18.8597 15.4197 18.9104 15.4189C18.9776 15.4179 19.0462 15.4224 19.1125 15.4341C19.1996 15.4493 19.2851 15.4765 19.3651 15.5145C19.5112 15.5837 19.6428 15.6868 19.7326 15.8224C19.8022 15.9275 19.8368 16.0519 19.8552 16.1754C19.8652 16.2421 19.8695 16.3101 19.8695 16.3775C19.8695 16.445 19.8691 16.5125 19.8612 16.5796C19.853 16.6485 19.8372 16.7153 19.8177 16.7818C19.8027 16.833 19.785 16.8835 19.7661 16.9334C19.7467 16.9846 19.7257 17.0353 19.7025 17.085C19.6621 17.1717 19.6154 17.2554 19.5665 17.3376C19.5257 17.4062 19.4839 17.4748 19.4374 17.5397C19.3753 17.6264 19.3103 17.7107 19.2418 17.7924C19.1986 17.8439 19.1542 17.8943 19.1087 17.9438L18.97 18.0909C18.956 18.1058 18.942 18.1206 18.928 18.1355L18.9271 18.1365L18.927 18.1366C18.8428 18.2261 18.7586 18.3156 18.6698 18.4007C18.5671 18.4993 18.4617 18.5949 18.3544 18.6883L18.2059 18.8162L18.1181 18.9005L18.0557 18.972L18.0008 19.0557L18.0852 19.0736L18.1605 19.0944C18.2776 19.1303 18.3923 19.1725 18.5061 19.2176C18.5912 19.2513 18.6756 19.2862 18.7588 19.3245C18.8281 19.3564 18.8953 19.3934 18.9609 19.4323C19.0839 19.5053 19.2027 19.5866 19.3139 19.6765C19.4267 19.7678 19.5317 19.8685 19.6315 19.9738C19.691 20.0366 19.7494 20.1007 19.8042 20.1676C19.8444 20.2166 19.8823 20.2672 19.9188 20.319C19.9651 20.3846 20.0079 20.4525 20.0496 20.5211L20.1068 20.6222L20.1573 20.7232L20.2007 20.8243C20.2277 20.8897 20.2482 20.9582 20.2667 21.0264C20.2891 21.1094 20.3073 21.1935 20.3164 21.2791C20.3218 21.3294 20.3234 21.3801 20.3245 21.4307L20.3252 21.6328C20.3252 21.6493 20.3253 21.6658 20.3253 21.6824C20.3256 21.8008 20.3259 21.9194 20.3106 22.037L20.2941 22.1381L20.2939 22.1392C20.2806 22.2065 20.2673 22.2737 20.2507 22.3402L20.2093 22.4918L20.1517 22.6939C20.1307 22.7622 20.1074 22.8294 20.082 22.8961L20.0026 23.0982L19.9667 23.1993L19.9409 23.3003L19.9347 23.4511L19.9587 23.5484L20.044 23.6823L20.1286 23.7642C20.1748 23.8049 20.2246 23.8407 20.3253 23.9077L20.4262 23.9613L20.5261 24.0022L20.6956 24.0482L20.78 24.0583L20.7801 22.7445L20.7801 22.7267C20.7805 22.6483 20.7808 22.5699 20.7887 22.4918C20.7971 22.4068 20.8133 22.3226 20.8313 22.2392C20.8533 22.1369 20.8812 22.0363 20.9109 21.936C20.9134 21.9275 20.9159 21.919 20.9184 21.9106L20.9184 21.9104C20.9308 21.8683 20.9433 21.8259 20.9577 21.7844C20.9932 21.6817 21.0323 21.5805 21.0762 21.4812C21.1064 21.4128 21.1387 21.3454 21.1734 21.2791C21.2095 21.21 21.2474 21.1418 21.2906 21.0769L21.403 20.9253C21.4473 20.8736 21.4925 20.8232 21.54 20.7745C21.6334 20.6789 21.7324 20.5883 21.8412 20.5104C21.9514 20.4315 22.0714 20.3676 22.1949 20.3121C22.2448 20.2898 22.2954 20.2687 22.3465 20.2492C22.3962 20.2301 22.4464 20.2114 22.4981 20.1982L22.5991 20.178L22.7002 20.1695L22.9023 20.1674L23.0539 20.1676L23.0663 20.1678L23.0833 20.168C23.1241 20.1685 23.1648 20.169 23.2055 20.1721C23.2566 20.176 23.3071 20.1827 23.3571 20.1941C23.461 20.2179 23.5588 20.2605 23.6563 20.3029C23.6744 20.3108 23.6926 20.3188 23.7108 20.3265C23.7341 20.3365 23.7574 20.3464 23.7808 20.3562C23.8419 20.3821 23.9031 20.4079 23.9635 20.4356C24.0344 20.4682 24.1041 20.5031 24.1738 20.538C24.1879 20.5451 24.202 20.5521 24.2161 20.5591L24.8225 20.8623C24.8481 20.8751 24.8737 20.8878 24.8993 20.9005C24.9751 20.9382 25.0509 20.9759 25.1257 21.0153L25.2773 21.0984L25.4794 21.2129C25.5613 21.2572 25.6445 21.2988 25.7277 21.3405L25.7278 21.3405C25.7969 21.3751 25.8659 21.4097 25.9342 21.4457L26.4395 21.7188L26.6922 21.85L27.1975 22.123L27.4501 22.2516L27.7028 22.3777L27.8544 22.4483L28.0565 22.5353L28.2586 22.6279L28.7134 22.8241C28.8111 22.865 28.9095 22.9043 29.0085 22.942L29.0838 22.9695L29.1682 22.9971L29.0861 22.9127L29.0199 22.8374L28.9498 22.7432L28.8939 22.6433C28.8563 22.564 28.8352 22.4787 28.8238 22.392C28.8149 22.3236 28.8148 22.2543 28.8147 22.1853C28.8147 22.1762 28.8146 22.167 28.8146 22.1579C28.8146 22.1513 28.8145 22.1447 28.8145 22.1381L28.7301 22.2123L28.6548 22.2696L28.5606 22.3299L28.4102 22.3981L28.2586 22.4317L28.1071 22.4384L28.006 22.4304L27.9049 22.4083L27.8039 22.3677L27.7036 22.3072L27.6072 22.2283L27.5219 22.1359L27.4547 22.0368C27.41 21.9593 27.3808 21.8725 27.3659 21.7844C27.3371 21.6132 27.3696 21.4343 27.4501 21.2811L27.5411 21.1441L27.6184 21.0663L27.7075 21.0003L27.8046 20.9464L27.905 20.9076C27.9867 20.8828 28.0725 20.8764 28.1576 20.8764C28.2607 20.8764 28.3644 20.8866 28.4607 20.9258C28.5704 20.9705 28.6671 21.043 28.7441 21.1328L28.8421 21.2793L28.8844 21.3801L28.9202 21.5316L28.9295 21.6315C28.9324 21.6995 28.9262 21.7677 28.92 21.8355V21.8358L28.9199 21.8364L28.9198 21.837C28.9191 21.8456 28.9183 21.8542 28.9175 21.8627C28.9171 21.867 28.9168 21.8713 28.9164 21.8756L28.9156 21.8854L29 21.8033L29.0752 21.7365C29.1363 21.6874 29.1988 21.6403 29.2694 21.6052C29.3332 21.5735 29.4009 21.553 29.4714 21.5425C29.5195 21.5353 29.568 21.5344 29.6165 21.5334L29.623 21.5333L29.7241 21.5371L29.8251 21.5516L29.9765 21.6053L30.0756 21.6658L30.168 21.7447L30.247 21.8371L30.3081 21.9362L30.3694 22.0876L30.3951 22.1886L30.4075 22.2897C30.4109 22.3755 30.395 22.4606 30.3694 22.5423C30.3354 22.651 30.2838 22.7535 30.2095 22.8402L30.0756 22.9641L29.9765 23.0246L29.8756 23.0652C29.8176 23.0838 29.757 23.091 29.6967 23.0982C29.6898 23.099 29.6828 23.0999 29.6758 23.1007L29.5558 23.1191L29.4714 23.1487L29.623 23.1927L29.7746 23.2498L29.7736 23.3342C29.771 23.3913 29.765 23.4486 29.7494 23.5037C29.7238 23.594 29.6781 23.6758 29.6291 23.7551C29.5875 23.8222 29.5412 23.8861 29.4949 23.9499L29.4948 23.9501L29.4896 23.9572L29.4142 24.058L29.3367 24.1564L29.2541 24.2443L29.1637 24.3088L29.0664 24.3409L28.9156 24.339L28.8145 24.3253L28.7134 24.3147L28.5618 24.3028L28.4102 24.2864L28.3092 24.2834L28.2081 24.2915L28.0565 24.3064C28.005 24.3098 27.9533 24.3105 27.9017 24.3112C27.8353 24.3122 27.769 24.3131 27.7028 24.3195C27.6447 24.3252 27.587 24.3347 27.5294 24.3443C27.5199 24.3459 27.5102 24.3475 27.5007 24.349L27.248 24.3911L26.9954 24.4334L26.7932 24.4726L26.5911 24.5132L26.4395 24.5459L26.2374 24.5927L25.9847 24.647L25.6816 24.7216L25.3278 24.8104L25.0752 24.8802L24.8225 24.9413L24.6204 24.9944L24.4183 25.0398L24.1656 25.098L23.9635 25.1409L23.7108 25.1991L23.4582 25.2508C23.4415 25.2542 23.4249 25.2575 23.4083 25.2609L23.4077 25.261L23.4071 25.2611C23.3401 25.2747 23.273 25.2883 23.2055 25.2996L22.9529 25.3353L22.7507 25.3643L22.5486 25.3863L22.397 25.4082L22.296 25.4181C22.2464 25.4215 22.1966 25.422 22.1469 25.4224L22.1444 25.4224L21.9038 25.4226C21.8159 25.4227 21.7281 25.4227 21.6403 25.4209L21.4708 25.4017L21.3864 25.3721L21.3594 25.4565L21.2852 25.6755L21.2792 25.6929C21.2579 25.7548 21.2365 25.8168 21.2119 25.8774C21.1839 25.9463 21.1525 26.014 21.1174 26.0795C21.0895 26.1315 21.059 26.1815 20.9928 26.2817L20.8717 26.4331L20.778 26.5323C20.7001 26.6102 20.6171 26.6831 20.5274 26.7471L20.4263 26.8133L20.3252 26.8689L20.1736 26.9339C20.1235 26.9511 20.0733 26.9672 20.022 26.9811C19.9391 27.0035 19.8549 27.0217 19.7694 27.0308C19.719 27.0362 19.6684 27.0378 19.6178 27.0389L19.4157 27.0396L19.2641 27.0394C19.2545 27.0393 19.245 27.0392 19.2354 27.039C19.1944 27.0385 19.1534 27.038 19.1125 27.0349C19.0614 27.031 19.011 27.0243 18.9609 27.0134C18.8916 26.9984 18.825 26.9754 18.7588 26.9505L18.6577 26.9053L18.5568 26.8494L18.4096 26.7484L18.3194 26.6695L18.2396 26.5814L18.1747 26.4912L18.1328 26.4166L18.1019 26.3322H18.0008L17.9677 26.4166L17.9194 26.4919C17.8671 26.5604 17.8084 26.6233 17.7472 26.684C17.6376 26.7925 17.5184 26.8898 17.3944 26.9812C17.2955 27.0542 17.1934 27.1228 17.0912 27.1912L17.0514 27.2179L17.0511 27.2181C16.9641 27.2765 16.877 27.3349 16.788 27.3901C16.7214 27.4315 16.6533 27.4703 16.5851 27.509C16.5685 27.5185 16.5519 27.5279 16.5354 27.5374L16.2827 27.6809L16.0301 27.8127C16.0052 27.826 15.9804 27.8394 15.9556 27.8528C15.8798 27.8938 15.804 27.9348 15.7269 27.9733C15.6527 28.0105 15.5773 28.0451 15.5019 28.0797L15.501 28.0801C15.4752 28.0919 15.4494 28.1038 15.4237 28.1157L15.2721 28.1864L15.0194 28.2953L14.8173 28.3812C14.7182 28.4206 14.6169 28.4542 14.5157 28.4877L14.5155 28.4878L14.4933 28.4952C14.4834 28.4984 14.4735 28.5017 14.4636 28.505C14.4533 28.5085 14.443 28.5119 14.4326 28.5154L14.3934 28.5286L14.3927 28.5288C14.2821 28.5659 14.1715 28.603 14.0594 28.6351C13.9745 28.6593 13.8887 28.6806 13.803 28.7019C13.7874 28.7058 13.7718 28.7097 13.7562 28.7136C13.5886 28.7555 13.4209 28.7969 13.2509 28.8277L13.1498 28.8449L12.9477 28.8724C12.938 28.8738 12.9283 28.8752 12.9187 28.8767C12.9063 28.8785 12.8938 28.8805 12.8814 28.8824L12.8812 28.8824C12.8361 28.8894 12.791 28.8964 12.7455 28.9007C12.6772 28.9072 12.6086 28.9083 12.5401 28.9093C12.4906 28.9101 12.4412 28.9108 12.3918 28.9136C12.3597 28.9155 12.3276 28.9184 12.2955 28.9214C12.2435 28.9262 12.1914 28.931 12.1392 28.931C12.0911 28.931 12.0433 28.9266 11.9956 28.9222C11.9761 28.9204 11.9566 28.9186 11.937 28.9171C11.8865 28.9133 11.8361 28.9112 11.7854 28.91C11.7482 28.9092 11.711 28.9092 11.6737 28.9091C11.6099 28.9091 11.546 28.9091 11.4823 28.9047L11.3812 28.8949L11.2296 28.873L10.9769 28.8444C10.9035 28.8339 10.8308 28.8194 10.7581 28.8049C10.7469 28.8026 10.7355 28.8004 10.7243 28.7981C10.7152 28.7963 10.7061 28.7945 10.697 28.7927L10.6783 28.789C10.5752 28.7688 10.4718 28.7484 10.3706 28.72C10.2495 28.686 10.1315 28.642 10.0168 28.5903C9.93432 28.5532 9.85345 28.5121 9.77277 28.4712L9.76419 28.4668C9.67874 28.4235 9.59345 28.3799 9.51154 28.33C9.42412 28.2768 9.34098 28.2174 9.25888 28.1564C9.18954 28.1048 9.12187 28.05 9.05875 27.9909C8.94742 27.8868 8.85129 27.7689 8.7616 27.646C8.71379 27.5805 8.66676 27.5137 8.6254 27.4439L8.56727 27.3428L8.51456 27.2418C8.48188 27.1751 8.45051 27.1079 8.42149 27.0396C8.3863 26.9568 8.353 26.8726 8.32507 26.787C8.29265 26.6876 8.2693 26.5861 8.24845 26.4838C8.2314 26.4002 8.21501 26.3161 8.20634 26.2311L8.19948 26.1301L8.19495 26.0293C8.18956 25.9647 8.18169 25.8981 8.1167 25.8046L7.99264 25.7221L7.84396 25.6587L7.69241 25.589L7.54082 25.5182C7.47224 25.4845 7.40376 25.4498 7.33869 25.4096L7.23763 25.3457C7.16895 25.2988 7.10157 25.2504 7.03625 25.1989C6.97134 25.1477 6.9081 25.0944 6.84785 25.0378C6.78845 24.9821 6.7319 24.9233 6.67792 24.8622C6.60833 24.7836 6.54294 24.7017 6.48492 24.6141C6.42091 24.5175 6.36814 24.4142 6.31575 24.3109C6.27331 24.2273 6.23221 24.1431 6.19226 24.0583L6.14937 23.9572C6.12926 23.9079 6.11285 23.8567 6.09763 23.8056C6.07295 23.7228 6.05317 23.6384 6.03985 23.553C6.03228 23.5044 6.02734 23.4556 6.02241 23.4067C6.01883 23.3712 6.01524 23.3357 6.01065 23.3003C6.0074 23.2753 6.00351 23.2504 5.99961 23.2254C5.99301 23.1831 5.98641 23.1408 5.98293 23.0982L5.97634 22.9971L5.97442 22.8455C5.97414 22.7782 5.97427 22.7106 5.97887 22.6434C5.98329 22.5789 5.99259 22.5149 6.00188 22.451C6.00725 22.4141 6.01261 22.3772 6.01704 22.3402L6.03275 22.1886L6.04702 22.0876C6.0608 22.0027 6.07932 21.9185 6.09943 21.8349L6.14095 21.6833C6.16014 21.6156 6.18012 21.5479 6.20256 21.4812C6.23873 21.3736 6.28135 21.2682 6.32388 21.1629L6.3382 21.1275C6.37241 21.0426 6.40713 20.9582 6.44476 20.8748C6.47572 20.8062 6.50995 20.7387 6.54598 20.6727C6.58898 20.5939 6.63647 20.5178 6.68397 20.4417C6.70777 20.4036 6.73157 20.3655 6.75481 20.3271L6.79637 20.2518ZM9.04537 15.2997L9.05676 15.2153L9.10893 15.2702L9.11754 15.292L9.13961 15.3326L9.16616 15.4204L9.21899 15.6701C9.24792 15.8057 9.2805 15.9406 9.31709 16.0743C9.34504 16.1765 9.37716 16.2771 9.41068 16.3775C9.43337 16.4455 9.45707 16.5132 9.4839 16.5796C9.51928 16.6672 9.55968 16.7528 9.60002 16.8382C9.60704 16.8531 9.61405 16.868 9.62104 16.8828C9.62636 16.8941 9.63165 16.9055 9.63694 16.9168L9.63697 16.9169C9.6634 16.9734 9.68989 17.0301 9.71973 17.085C9.79669 17.2266 9.88006 17.3647 9.98295 17.4892C10.0264 17.5418 10.0728 17.5916 10.1199 17.6408L10.2696 17.7922L10.2745 17.7971C10.339 17.8611 10.4035 17.9251 10.4716 17.9852C10.5204 18.0282 10.571 18.0689 10.6232 18.1077C10.7355 18.1911 10.855 18.2643 10.9769 18.3325C11.0224 18.3579 11.069 18.3812 11.1156 18.4045L11.1285 18.411C11.2117 18.4525 11.2957 18.4922 11.3812 18.5288L11.5328 18.5906C11.5426 18.5944 11.5524 18.5982 11.5621 18.602C11.6026 18.6179 11.6432 18.6338 11.6844 18.6474C11.7837 18.6804 11.8844 18.7104 11.9876 18.729C12.0544 18.7411 12.1218 18.7484 12.1897 18.7505C12.2295 18.7518 12.2694 18.752 12.3093 18.7522C12.3705 18.7525 12.4318 18.7528 12.4929 18.757C12.554 18.7612 12.6145 18.7699 12.6751 18.7785C12.7153 18.7842 12.7556 18.79 12.7961 18.7944C12.863 18.8018 12.9309 18.8026 12.9982 18.8026C13.0655 18.8026 13.1334 18.8018 13.2003 18.7944C13.2408 18.79 13.281 18.7843 13.3213 18.7785C13.3818 18.7699 13.4424 18.7612 13.5035 18.757C13.5564 18.7534 13.6094 18.7527 13.6625 18.752C13.7274 18.7511 13.7924 18.7502 13.8572 18.7439C13.9044 18.7394 13.9511 18.7319 13.9978 18.7244H13.9979L14.0088 18.7227L14.1604 18.6979C14.3472 18.6664 14.5338 18.6307 14.7163 18.5793C14.8013 18.5553 14.8851 18.5276 14.9689 18.4996C15.0369 18.4769 15.1046 18.4532 15.171 18.4264C15.2356 18.4003 15.2988 18.3711 15.362 18.3418L15.3622 18.3417C15.3994 18.3245 15.4367 18.3072 15.4742 18.2906L15.7269 18.181L15.9795 18.0607L16.1814 17.9733L16.3252 17.9097L16.3758 17.8879L16.4004 17.8761L16.4849 17.8429L16.5515 17.9274L16.5689 17.952L16.6064 18.0026L16.7085 18.1464L16.8533 18.3482C16.9243 18.4481 16.995 18.5482 17.063 18.6502L17.1196 18.7444L17.1581 18.8197L17.1923 18.9041L17.0326 18.904L17.0217 18.904C16.9437 18.9034 16.8658 18.9029 16.788 18.8955L16.5859 18.868C16.5354 18.8617 16.4852 18.8578 16.4343 18.8555C16.3813 18.8532 16.3281 18.8534 16.275 18.8535L16.2433 18.8536L15.929 18.8536L15.7775 18.8533L15.6771 18.8506L15.6278 18.8461L15.5798 18.8375L15.4886 18.8028C15.4605 18.787 15.4341 18.7688 15.4077 18.7505C15.3918 18.7395 15.3758 18.7285 15.3595 18.718L15.3163 18.6949L15.2311 18.6819L15.1577 18.7174L15.1261 18.7549L15.07 18.8536L14.7665 18.8536L14.7496 18.8536C14.688 18.8537 14.6262 18.8538 14.5647 18.8581L14.4636 18.868L14.312 18.8897C14.2448 18.8984 14.1776 18.9017 14.1099 18.9033L13.9583 18.9041L8.04613 18.904L7.89454 18.9021C7.84377 18.8999 7.79335 18.8962 7.74294 18.8897L7.59135 18.868L7.49029 18.8581C7.421 18.8534 7.3514 18.8534 7.28193 18.8535C7.26715 18.8536 7.25239 18.8536 7.23763 18.8536L6.93444 18.8535L6.91739 18.8535C6.8557 18.8534 6.79388 18.8533 6.73232 18.849C6.65306 18.8436 6.57503 18.8309 6.49675 18.8182L6.47966 18.8155L6.227 18.7734L5.97435 18.7311L5.82275 18.7018L5.72169 18.6803L5.62063 18.6553L5.51976 18.623L5.42077 18.5786L5.32973 18.5174L5.25864 18.4385L5.22074 18.3461L5.22254 18.2472L5.26196 18.1483L5.29366 18.1009L5.37476 18.0142L5.46997 17.9417L5.5198 17.91L5.62063 17.8521C5.78344 17.7614 5.95353 17.6836 6.12594 17.613C6.17519 17.5928 6.2253 17.5747 6.27538 17.5565C6.29296 17.5502 6.31053 17.5438 6.32807 17.5374L6.47966 17.4822L6.58072 17.4485C6.59858 17.4429 6.61646 17.4374 6.63434 17.4319C6.68401 17.4166 6.73375 17.4013 6.78285 17.3842C6.85094 17.3606 6.91825 17.3343 6.98497 17.3071C7.05279 17.2794 7.12049 17.2515 7.1871 17.2209L7.33869 17.1477C7.42428 17.1048 7.50911 17.0606 7.59135 17.0115C7.67778 16.96 7.7616 16.9041 7.84401 16.8464C7.96645 16.7607 8.08634 16.6708 8.19769 16.5709C8.3329 16.4496 8.45623 16.3163 8.57071 16.1754C8.62401 16.1098 8.67711 16.0432 8.72476 15.9733C8.79123 15.8758 8.8538 15.7757 8.90664 15.6701C8.95416 15.5751 8.99365 15.4762 9.02592 15.375L9.04537 15.2997ZM11.6339 17.085L11.5949 17.0005L11.5784 16.9759L11.5479 16.9253L11.4801 16.831L11.3696 16.6807C11.3127 16.5989 11.2605 16.5138 11.2096 16.4281C11.1702 16.3616 11.1322 16.2947 11.0969 16.2259L11.051 16.1249C11.0233 16.059 10.9994 15.991 10.9784 15.9227C10.9577 15.8557 10.9386 15.7886 10.9213 15.7206L10.8992 15.6196C10.8893 15.5716 10.8831 15.5231 10.8769 15.4746C10.8744 15.4555 10.872 15.4364 10.8693 15.4174C10.8656 15.3908 10.8615 15.3642 10.8575 15.3377C10.8463 15.2634 10.835 15.1892 10.8299 15.1142C10.8265 15.0646 10.826 15.0149 10.8256 14.9652L10.8256 14.9626L10.8253 14.8111L10.8254 14.5584L10.8254 14.5414C10.8255 14.4797 10.8256 14.4179 10.8299 14.3563C10.8344 14.2902 10.8442 14.2249 10.8539 14.1596L10.854 14.1595C10.8567 14.1409 10.8595 14.1223 10.8622 14.1036L10.8903 13.9015L10.9096 13.8004C10.9319 13.6977 10.9627 13.5973 10.9943 13.4972C11.0158 13.4295 11.0383 13.3619 11.0626 13.2951C11.0875 13.2268 11.1136 13.1588 11.1443 13.093C11.2008 12.972 11.263 12.8539 11.3314 12.7393C11.3726 12.6704 11.4146 12.6017 11.4625 12.5372C11.5013 12.4849 11.543 12.4348 11.5886 12.3883L11.6851 12.2986L11.7351 12.26L11.7855 12.227L11.8865 12.18L11.9876 12.1591C12.0728 12.1508 12.1591 12.1705 12.2402 12.1948C12.3606 12.2308 12.4732 12.2873 12.5853 12.3435L12.5854 12.3435C12.6051 12.3534 12.6248 12.3633 12.6445 12.373C12.6578 12.3796 12.6712 12.3863 12.6845 12.3929L12.6846 12.393C12.7382 12.4197 12.792 12.4465 12.8466 12.471C12.9466 12.516 13.0481 12.557 13.1498 12.5978L13.4024 12.6981C13.4527 12.7171 13.503 12.7356 13.554 12.7522C13.6033 12.768 13.6532 12.7821 13.703 12.7961C13.7208 12.801 13.7385 12.806 13.7562 12.8111L14.0594 12.8979C14.0802 12.9038 14.101 12.9098 14.1219 12.9158C14.1851 12.9339 14.2483 12.952 14.312 12.9679L14.5647 13.0248C14.5853 13.0294 14.6058 13.0342 14.6264 13.0391C14.673 13.05 14.7197 13.0609 14.7668 13.0697C14.816 13.079 14.8656 13.0856 14.9152 13.0922C14.924 13.0934 14.9328 13.0946 14.9416 13.0958C14.9507 13.097 14.9598 13.0983 14.9689 13.0996L15.2216 13.1357L15.3732 13.1514C15.4092 13.1557 15.4452 13.161 15.4811 13.1664C15.5292 13.1736 15.5773 13.1808 15.6256 13.1855C15.7125 13.1939 15.7998 13.194 15.887 13.194L15.9137 13.194L15.929 13.1941V12.6887L15.9292 12.5371L15.9292 12.5347C15.9297 12.485 15.9301 12.4352 15.9336 12.3856C15.9377 12.3244 15.9464 12.2638 15.955 12.2032L15.955 12.2031L15.9551 12.2027C15.9608 12.1627 15.9665 12.1226 15.971 12.0824C15.9778 12.0206 15.9785 11.9582 15.9792 11.8961L15.9793 11.8802L15.9795 10.718C15.9795 10.7038 15.9796 10.6895 15.9796 10.6752C15.9797 10.6221 15.9799 10.5689 15.9776 10.5159C15.9753 10.4651 15.9717 10.4147 15.9651 10.3643L15.9434 10.2127L15.9336 10.1116C15.9301 10.062 15.9297 10.0122 15.9292 9.96253L15.9292 9.96005L15.929 9.80846V9.50527L15.9288 9.35367L15.9286 9.33787C15.9279 9.27575 15.9272 9.21336 15.9204 9.15155C15.916 9.11094 15.9102 9.07052 15.9045 9.03011C15.8959 8.96971 15.8873 8.90933 15.883 8.84836L15.8779 8.69677C15.8765 8.64611 15.8747 8.59565 15.8699 8.54517C15.8655 8.49933 15.8585 8.45385 15.8514 8.40836C15.8481 8.3866 15.8447 8.36484 15.8416 8.34305C15.8377 8.31527 15.834 8.28745 15.8304 8.25964L15.8303 8.25957L15.8303 8.25947L15.8303 8.25919L15.8303 8.2591L15.8303 8.25901C15.8228 8.20272 15.8153 8.1464 15.806 8.09039C15.7946 8.02292 15.7811 7.95582 15.7675 7.88875L15.7674 7.88818L15.7673 7.88761C15.7639 7.87098 15.7605 7.85436 15.7572 7.83773L15.7497 7.79988C15.7252 7.67718 15.7008 7.55442 15.6685 7.43348C15.6458 7.34841 15.6195 7.26444 15.5919 7.18083C15.564 7.09596 15.5354 7.01103 15.5019 6.92817C15.467 6.84212 15.4265 6.75875 15.3855 6.67551C15.3437 6.59063 15.3006 6.50649 15.2563 6.42286L15.198 6.3218C15.1669 6.26971 15.1319 6.21965 15.0958 6.17094C15.0479 6.10637 14.9964 6.04416 14.9425 5.98453C14.8619 5.89538 14.7779 5.80979 14.6901 5.72774C14.5859 5.63034 14.4792 5.53435 14.3625 5.45188C14.2671 5.38446 14.1651 5.32649 14.0594 5.27698C13.9772 5.23852 13.8925 5.20687 13.8067 5.17775C13.7409 5.15541 13.6731 5.13695 13.6046 5.1255C13.5377 5.11433 13.4702 5.11124 13.4024 5.10978L13.2003 5.10904L13.0487 5.10924L13.0452 5.10929C12.9618 5.11063 12.8787 5.11195 12.7961 5.12546C12.7121 5.13919 12.6299 5.16366 12.5485 5.18794L12.5434 5.18945L12.4424 5.22052L12.3918 5.2376L12.2908 5.27768C12.2397 5.30056 12.1892 5.32458 12.1392 5.34961C12.0529 5.39276 11.9676 5.43795 11.8865 5.49045C11.8345 5.52414 11.784 5.56033 11.735 5.59821C11.6657 5.65173 11.5993 5.70872 11.5373 5.77051C11.446 5.86147 11.3654 5.96248 11.2851 6.06312L11.2803 6.06914C11.2012 6.16836 11.1225 6.26833 11.0497 6.37233C10.9927 6.45373 10.9392 6.53737 10.8923 6.62498C10.8397 6.7229 10.7964 6.82525 10.7548 6.92817C10.7211 7.01157 10.6893 7.09546 10.6609 7.18083C10.6407 7.24162 10.6248 7.30385 10.6089 7.3659L10.6045 7.38295L10.567 7.53455L10.5458 7.63561L10.533 7.73667C10.5283 7.78694 10.5323 7.83847 10.5393 7.88827C10.5466 7.93939 10.5594 7.99065 10.5749 8.03986C10.5911 8.09107 10.6087 8.14132 10.6279 8.19145L10.6728 8.29252L10.6985 8.34305L10.782 8.49464L10.9193 8.7473L11.0624 8.99995L11.1407 9.15155L11.214 9.30314C11.2521 9.38622 11.2867 9.47086 11.3204 9.5558C11.3857 9.72088 11.4452 9.8884 11.4874 10.0611C11.5078 10.1446 11.5225 10.229 11.5368 10.3138C11.539 10.3268 11.5412 10.3399 11.5435 10.3529C11.5585 10.4405 11.5736 10.5283 11.5786 10.617C11.5825 10.6844 11.581 10.7518 11.5747 10.8191C11.5702 10.8668 11.5629 10.9141 11.5555 10.9614C11.5524 10.9813 11.5494 11.0013 11.5465 11.0212L11.5171 11.2233L11.4944 11.3244C11.4768 11.3926 11.4544 11.4599 11.4315 11.5265C11.4083 11.5944 11.3845 11.6618 11.3583 11.7286L11.3149 11.8297C11.2846 11.8969 11.2515 11.9629 11.2184 12.0288C11.2094 12.0466 11.2005 12.0645 11.1916 12.0824L11.0903 12.2845C11.0559 12.3525 11.0213 12.4204 10.9834 12.4866C10.9237 12.5909 10.8578 12.6914 10.7889 12.7898L10.6789 12.9414L10.5999 13.0425L10.5154 13.1435C10.4998 13.162 10.4839 13.1803 10.4679 13.1985C10.4401 13.2302 10.4124 13.262 10.3864 13.2951L10.3094 13.3962L10.2434 13.4972L10.2149 13.5478L10.1674 13.6488C10.1346 13.7299 10.1148 13.8157 10.0987 13.9015C10.0892 13.9517 10.081 14.0022 10.076 14.0531C10.0695 14.1203 10.0683 14.1878 10.0721 14.2552C10.0755 14.3164 10.0844 14.3769 10.0933 14.4374C10.0993 14.4777 10.1052 14.5179 10.1095 14.5584L10.1217 14.71C10.1262 14.7608 10.1322 14.8112 10.1401 14.8616C10.1481 14.9123 10.1582 14.9629 10.1686 15.0132C10.1861 15.0978 10.205 15.1819 10.2255 15.2658C10.2462 15.3504 10.2677 15.4347 10.2911 15.5185C10.31 15.5865 10.3319 15.6536 10.3539 15.7206C10.3876 15.8229 10.4218 15.9257 10.4666 16.0238C10.5065 16.1113 10.5547 16.194 10.6038 16.2765C10.6449 16.3454 10.6886 16.413 10.7348 16.4786C10.7961 16.5653 10.8611 16.6502 10.9352 16.7265L11.0294 16.8157L11.1287 16.8935L11.2296 16.9595L11.3304 17.0134L11.4295 17.0522L11.5248 17.0743L11.5494 17.0792L11.6339 17.085ZM11.6548 13.4301L11.6844 13.3456L11.7688 13.3732L11.8441 13.4013L12.1392 13.5263C12.2228 13.5614 12.307 13.5953 12.3918 13.6274C12.5084 13.6714 12.6266 13.7113 12.7455 13.7486L12.9982 13.8259L13.1498 13.876C13.2669 13.9129 13.3846 13.9479 13.5035 13.9786C13.5536 13.9914 13.6044 14.002 13.6551 14.0123C13.7541 14.0324 13.8538 14.0486 13.9535 14.0647L13.9728 14.0679C14.052 14.0808 14.1309 14.0936 14.2109 14.0991C14.28 14.1038 14.3493 14.1037 14.4186 14.1036L14.4389 14.1036C14.4472 14.1036 14.4554 14.1036 14.4636 14.1036H15.2216C15.2366 14.1036 15.2516 14.1036 15.2666 14.1036C15.3358 14.1037 15.4052 14.1038 15.4742 14.0991L15.575 14.0892L15.7188 14.0675L15.7694 14.0615L15.794 14.058L15.8785 14.0531V15.2658C15.8785 15.2801 15.8785 15.2944 15.8785 15.3087C15.8787 15.3618 15.8788 15.415 15.8765 15.468C15.8743 15.5188 15.8703 15.5691 15.8641 15.6196L15.8365 15.8217C15.8301 15.8889 15.8286 15.9563 15.8282 16.0238C15.8278 16.0911 15.8277 16.1588 15.8325 16.2259C15.8405 16.3403 15.863 16.4525 15.8856 16.5647L15.8856 16.5648C15.8928 16.6007 15.9 16.6367 15.9068 16.6726L15.9197 16.7479L15.929 16.8323L15.8446 16.8593L15.6751 16.9167L15.6456 16.9266C15.5721 16.9513 15.4985 16.9761 15.4237 16.9968C15.2744 17.0381 15.1216 17.0638 14.9689 17.089C14.962 17.0902 14.955 17.0913 14.9481 17.0925C14.9384 17.0941 14.9288 17.0958 14.9191 17.0974L14.9189 17.0974C14.8516 17.1089 14.7842 17.1203 14.7163 17.1269C14.6323 17.135 14.5479 17.1354 14.4636 17.1354L14.312 17.1335L14.2109 17.1267C14.1428 17.1207 14.0752 17.106 14.0088 17.0901C13.9236 17.0697 13.8392 17.0445 13.7562 17.0164C13.67 16.9873 13.5848 16.9552 13.5035 16.9143C13.3965 16.8605 13.2969 16.7937 13.2003 16.7232C13.1311 16.6727 13.0633 16.6202 12.9982 16.5645C12.9284 16.5048 12.8617 16.4417 12.7968 16.3768C12.7163 16.2963 12.6391 16.2129 12.5669 16.1249C12.5002 16.0436 12.4381 15.9583 12.3777 15.8722C12.3201 15.7898 12.2641 15.706 12.2126 15.6196C12.1636 15.5373 12.1193 15.4525 12.0765 15.3669L12.0032 15.2153C11.9726 15.1487 11.9445 15.0811 11.917 15.0132C11.8834 14.9298 11.8515 14.8459 11.8231 14.7605C11.8029 14.6995 11.7869 14.6371 11.771 14.5749L11.7668 14.5584L11.7642 14.5484C11.7392 14.4516 11.7141 14.3542 11.6995 14.2552C11.6921 14.2052 11.6884 14.1549 11.6847 14.1046C11.6822 14.0705 11.6796 14.0365 11.676 14.0026C11.6718 13.9637 11.6661 13.9251 11.6603 13.8865C11.6535 13.8411 11.6466 13.7956 11.6425 13.7499C11.6379 13.6998 11.6363 13.6499 11.6363 13.5996L11.642 13.5053L11.6548 13.4301ZM17.4955 17.3376L17.5325 17.4221L17.5741 17.4973C17.609 17.5555 17.646 17.6121 17.6831 17.6688L17.6832 17.6688C17.6991 17.6931 17.715 17.7174 17.7308 17.7419C17.7938 17.8396 17.8566 17.9375 17.902 18.0451C17.9493 18.157 17.9785 18.2769 17.992 18.3975C17.9999 18.4683 18.0002 18.5394 18.0006 18.6105C18.0006 18.6242 18.0007 18.6378 18.0008 18.6514L18.0852 18.6184L18.1099 18.6012L18.1605 18.5701L18.2547 18.4923C18.3233 18.4293 18.3897 18.3642 18.4548 18.2977C18.5341 18.2168 18.6121 18.1347 18.6815 18.0451C18.7555 17.9495 18.8182 17.8457 18.8798 17.7419C18.9286 17.6596 18.9774 17.5768 19.0163 17.4892L19.0565 17.3881L19.0726 17.3376L19.0951 17.2366L19.1023 17.1357L19.0898 17.0367L19.0529 16.9449L19.0245 16.9048L18.9494 16.8416L18.8576 16.8057L18.8085 16.7979L18.7586 16.796L18.7082 16.7992L18.6072 16.8163L18.5061 16.8435C18.4025 16.8755 18.3043 16.9214 18.2063 16.9671C18.1883 16.9755 18.1704 16.9839 18.1524 16.9922L18.1253 17.0047C18.0326 17.0474 17.94 17.0901 17.8493 17.1369C17.7839 17.1705 17.7193 17.2058 17.6552 17.2419L17.6046 17.2715L17.5799 17.2852L17.4955 17.3376ZM8.4179 24.4286L8.39985 24.5131L8.29075 24.5079L8.24014 24.5025L8.14594 24.4822C8.07759 24.4621 8.01112 24.4379 7.94507 24.4112C7.89394 24.3906 7.84358 24.3683 7.79347 24.3453L7.69241 24.2946C7.64058 24.2678 7.59037 24.2373 7.54082 24.2065C7.45397 24.1527 7.36853 24.0954 7.28816 24.0321C7.19913 23.9621 7.11629 23.885 7.03624 23.8049C6.98718 23.7559 6.93983 23.7054 6.89323 23.654L6.80901 23.553C6.77409 23.5098 6.74271 23.4638 6.71143 23.418L6.70011 23.4014C6.65599 23.3368 6.61529 23.2692 6.58033 23.1992C6.50869 23.0559 6.46365 22.9006 6.42987 22.7445C6.41181 22.6611 6.39571 22.5768 6.38721 22.4918C6.37842 22.404 6.3785 22.3155 6.37859 22.2272L6.3786 22.2102L6.3786 22.1886C6.37857 22.1705 6.37849 22.1523 6.3784 22.1341C6.37784 22.0173 6.37728 21.9 6.39376 21.7844C6.40226 21.7247 6.41581 21.6661 6.42935 21.6075L6.43517 21.5822L6.46905 21.4307C6.47335 21.4107 6.47759 21.3908 6.48183 21.3709C6.50645 21.255 6.53107 21.1391 6.56805 21.0264C6.62007 20.8678 6.69421 20.717 6.77587 20.5717L6.83416 20.4715L6.89623 20.377C6.92699 20.3361 6.96022 20.2973 7.00412 20.2698C7.08198 20.2212 7.17606 20.2198 7.26533 20.2185L7.27801 20.2183L7.2882 20.2182L7.43975 20.2179H7.74294L7.94507 20.2177C8.01257 20.2171 8.07994 20.2157 8.14719 20.2093L8.34932 20.1818L8.45038 20.1719L8.55144 20.1681L8.6525 20.1674L8.85463 20.1674C8.86938 20.1674 8.88415 20.1674 8.89892 20.1674C8.9684 20.1673 9.03799 20.1672 9.10729 20.1719C9.16659 20.176 9.22535 20.1843 9.28411 20.1926C9.34288 20.201 9.40169 20.2093 9.461 20.2134C9.53027 20.2181 9.59982 20.218 9.66927 20.2179C9.68406 20.2179 9.69888 20.2179 9.71366 20.2179L13.2003 20.2179L13.3519 20.2159L13.453 20.2093L13.5035 20.2035L13.6551 20.1818L13.7056 20.176L13.8067 20.1693L13.9583 20.1674H14.9689L15.0698 20.1683L15.169 20.1749L15.2628 20.1978L15.3464 20.2484L15.3838 20.2845L15.4184 20.3264L15.4803 20.421L15.5344 20.5211L15.559 20.5716L15.6029 20.6727C15.6298 20.7389 15.6533 20.8067 15.6749 20.8748C15.7171 21.0075 15.7496 21.1427 15.7772 21.2791C15.8009 21.3957 15.824 21.5133 15.824 21.6328C15.824 21.7348 15.8082 21.8365 15.7866 21.936C15.7754 21.987 15.7637 22.0382 15.7464 22.0876C15.7214 22.1589 15.6876 22.2263 15.6434 22.2877C15.5691 22.3909 15.4709 22.4725 15.373 22.552C15.2596 22.6442 15.1417 22.7304 15.0194 22.8104C14.9174 22.8772 14.8127 22.9398 14.708 23.0024L14.7078 23.0025C14.643 23.0412 14.5782 23.0799 14.5141 23.1196L14.2615 23.2776L14.0594 23.3938L13.7562 23.5672C13.7227 23.5862 13.6893 23.6055 13.6559 23.6248C13.5886 23.6636 13.5213 23.7025 13.453 23.7395L13.3014 23.818L13.1498 23.8937C13.0831 23.9259 13.016 23.9574 12.9477 23.9862L12.6445 24.1088C12.6139 24.1211 12.5833 24.1334 12.5527 24.1458L12.5526 24.1458L12.5524 24.1459L12.5523 24.1459C12.4655 24.181 12.3785 24.2161 12.2908 24.2489C12.2179 24.2761 12.1443 24.3006 12.0706 24.3251L11.8865 24.3865C11.7525 24.4288 11.6174 24.4677 11.4823 24.506L11.3307 24.5487L11.316 24.5528C11.2706 24.5656 11.2251 24.5783 11.1791 24.5889C11.1152 24.6035 11.0507 24.6142 10.9861 24.625L10.9769 24.6265L10.8253 24.6503L10.7243 24.6609L10.5727 24.673L10.32 24.7066C10.2216 24.716 10.1226 24.7156 10.0238 24.7153C10.0046 24.7152 9.98545 24.7152 9.96632 24.7152L9.76419 24.715L9.76166 24.715C9.71197 24.7145 9.66219 24.7141 9.6126 24.7106L9.51154 24.7008C9.48912 24.6977 9.46674 24.6944 9.44436 24.6911L9.44424 24.6911L9.44386 24.691C9.39916 24.6844 9.35439 24.6777 9.30941 24.6732L9.05675 24.6561L8.81221 24.6227L8.73696 24.6162L8.6525 24.6141L8.65703 24.505L8.66128 24.4544L8.67593 24.3602L8.69738 24.2603L8.73485 24.1088L8.73516 24.1076C8.75248 24.0403 8.76982 23.9728 8.79142 23.9067C8.80822 23.8552 8.82737 23.8049 8.84835 23.7551L8.89412 23.654L8.91826 23.6035L9.02104 23.4016L9.09621 23.2579L9.11816 23.2073L9.13052 23.1826L9.15782 23.0982L9.08338 23.1531L9.06467 23.1748L9.02431 23.2155C8.97545 23.2745 8.93173 23.3375 8.88987 23.4016C8.81578 23.5151 8.75145 23.634 8.69087 23.7551L8.61757 23.9067C8.58704 23.9733 8.5589 24.0409 8.53144 24.1088L8.47264 24.2591L8.43981 24.3534L8.4179 24.4286ZM16.2322 20.7737L16.233 20.8582C16.2342 20.8982 16.2362 20.9384 16.2408 20.9781L16.2536 21.0772C16.2552 21.0877 16.2568 21.0983 16.2584 21.1089L16.2584 21.1095C16.2644 21.1491 16.2704 21.1886 16.2741 21.2285C16.2818 21.3086 16.2822 21.3887 16.2826 21.469L16.2827 21.4812L16.282 21.6328L16.2818 21.6407C16.2807 21.6886 16.2795 21.7367 16.2741 21.7844C16.264 21.8756 16.2486 21.9662 16.2333 22.0566L16.2333 22.0567L16.2281 22.0876C16.2081 22.2061 16.1873 22.3248 16.1575 22.4413C16.1312 22.5438 16.098 22.6446 16.0632 22.7445L16.0573 22.7613C16.0416 22.8066 16.0257 22.852 16.0071 22.8961L15.9632 22.9971C15.9384 23.0485 15.9129 23.0992 15.8846 23.1487C15.8346 23.2363 15.7783 23.32 15.7189 23.4014C15.6558 23.4876 15.59 23.5724 15.516 23.6495C15.441 23.7276 15.3577 23.7959 15.2741 23.8644L15.2721 23.866C15.2058 23.9203 15.1381 23.9732 15.07 24.0252C14.9548 24.1131 14.8365 24.1964 14.7163 24.277C14.6329 24.333 14.5489 24.388 14.4636 24.4411C14.3802 24.493 14.2957 24.5431 14.2109 24.5927L14.0594 24.6789C14.0262 24.6977 13.9932 24.7168 13.9602 24.7358L13.96 24.736C13.8924 24.775 13.8248 24.8141 13.7562 24.8512C13.6635 24.9013 13.569 24.9482 13.4746 24.995L13.4745 24.995C13.4505 25.007 13.4264 25.0189 13.4024 25.0309C13.3886 25.0378 13.3748 25.0447 13.361 25.0516L13.3601 25.052C13.2904 25.0869 13.2206 25.1218 13.1498 25.1544L12.8971 25.264L12.695 25.3566C12.6116 25.3937 12.5278 25.4294 12.4424 25.4616C12.3725 25.488 12.3018 25.5114 12.231 25.5349L12.2307 25.535L12.0381 25.5992L11.836 25.6604C11.752 25.685 11.668 25.7094 11.5833 25.7317C11.4827 25.7581 11.3816 25.7826 11.2801 25.8055L11.1285 25.8375L10.9769 25.8713L10.9576 25.8758C10.897 25.8898 10.8364 25.9037 10.7748 25.9128C10.722 25.9206 10.6689 25.9245 10.6157 25.9285C10.6014 25.9295 10.587 25.9306 10.5727 25.9317L10.4716 25.9423L10.3706 25.957C10.32 25.9639 10.2699 25.9705 10.219 25.9739C10.1694 25.9774 10.1196 25.9778 10.0699 25.9782L10.0674 25.9783L9.86526 25.9785L9.66313 25.9783L9.6606 25.9782C9.61091 25.9778 9.56113 25.9774 9.51154 25.9739L9.41048 25.9641C9.38805 25.961 9.36565 25.9577 9.34326 25.9543C9.2984 25.9477 9.25348 25.941 9.20835 25.9365L8.95694 25.9195C8.8862 25.912 8.81636 25.8988 8.74653 25.8856C8.73704 25.8838 8.72756 25.882 8.71807 25.8802L8.70304 25.8774L8.72456 25.9618L8.75232 26.0371L8.79529 26.1313L8.84859 26.2312L8.8783 26.2817C8.91131 26.3336 8.94488 26.3845 8.98244 26.4333C9.05158 26.523 9.12965 26.6052 9.20909 26.6857C9.28989 26.7677 9.37253 26.8484 9.46101 26.9221C9.52554 26.9759 9.5935 27.0251 9.66313 27.072C9.72897 27.1163 9.79633 27.1583 9.86526 27.1976C9.9313 27.2353 9.99881 27.2704 10.0674 27.3031C10.1335 27.3347 10.2005 27.364 10.2695 27.3888C10.3522 27.4185 10.4371 27.4407 10.5222 27.4626C10.6058 27.4841 10.6899 27.5057 10.7748 27.5217C10.8331 27.5327 10.8918 27.5404 10.9505 27.5482L10.9506 27.5482C10.9763 27.5516 11.0019 27.555 11.0275 27.5586C11.0487 27.5617 11.0699 27.5649 11.0912 27.5681C11.1372 27.5752 11.1833 27.5822 11.2296 27.5871L11.4317 27.6039C11.4732 27.6083 11.5144 27.6142 11.5555 27.6202L11.5559 27.6202C11.6154 27.6288 11.6749 27.6374 11.7349 27.6415C11.7965 27.6457 11.8583 27.6458 11.92 27.6459L11.937 27.646H12.3918L12.4067 27.6459C12.4861 27.6454 12.5654 27.645 12.6445 27.6374C12.6931 27.6328 12.7414 27.6256 12.7898 27.6183C12.8255 27.613 12.8613 27.6076 12.8971 27.6033L13.0487 27.5876C13.1164 27.5791 13.1836 27.5685 13.2509 27.5573L13.2603 27.5557C13.3248 27.545 13.3892 27.5343 13.453 27.5197C13.5074 27.5072 13.561 27.4919 13.6146 27.4766L13.6147 27.4766C13.6282 27.4728 13.6416 27.4689 13.6551 27.4652L13.8572 27.4081C13.9586 27.3788 14.0598 27.3491 14.1604 27.3173L14.312 27.2667L14.5141 27.1982C14.6001 27.1672 14.685 27.1331 14.7699 27.0991L14.8173 27.0801C14.8301 27.0749 14.8429 27.0699 14.8557 27.0648L14.9132 27.0419C15.0163 27.0009 15.1193 26.9599 15.2216 26.917C15.2899 26.8882 15.357 26.8567 15.4237 26.8245L15.5753 26.7488L15.7269 26.6703C15.7856 26.6385 15.8435 26.6051 15.9013 26.5717L15.9363 26.5515C15.9507 26.5432 15.9651 26.535 15.9795 26.5267L16.1817 26.4118L16.3333 26.322L16.6365 26.1402L16.9396 25.957L17.0912 25.8613L17.3439 25.6998L17.445 25.6306L17.5965 25.5229C17.6076 25.5147 17.6187 25.5066 17.6298 25.4984L17.6303 25.4981C17.6703 25.4687 17.7104 25.4392 17.7474 25.4062L17.8437 25.3169L17.8884 25.269L17.9291 25.2197L17.9962 25.1194L18.0438 25.0184L18.0612 24.9678L18.0749 24.9173L18.0925 24.8162C18.0989 24.766 18.1 24.7152 18.1011 24.6647L18.1018 24.5131L18.1018 24.4916C18.1016 24.4313 18.1015 24.371 18.0973 24.3109C18.0937 24.26 18.0875 24.2096 18.0784 24.1593C18.063 24.0739 18.0398 23.9897 18.0149 23.9067C17.9893 23.8213 17.9608 23.7367 17.9274 23.654C17.8926 23.5679 17.8519 23.4846 17.8109 23.4014C17.7856 23.3504 17.7598 23.2997 17.7324 23.2498C17.6947 23.1811 17.654 23.1142 17.6125 23.0477L17.5184 22.8961C17.4704 22.8144 17.4254 22.7307 17.3884 22.6434C17.3471 22.5463 17.314 22.4456 17.3035 22.3402C17.2984 22.2897 17.2988 22.2392 17.3027 22.1886C17.3072 22.1295 17.3172 22.0707 17.3272 22.0121L17.3274 22.0108C17.3288 22.0027 17.3301 21.9946 17.3315 21.9865L17.3593 21.835L17.3721 21.7848L17.3889 21.7358L17.4378 21.6477L17.4709 21.6144L17.5094 21.5927L17.552 21.5851L17.5973 21.5927L17.6891 21.6477L17.733 21.689L17.8154 21.7828C17.8322 21.8028 17.8487 21.8229 17.8653 21.8431C17.8978 21.8828 17.9304 21.9225 17.9651 21.9605C18.0267 22.0279 18.0933 22.0896 18.1617 22.1498C18.2232 22.2039 18.2882 22.2546 18.3547 22.3024C18.404 22.3377 18.4546 22.3706 18.5061 22.4026L18.5566 22.4317L18.6577 22.4804L18.7588 22.5141L18.8093 22.525L18.8598 22.5321L18.9609 22.5356C19.0122 22.5356 19.0627 22.5249 19.1125 22.5141L19.163 22.4992L19.2135 22.4803L19.3137 22.4298L19.409 22.3626L19.4521 22.323L19.4908 22.2802L19.5511 22.1866L19.5725 22.1373L19.5984 22.037L19.6037 21.936L19.5911 21.8349C19.5761 21.7667 19.5573 21.6997 19.5374 21.6328C19.5119 21.5471 19.4854 21.4617 19.4484 21.3801C19.3911 21.2535 19.3147 21.1362 19.2297 21.0265C19.1626 20.9398 19.0903 20.8572 19.0095 20.7831C18.8901 20.6737 18.7541 20.5838 18.6072 20.5161C18.5577 20.4933 18.5069 20.4736 18.4556 20.4554C18.3892 20.4318 18.3217 20.4112 18.2535 20.3937C18.1701 20.3722 18.0853 20.3556 18.0008 20.3392C17.9894 20.337 17.9781 20.3347 17.9667 20.3324L17.9666 20.3324C17.9277 20.3245 17.8885 20.3166 17.8492 20.312C17.7989 20.3061 17.7476 20.3019 17.6976 20.3135L17.5965 20.353L17.546 20.3848L17.445 20.4598L17.3439 20.5305L17.2934 20.5603L17.1923 20.6098L17.1418 20.6315L17.0407 20.6724L16.9396 20.7109L16.8386 20.7429L16.7375 20.7631C16.6664 20.7734 16.5941 20.7735 16.5223 20.7736L16.5058 20.7736C16.4992 20.7736 16.4927 20.7737 16.4861 20.7737L16.2322 20.7737ZM18.5566 23.9079V23.654L18.6411 23.659L18.7163 23.6684C18.7235 23.6694 18.7306 23.6705 18.7378 23.6715C18.7464 23.6728 18.7551 23.6742 18.7638 23.6755L18.7641 23.6756C18.796 23.6805 18.8279 23.6855 18.8601 23.6881C18.9109 23.6922 18.9608 23.6926 19.0114 23.686C19.1162 23.6722 19.2142 23.6314 19.3113 23.591L19.3317 23.5825C19.3424 23.5781 19.3531 23.5737 19.3639 23.5693L19.4581 23.5345L19.5334 23.514L19.6178 23.5024L19.6128 23.5869L19.6094 23.6115L19.6033 23.6621C19.6007 23.68 19.598 23.6978 19.5953 23.7156L19.5953 23.7156C19.5881 23.7624 19.581 23.8091 19.5761 23.8563C19.5691 23.9232 19.5698 23.9913 19.5762 24.0583C19.5811 24.1093 19.5903 24.1598 19.6011 24.2099C19.612 24.2608 19.6251 24.3115 19.64 24.3615C19.6553 24.4128 19.673 24.463 19.6918 24.5131L19.7354 24.6141L19.7877 24.7151L19.8184 24.7655L19.8902 24.8646L19.9317 24.912L19.9768 24.9571L20.0733 25.0367C20.151 25.0936 20.2375 25.1374 20.3252 25.1762C20.4211 25.2185 20.5205 25.2515 20.6203 25.2829L20.6709 25.2964L20.6956 25.3037L20.78 25.3216C20.78 25.3385 20.78 25.3555 20.78 25.3726C20.7802 25.4568 20.7804 25.5413 20.7712 25.625C20.7619 25.7105 20.7439 25.7945 20.7214 25.8774C20.669 26.0709 20.5899 26.2622 20.4501 26.4096C20.3835 26.4798 20.3056 26.5378 20.2234 26.5884C20.1747 26.6184 20.1239 26.6442 20.0726 26.6694L19.9715 26.7128L19.8705 26.7479L19.8199 26.7622C19.7696 26.7749 19.7192 26.7865 19.6683 26.7967C19.6015 26.8101 19.5341 26.8223 19.4662 26.8289C19.3991 26.8353 19.3313 26.8372 19.2641 26.8326C19.2129 26.8291 19.1626 26.822 19.1125 26.8115C19.0736 26.8033 19.0353 26.7926 18.9971 26.7819C18.985 26.7786 18.973 26.7752 18.9609 26.7719L18.8598 26.742L18.7588 26.7083L18.7082 26.6882L18.6577 26.6655L18.5566 26.611L18.4558 26.545L18.406 26.5076L18.3117 26.4239L18.2356 26.3302L18.1936 26.2309L18.1919 26.1301L18.2036 26.0795L18.2203 26.029L18.2612 25.9279L18.3034 25.8269L18.3071 25.8176C18.353 25.7042 18.3988 25.5907 18.4334 25.4732C18.453 25.4066 18.4696 25.339 18.4834 25.271L18.5101 25.1194C18.5243 25.0354 18.5384 24.9515 18.5481 24.8668C18.5529 24.8243 18.5549 24.7815 18.5568 24.7387C18.558 24.714 18.5591 24.6893 18.5608 24.6647C18.5627 24.6363 18.5653 24.608 18.568 24.5797L18.568 24.5794C18.5732 24.5237 18.5783 24.4679 18.5783 24.412C18.5783 24.3599 18.5735 24.3081 18.5687 24.2562C18.5672 24.2408 18.5658 24.2253 18.5645 24.2099L18.5586 24.1088C18.5565 24.0543 18.5565 23.9997 18.5566 23.9451C18.5566 23.9327 18.5566 23.9203 18.5566 23.9079ZM21.4369 24.1593H22.4475C22.4618 24.1593 22.4761 24.1594 22.4904 24.1594C22.5435 24.1595 22.5967 24.1597 22.6497 24.1574C22.7005 24.1551 22.7508 24.1515 22.8013 24.1449L22.9529 24.1232L23.0539 24.1134C23.1149 24.1092 23.1761 24.1088 23.2372 24.1083C23.3109 24.1078 23.3847 24.1073 23.4582 24.1002C23.5163 24.0946 23.574 24.085 23.6316 24.0755C23.6412 24.0739 23.6507 24.0723 23.6603 24.0707L23.913 24.0287L24.1656 23.9863L24.4183 23.937L24.6204 23.896L24.9236 23.827L25.1257 23.7854L25.4289 23.7248L25.631 23.6831L25.9342 23.6142L26.2373 23.5529L26.2426 23.5518L26.243 23.5517C26.3061 23.5385 26.3691 23.5254 26.4314 23.509L26.482 23.4928L26.5067 23.4864L26.5911 23.4519V23.3508L26.5067 23.3073L26.482 23.2928L26.4314 23.2644L26.2877 23.1777L26.0858 23.0502C25.9855 22.9874 25.8841 22.9266 25.7826 22.8657L25.53 22.7154L25.3278 22.6005L25.1257 22.4842L24.9741 22.3983L24.7215 22.2548L24.4688 22.1231L24.2667 22.0169L24.0645 21.9211L23.913 21.8504C23.8294 21.8131 23.7452 21.7781 23.6603 21.7442C23.5934 21.7174 23.5261 21.6916 23.4582 21.6679C23.2928 21.6102 23.1231 21.5663 22.9529 21.5259C22.869 21.5059 22.7847 21.4881 22.7002 21.4713C22.6333 21.4581 22.566 21.446 22.4981 21.4393C22.4312 21.4326 22.3632 21.4299 22.296 21.4316L22.2926 21.4317C22.243 21.4329 22.1937 21.4342 22.1444 21.4394C22.0933 21.4449 22.0427 21.4535 21.9928 21.4651C21.9059 21.4851 21.8193 21.5125 21.7401 21.5541L21.6392 21.6152L21.5402 21.6941L21.493 21.7391L21.4484 21.7865L21.4083 21.8357L21.3449 21.936L21.3073 22.037L21.2971 22.0876L21.2915 22.1381L21.2906 22.2392L21.2941 22.2897L21.2998 22.3402C21.3023 22.3583 21.3049 22.3764 21.3075 22.3945L21.3075 22.3946L21.3075 22.3947C21.317 22.4606 21.3265 22.5264 21.3314 22.5929C21.3341 22.63 21.3354 22.6672 21.3366 22.7043C21.3383 22.7514 21.3399 22.7985 21.3444 22.8455L21.365 22.9971C21.372 23.0476 21.3784 23.0978 21.3818 23.1487C21.3859 23.2076 21.3861 23.2666 21.3864 23.3256C21.3866 23.3846 21.3869 23.4436 21.3909 23.5024C21.3944 23.5533 21.4008 23.6035 21.4078 23.654L21.4283 23.8055C21.4377 23.9031 21.4374 24.0012 21.437 24.0991C21.437 24.1192 21.4369 24.1393 21.4369 24.1593Z" fill="white"/>
<path d="M19.2532 28.2358L19.2135 28.1513L19.2078 28.2358L19.1938 28.311L19.1645 28.4052L19.1445 28.4546L19.1206 28.5044L19.0939 28.5535L19.0297 28.6473C18.9681 28.7231 18.8916 28.7837 18.8085 28.8343C18.7302 28.882 18.6463 28.9197 18.5566 28.9399C18.4907 28.9548 18.4234 28.9569 18.3561 28.959L18.3545 28.959H18.2535L18.2521 28.959C18.2019 28.9577 18.1515 28.9565 18.1019 28.949C18.0315 28.9385 17.9635 28.9182 17.8998 28.8862L17.7994 28.8258L17.7503 28.7883L17.7029 28.7469L17.6165 28.6545L17.5458 28.5554C17.5166 28.5118 17.4954 28.4634 17.4744 28.4156C17.4727 28.4117 17.4711 28.4078 17.4694 28.404L17.4505 28.3534L17.4343 28.3029L17.4112 28.2018L17.4011 28.1008V28.0503L17.4045 27.9997L17.4212 27.8987C17.431 27.8489 17.4491 27.8007 17.467 27.7534L17.4694 27.7471C17.4894 27.694 17.5173 27.6444 17.5458 27.5955C17.5771 27.5416 17.6175 27.4939 17.6579 27.4467L17.7029 27.4001L17.7503 27.3569L17.8494 27.2844L17.9503 27.2318L18.0008 27.2116L18.0513 27.1942L18.1524 27.1669L18.2029 27.1573L18.2535 27.1507L18.3545 27.1474L18.4556 27.1575L18.5061 27.1675L18.6072 27.1967C18.6958 27.2275 18.782 27.2693 18.8578 27.3251C18.9724 27.4093 19.0632 27.52 19.1284 27.646C19.1533 27.6941 19.1716 27.7445 19.19 27.7953L19.2044 27.84L19.2222 27.8906L19.2293 27.9153L19.2641 27.9997L19.2747 27.8906L19.284 27.84L19.3144 27.7458L19.3611 27.6461L19.4212 27.547L19.4929 27.4532L19.5334 27.41L19.6225 27.3329C19.7259 27.255 19.846 27.2046 19.9715 27.1753C20.0543 27.156 20.1391 27.1455 20.2242 27.152C20.2755 27.1559 20.3261 27.1663 20.3758 27.1793C20.4271 27.1928 20.4781 27.2098 20.5273 27.2299C20.6147 27.2656 20.6983 27.3098 20.7707 27.371C20.8455 27.4343 20.906 27.5117 20.9552 27.5962C21.0008 27.6746 21.0354 27.7599 21.0563 27.8481L21.0737 27.9492L21.0777 27.9997L21.0792 28.0503L21.0743 28.1513C21.0706 28.201 21.06 28.2501 21.0496 28.2986L21.0486 28.3029L21.0193 28.404L20.9751 28.505C20.9248 28.597 20.8556 28.677 20.7778 28.7469C20.7036 28.8135 20.6201 28.8712 20.5274 28.9088L20.4263 28.9399L20.3758 28.949L20.3252 28.9545L20.2242 28.959H20.1231L20.123 28.959C20.0724 28.9577 20.0216 28.9565 19.9715 28.949C19.9195 28.9413 19.8692 28.9284 19.8201 28.9095L19.7208 28.8628L19.6729 28.8343L19.6266 28.8027L19.5404 28.731L19.4631 28.6473L19.4283 28.6014L19.3675 28.5044C19.3424 28.4591 19.3229 28.4115 19.3032 28.3638L19.2999 28.3557L19.2829 28.311L19.2621 28.2604L19.2532 28.2358Z" fill="white"/>
<defs>
<linearGradient id="paint0_linear" x1="-18.1398" y1="17.7204" x2="17.8602" y2="54" gradientUnits="userSpaceOnUse">
<stop stop-color="#222222"/>
<stop offset="0.548948" stop-color="#5B5B5B"/>
<stop offset="1" stop-color="#3E3E3E"/>
</linearGradient>
</defs>
</svg>
