<?xml version="1.0" encoding="UTF-8"?>
<svg width="705px" height="705px" viewBox="0 0 705 705" version="1.1" xmlns="http://www.w3.org/2000/svg" xmlns:xlink="http://www.w3.org/1999/xlink">
    <!-- Generator: Sketch 62 (91390) - https://sketch.com -->
    <title>Logo</title>
    <desc>Created with Sketch.</desc>
    <defs>
        <linearGradient x1="0%" y1="-0.776630478%" x2="100%" y2="100%" id="linearGradient-1">
            <stop stop-color="#EF0000" offset="0%"></stop>
            <stop stop-color="#DB1200" offset="54.8947704%"></stop>
            <stop stop-color="#FF6D00" offset="100%"></stop>
        </linearGradient>
    </defs>
    <g id="Logo" stroke="none" stroke-width="1" fill="none" fill-rule="evenodd">
        <g>
            <circle id="Oval" fill="url(#linearGradient-1)" cx="352.163717" cy="352.163717" r="352.163717"></circle>
            <g id="Group" transform="translate(89.000000, 96.000000)" fill="#FFFFFF" fill-rule="nonzero">
                <path d="M270.099563,435.127457 L272.076817,435.325182 L273.065444,435.519942 L275.042699,436.092357 C276.776751,436.694431 278.463349,437.513014 279.94629,438.60347 C282.187508,440.251512 283.964071,442.416605 285.240389,444.881253 C285.726793,445.822426 286.085665,446.810065 286.446514,447.803635 L286.446514,447.803635 L286.727284,448.67857 L287.076269,449.668186 L287.214677,450.150636 L287.894853,451.802632 L288.103453,449.668186 L288.284372,448.67857 L288.878537,446.83478 L289.793017,444.884219 L290.968495,442.944532 L292.372345,441.110629 L293.163247,440.264364 L294.907185,438.755719 C296.929917,437.233233 299.280872,436.245594 301.735633,435.67219 C303.355993,435.294535 305.013921,435.089889 306.678769,435.217422 C307.683215,435.293546 308.67283,435.496215 309.644651,435.752269 C310.649096,436.016233 311.64761,436.347423 312.609544,436.740896 C314.31888,437.438867 315.955058,438.303916 317.370773,439.502132 C318.833941,440.739893 320.019305,442.255459 320.981239,443.908444 C321.872981,445.440816 322.550191,447.110607 322.959482,448.83675 L322.959482,448.83675 L323.298581,450.814005 L323.37866,451.802632 L323.40733,452.791259 L323.310445,454.768513 C323.237286,455.769004 323.019788,456.757631 322.809211,457.734395 L322.809211,457.734395 L322.235807,459.71165 L321.36977,461.687915 C320.386086,463.488205 319.031666,465.054191 317.510169,466.420474 C316.057876,467.724473 314.425652,468.853485 312.610533,469.589024 L312.610533,469.589024 L310.633278,470.19703 L309.644651,470.374983 L308.656024,470.482743 L306.678769,470.570731 L304.701515,470.570731 C303.711899,470.546015 302.71734,470.521299 301.735633,470.374983 C300.718336,470.223723 299.733663,469.972611 298.773706,469.602865 L298.773706,469.602865 L296.831054,468.688385 L295.892847,468.131787 L294.987264,467.512907 L293.300666,466.109056 L291.789055,464.471889 L291.106902,463.574216 L289.918572,461.676052 C289.400532,460.74081 289.002115,459.75416 288.595789,458.767511 L288.595789,458.767511 L288.26361,457.892575 L287.856296,456.90296 L287.681309,456.42051 L286.906225,454.768513 L286.793522,456.42051 L286.519672,457.892575 L285.947257,459.735377 L285.554772,460.701265 L285.087151,461.676052 L284.566145,462.637986 L283.3096,464.471889 C282.104463,465.95483 280.607681,467.141183 278.982378,468.131787 C277.450006,469.065051 275.807896,469.802567 274.054072,470.19703 C272.753038,470.489663 271.426301,470.529208 270.099563,470.570731 L270.099563,470.570731 L268.122308,470.570731 C267.132693,470.546015 266.137145,470.522288 265.156427,470.374983 C263.779269,470.169348 262.449566,469.772909 261.202907,469.146119 L261.202907,469.146119 L259.239493,467.963721 L258.278547,467.231148 L257.351215,466.420474 L255.659674,464.612275 L254.276585,462.673577 C253.659681,461.753165 253.224685,460.720049 252.78178,459.71165 L252.78178,459.71165 L252.412034,458.723022 L252.095673,457.734395 L251.644859,455.757141 L251.447133,453.779886 L251.447133,452.791259 L251.513371,451.802632 L251.839618,449.825377 C252.039321,448.80808 252.417965,447.825385 252.78178,446.859496 C253.173277,445.820449 253.719987,444.850605 254.276585,443.894603 C254.889533,442.838749 255.679447,441.905485 256.470348,440.982107 L256.470348,440.982107 L257.351215,440.070593 L258.278547,439.225317 L260.217245,437.806637 L262.190545,436.779453 L263.179172,436.383013 L264.1678,436.042926 L266.145054,435.509067 L267.133681,435.321228 L268.122308,435.192706 L270.099563,435.127457 Z M167.282334,0.00121290243 C168.929387,-0.00721697858 170.585337,0.00121290243 172.22547,0.168560938 C173.552207,0.301333572 174.874002,0.527926927 176.179979,0.798711918 C177.505728,1.07355028 178.832465,1.35016817 180.134487,1.72554992 C181.797358,2.20493525 183.442434,2.74027688 185.077623,3.30606823 L185.077623,3.30606823 L188.043505,4.37783898 L190.020759,5.17200321 L191.998014,6.05000303 C193.344524,6.66562119 194.65841,7.37130329 195.952523,8.08904664 L195.952523,8.08904664 L197.929777,9.217268 C198.941143,9.84069632 199.930759,10.478262 200.895659,11.1715863 C201.909002,11.8996113 202.898617,12.6705428 203.86154,13.4639162 C204.86302,14.2892221 205.871419,15.1087941 206.827422,15.9865962 C208.501168,17.5227251 210.129437,19.1030457 211.681581,20.7619622 C213.473963,22.6759444 215.134856,24.7054972 216.842215,26.6929345 C217.971228,28.0060291 219.134842,29.2918377 220.212446,30.6474433 C221.990986,32.8834214 223.68055,35.186824 225.259387,37.5678337 C226.325128,39.1741552 227.350334,40.8092457 228.257894,42.5109697 C229.448201,44.7423013 230.411124,47.0826785 231.341422,49.4313602 C232.370583,52.028385 233.32362,54.6514107 234.085851,57.3403778 C235.18817,61.2311201 235.904925,65.218748 236.565328,69.2039042 C236.783815,70.5198659 237.024051,71.8349378 237.193106,73.158413 L237.193106,73.158413 L237.400718,75.1356674 L237.638977,78.1015491 L238.181734,82.0560579 C238.303335,83.0437953 238.381436,84.0276771 238.424936,85.0219395 C238.497106,86.6670151 238.462504,88.3190112 238.463492,89.9650755 L238.463492,89.9650755 L238.463492,97.8740931 L238.464481,101.828602 C238.468436,103.147431 238.473379,104.466259 238.548514,105.783111 C238.641445,107.432141 238.887613,109.072273 238.887613,110.726247 C238.887613,112.050019 238.728444,113.363904 238.61673,114.680756 L238.61673,114.680756 L238.502049,116.65801 C238.398243,119.294679 238.546537,121.936291 238.295426,124.567028 L238.295426,124.567028 L237.756624,128.521536 C237.635023,129.509175 237.556921,130.492859 237.513422,131.487418 C237.456081,132.803281 237.475854,134.125075 237.474865,135.441927 L237.474865,135.441927 L237.474865,160.157607 L240.598927,159.781929 L242.442717,159.263888 C243.43431,158.9238 244.412062,158.558997 245.383883,158.165523 C247.066526,157.48337 248.724454,156.737945 250.327019,155.883772 C252.37842,154.789361 254.338868,153.52985 256.258782,152.219919 C258.2914,150.833864 260.270631,149.373661 262.190545,147.834369 C263.215752,147.01282 264.193504,146.131953 265.156427,145.239222 C266.506892,143.98762 267.813857,142.683621 269.106981,141.372701 C270.696694,139.761239 272.284429,138.151754 273.757484,136.430554 C275.374878,134.540299 276.857818,132.535363 278.284408,130.498791 C279.412431,128.88634 280.506841,127.246207 281.515241,125.555655 C282.47421,123.947158 283.341236,122.287253 284.178603,120.612519 C284.990266,118.989193 285.778202,117.353015 286.458377,115.669383 C287.366926,113.420256 288.113339,111.095005 288.729254,108.748992 C289.072308,107.442027 289.368896,106.128142 289.590348,104.794484 L289.590348,104.794484 L290.140025,100.839975 L290.578975,97.8740931 C290.701565,96.8864545 290.778678,95.9027705 290.822178,94.9082115 C290.879518,93.5923487 290.859746,92.2705541 290.860734,90.9537027 L290.860734,90.9537027 L290.860734,85.0219395 C290.8637,83.0436964 290.839973,81.0618944 291.028801,79.0901763 C291.155345,77.7642295 291.39657,76.4537052 291.581443,75.1356674 L291.581443,75.1356674 L292.117279,71.1811586 L292.421777,69.2039042 L292.709467,67.2266498 C292.886431,65.9055473 293.0456,64.5827641 293.292757,63.272141 C293.606152,61.6097644 294.030273,59.9671603 294.449451,58.329005 C295.132592,55.65724 295.878017,53.0006998 296.857747,50.4199874 C297.894817,47.6883115 299.176078,45.0493689 300.621451,42.5109697 C301.578442,40.8287217 302.626387,39.1994641 303.667411,37.5678337 C304.514664,36.2384267 305.338191,34.8811404 306.277387,33.6133249 C307.534921,31.9176315 308.868579,30.2842217 310.22893,28.6709798 C311.624871,27.0160179 313.029711,25.3769728 314.626343,23.9093557 L314.626343,23.9093557 L317.554657,21.5125279 L319.530923,20.1165863 L322.496805,18.1362672 C325.342074,16.2843707 328.271376,14.5340062 331.394449,13.1863096 L331.394449,13.1863096 L333.371704,12.4013396 C334.678669,11.9518108 335.999475,11.5559645 337.326213,11.1694113 C338.627246,10.790075 339.941132,10.4263591 341.280722,10.2073781 C342.919865,9.93936131 344.566918,9.91652402 346.223858,9.89002882 L346.223858,9.89002882 L349.189739,9.88627203 C351.824431,9.88627203 354.483838,9.80609437 357.098757,10.1829591 C358.771514,10.4239864 360.417578,10.8403961 362.041893,11.2983283 C364.052761,11.8651082 366.025072,12.5435042 367.973656,13.2968382 C368.976124,13.68438 369.957831,14.1280759 370.939538,14.5639616 C371.932119,15.0048894 372.931621,15.4436421 373.905419,15.9263888 L373.905419,15.9263888 L375.882674,16.9249023 L377.859928,18.0248489 C379.20545,18.8224733 380.540096,19.6351249 381.813448,20.5452551 C384.142654,22.2100044 386.279077,24.1201311 388.315649,26.1277363 C389.816385,27.6078101 391.255827,29.152639 392.727893,30.6618773 C394.318594,32.2931121 395.938954,33.8959734 397.463417,35.5905793 C398.615168,36.8704561 399.719464,38.1959086 400.78817,39.5450881 L400.78817,39.5450881 L403.091672,42.5109697 C404.053606,43.8030066 404.968086,45.1288546 405.866748,46.4654786 C406.952261,48.0807965 408.042717,49.7046167 408.986856,51.4086146 C409.872666,53.0062361 410.591397,54.679982 411.321004,56.3517506 C412.034793,57.9849627 412.762423,59.6153078 413.361531,61.2948866 C413.940866,62.9175204 414.385749,64.5817755 414.855347,66.2380226 C415.22707,67.5527979 415.627464,68.863421 415.946791,70.1925314 C416.340265,71.8306867 416.684307,73.4780362 416.985838,75.1356674 L416.985838,75.1356674 L417.484106,78.1015491 L418.114851,82.0560579 L418.546881,86.0105667 C418.784151,87.990787 419.157852,89.9512347 419.293294,91.9423299 C419.360916,92.9287821 419.378356,93.9180816 419.382128,94.9074522 L419.382271,108.748992 L419.3971,111.714874 L419.471247,113.692128 L419.683802,115.669383 L420.098037,117.641694 L420.799962,119.569517 L422.647706,122.081619 L424.382747,123.264017 L426.307604,124.004499 L428.279915,124.419722 C429.60171,124.625357 430.92647,124.78848 432.234424,125.072216 C433.233926,125.288725 434.215633,125.57345 435.200306,125.8473 L435.200306,125.8473 L437.17756,126.405874 C438.501332,126.785507 439.842899,127.135481 441.132069,127.621886 C442.134537,128.00053 443.127119,128.388072 444.097951,128.844818 C445.113271,129.323313 446.101898,129.852229 447.063832,130.429587 C448.085084,131.042536 449.058882,131.715791 450.029714,132.403875 L450.029714,132.403875 L452.006968,133.92735 L454.97285,136.51953 L457.934777,139.40039 C459.223947,140.68956 460.487412,141.999491 461.710344,143.350944 L461.710344,143.350944 L463.344545,145.328199 C464.081072,146.257508 464.731589,147.268874 465.324765,148.29408 C466.054372,149.555569 466.671276,150.893181 467.205134,152.248589 C467.71922,153.5516 468.204636,154.860542 468.607996,156.203098 C468.998504,157.506109 469.305967,158.827903 469.593658,160.157607 L469.593658,160.157607 L470.182879,163.123489 C470.359844,164.108161 470.522967,165.093823 470.62183,166.08937 C470.786931,167.732469 470.784953,169.383476 470.789897,171.032506 C470.796817,173.012726 470.803737,174.991958 470.607989,176.964269 C470.508138,177.965749 470.285697,178.963274 470.010858,179.930151 C469.725145,180.937562 469.36133,181.941019 468.932266,182.896033 C468.479475,183.902455 468.015809,184.897014 467.479973,185.861914 C466.914478,186.882177 466.290654,187.86685 465.629263,188.827796 C464.695998,190.185181 463.677712,191.471385 462.609006,192.723976 L462.609006,192.723976 L460.973817,194.44221 L459.575898,195.663164 L457.938732,196.736813 L458.912529,195.084817 L459.911043,193.612751 C461.444404,191.399215 463.0529,189.218304 464.347013,186.850541 L464.347013,186.850541 L465.754818,183.88466 L466.477505,181.907405 L467.068704,179.930151 L467.464155,177.952897 L467.56104,175.975642 L467.351451,173.998388 C467.163612,172.998886 466.938205,172.01619 466.68215,171.032506 C466.161144,169.030536 465.519525,167.058225 464.855167,165.100743 C464.172026,163.084932 463.46318,161.076042 462.509155,159.16898 C461.82898,157.80764 461.049941,156.484857 460.212574,155.214471 C459.091471,153.512055 457.935766,151.838309 456.627812,150.271335 C455.777592,149.25206 454.882885,148.259479 453.944678,147.320283 C452.989664,146.363292 452.03465,145.402346 451.017352,144.511593 L451.017352,144.511593 L449.041087,142.822029 C448.0663,142.042991 447.082616,141.278782 446.075205,140.542255 C442.383671,137.84528 438.433117,135.465654 434.211679,133.694034 C432.599228,133.017813 430.957118,132.42958 429.268543,131.970857 C427.645217,131.529929 425.985312,131.233341 424.350122,130.843822 C422.680331,130.445405 421.034267,129.974818 419.382271,129.510164 C419.376339,131.490384 419.405998,133.472581 419.214204,135.44687 L419.214204,135.44687 L418.675402,139.396436 L418.48262,141.37369 L418.408473,143.350944 L418.393643,146.316826 L418.393643,172.021133 L418.378814,174.987015 C418.355087,175.975642 418.333337,176.968224 418.225577,177.952897 L418.225577,177.952897 L417.974465,179.930151 L417.686775,181.907405 C417.565174,182.895044 417.487072,183.878728 417.443573,184.873287 L417.443573,184.873287 L417.406005,187.839169 L417.405016,191.793677 L417.405016,202.668577 L417.404028,206.623085 L417.390187,208.60034 C417.36646,209.588967 417.34471,210.581549 417.23695,211.566221 L417.23695,211.566221 L416.985838,213.543476 L416.698148,215.52073 C416.576547,216.508369 416.498445,217.492053 416.454945,218.486612 L416.454945,218.486612 L416.417378,221.452494 L416.416389,225.407002 L416.420343,228.372884 C416.429241,229.361511 416.43715,230.352116 416.505365,231.338766 C416.663546,233.660062 417.157859,235.937859 417.31604,238.259156 C417.519697,241.220094 417.290335,244.195862 417.493993,247.156801 C417.630423,249.148885 417.989295,251.113287 418.265122,253.088564 L418.265122,253.088564 L418.665516,256.054446 C418.932445,257.710396 419.231011,259.363381 419.615587,260.997582 C420.090128,263.012404 420.689236,264.993613 421.424774,266.929345 C422.20579,268.985689 423.119281,270.989637 424.27993,272.861108 C425.130149,274.231345 426.091095,275.530402 427.112347,276.77706 C428.136564,278.026685 429.225043,279.224901 430.426225,280.307448 C431.6106,281.376154 432.895816,282.301509 434.215633,283.193251 L434.215633,283.193251 L436.188933,284.379604 L438.166187,285.389981 L440.143442,286.242177 C441.425691,286.77307 442.765281,287.155669 444.097951,287.533324 C445.07076,287.809151 446.068285,288.04049 447.063832,288.219432 C448.047516,288.397385 449.033178,288.519974 450.029714,288.590167 C451.345577,288.682109 452.666383,288.672223 453.984223,288.678155 L453.984223,288.678155 L458.927359,288.679143 L466.836376,288.678155 C468.817585,288.668268 470.807692,288.685075 472.76814,288.356851 C474.110695,288.133421 475.43249,287.769606 476.720671,287.335599 C478.337077,286.791854 479.921846,286.175939 481.991043,285.34747 L481.991043,285.34747 L483.643039,284.724635 L482.385505,282.590188 C481.659853,281.309916 480.940132,280.020746 480.134401,278.787928 C478.524916,276.327235 476.680137,274.018791 474.656418,271.88731 C473.731062,270.913513 472.76814,269.978271 471.775558,269.074666 L471.775558,269.074666 L468.813631,266.513133 L463.870495,262.254127 C462.551666,261.123137 461.204167,260.022795 459.91994,258.852261 C458.927359,257.948655 457.964436,257.013414 457.039081,256.039616 C455.850751,254.789003 454.704932,253.481049 452.923426,251.11131 C452.013889,249.82906 451.139942,248.531981 450.374745,247.156801 C448.983746,244.655574 447.957551,241.969474 447.092502,239.247783 C446.780096,238.267065 446.491417,237.277449 446.229431,236.281902 C445.885389,234.977902 445.575948,233.663028 445.383166,232.327393 C445.146884,230.686272 445.109316,229.039219 445.094487,227.384257 C445.082623,226.068394 445.117225,224.73869 445.258599,223.429748 C445.47412,221.415914 445.949649,219.444592 446.498338,217.497985 C447.161706,215.146041 447.950631,212.823755 448.915531,210.577594 C449.346572,209.574138 449.817159,208.591442 450.299609,207.611713 L450.299609,207.611713 L451.352497,205.634458 L452.546759,203.662147 L453.888326,201.738278 L455.277347,200.020044 L456.47062,198.79909 L457.938732,197.725441 C457.386089,199.69182 456.80181,201.653257 456.417234,203.662147 C456.103839,205.296348 455.926875,206.953287 455.693559,208.60034 C455.461232,210.243438 455.148826,211.877639 455.149814,213.543476 C455.149814,214.874168 455.340619,216.189042 455.558117,217.497985 C455.831967,219.153935 456.081101,220.833613 456.577392,222.441121 C457.108285,224.161332 457.881391,225.798499 458.725679,227.384257 C459.627307,229.076787 460.64065,230.694181 461.781525,232.23545 C463.772621,234.923528 466.143349,237.306119 468.57636,239.591825 L468.57636,239.591825 L471.871455,242.534969 L477.711276,247.863669 L480.673203,250.404441 C481.662819,251.280365 482.634639,252.174084 483.551096,253.12712 L483.551096,253.12712 L485.295035,255.069773 L486.817521,257.043073 L488.123497,259.020327 C488.699867,259.994125 489.256464,260.972866 489.762641,261.986209 C490.556509,263.573944 491.275241,265.21902 491.760657,266.929345 C492.035495,267.896222 492.257936,268.893747 492.357788,269.895226 C492.520911,271.539314 492.547604,273.187355 492.53574,274.838363 C492.52882,275.828967 492.503116,276.814628 492.368662,278.792871 L492.368662,278.792871 L492.078006,280.770126 C491.797236,282.109716 491.474943,283.437442 490.999414,284.724635 L490.999414,284.724635 L490.166001,286.701889 L489.112124,288.679143 L487.895124,290.656398 C487.263392,291.665786 486.578273,292.647493 485.89612,293.622279 C483.983127,296.354845 481.930736,298.978662 479.766632,301.516468 L479.766632,301.516468 L477.288143,304.325157 L475.565955,306.011755 L472.75331,308.191678 L470.789897,309.316736 C469.531374,309.924742 468.196727,310.30042 466.836376,310.603929 C465.529411,310.895574 464.209594,311.089345 462.881868,311.252468 L462.881868,311.252468 L458.927359,311.581681 C456.950104,311.792259 454.991634,312.229232 452.995595,312.229232 C451.662926,312.229232 450.355961,312.023597 449.041087,311.832792 L449.041087,311.832792 L446.075205,311.417569 L443.109323,310.987516 C441.45535,310.69686 439.805331,310.375556 438.166187,310.008775 C435.820175,309.482826 433.486026,308.875808 431.245797,307.991976 C429.890389,307.457128 428.584413,306.823418 427.291288,306.154118 L427.291288,306.154118 L425.314034,305.023128 L422.348152,302.999408 C421.346673,302.226302 420.363977,301.434412 419.3971,300.617805 C417.828149,299.295022 416.27897,297.941592 414.898846,296.420094 C414.085206,295.524398 413.352633,294.568396 411.908249,292.629698 C411.235982,291.657877 410.569648,290.685068 409.965596,289.667771 C409.210285,288.395407 408.552848,287.076579 407.978456,285.713262 C407.569164,284.744407 407.209304,283.746882 406.882068,282.74738 C406.242426,280.792864 405.660125,278.82253 405.2103,276.815617 C404.916677,275.505686 404.695225,274.18488 404.474761,272.861108 L404.474761,272.861108 L403.843028,268.906599 L403.410998,264.95209 C403.173728,262.97187 402.800026,261.011422 402.664585,259.020327 C402.596369,258.033677 402.58846,257.043073 402.579563,256.054446 L402.579563,256.054446 L402.571654,252.099937 L402.537052,250.122682 C402.493552,249.128123 402.415451,248.144439 402.293849,247.156801 L402.293849,247.156801 L402.006159,245.179546 L401.755048,243.202292 C401.647287,242.217619 401.625537,241.225038 401.60181,240.23641 L401.60181,240.23641 L401.586981,236.281902 L401.586981,230.350138 L401.58797,226.39563 C401.591924,225.077789 401.585004,223.756984 401.675957,222.441121 L401.675957,222.441121 L401.86874,220.463866 L402.293849,217.497985 C402.421382,216.511335 402.493552,215.525673 402.537052,214.532103 L402.537052,214.532103 L402.574619,211.566221 L402.575608,208.60034 L402.575608,195.748186 L402.576597,191.793677 L402.614165,188.827796 L402.857367,185.861914 L403.396169,181.907405 L403.525679,179.930151 L403.563247,176.964269 L403.564235,173.009761 L403.564235,162.134861 C403.565224,160.488797 403.530622,158.836801 403.602792,157.191725 L403.602792,157.191725 L403.845994,154.225844 L404.384796,150.271335 L404.514306,148.29408 L404.551874,145.328199 L404.552863,142.362317 L404.552863,120.612519 L404.551874,116.65801 L404.514306,113.692128 L404.271104,110.726247 L403.732302,106.771738 L403.602792,104.794484 L403.565224,101.828602 L403.563247,96.8854659 C403.560281,95.5676259 403.566213,94.2468199 403.475259,92.9309571 C403.362555,91.271052 403.086728,89.6338854 402.857367,87.9878211 L402.857367,87.9878211 L402.66063,86.0105667 L402.40853,82.0560579 L401.740218,77.1129219 L401.305222,73.158413 C400.952282,70.8373141 400.467855,68.5390524 400.005177,66.2380226 C399.471319,63.5850415 398.936471,60.9344331 398.197967,58.329005 C397.33885,55.2986649 396.239496,52.348799 395.058087,49.4313602 C394.520274,48.1043259 393.98246,46.7725462 393.372477,45.4768513 C392.744699,44.1444785 392.110001,42.8090408 391.392257,41.5223425 L391.392257,41.5223425 L390.264234,39.5450881 L388.378921,36.5792065 C387.708632,35.5646773 386.997809,34.5692286 386.245464,33.6133249 C384.302812,31.1432398 382.0784,28.904197 379.836194,26.7073684 C378.553944,25.4502301 377.263786,24.1861714 374.894046,22.2120806 L374.894046,22.2120806 L372.916792,20.6864311 C371.942994,19.9874716 370.964253,19.3025507 369.95091,18.6619203 C367.764067,17.279424 365.472429,16.0776488 363.03052,15.2124022 C362.058699,14.8679645 361.067106,14.5783956 360.064638,14.3389501 C358.75965,14.0274337 357.431924,13.8184379 356.11013,13.5981717 C354.144739,13.2708373 352.177371,12.9293654 350.178366,12.9299586 L350.178366,12.9299586 L347.212485,13.1389544 L345.23523,13.4601594 L342.269349,14.0490846 C340.27331,14.4734034 338.278261,14.9336094 336.337586,15.5700875 C333.942142,16.3556507 331.647538,17.4021126 329.417195,18.5710654 C327.71379,19.4640924 326.040045,20.419304 324.474059,21.5408027 C322.33467,23.0726805 320.416733,24.8638753 318.54625,26.7073684 C317.247194,27.9874429 315.988672,29.3043932 314.755854,30.6474433 L314.755854,30.6474433 L313.033665,32.6246977 L310.558143,35.5905793 C309.497346,36.8862741 308.418753,38.166052 307.465717,39.5450881 C306.807291,40.4988168 306.217081,41.4865542 305.675313,42.5109697 C305.165181,43.4751779 304.738094,44.4808094 304.296178,45.4768513 L304.296178,45.4768513 L303.437061,47.4541058 C302.73217,49.0879111 302.034199,50.7199369 301.437068,52.3972418 C300.630348,54.6663389 299.988729,56.9858561 299.392587,59.3176322 C298.973409,60.9546011 298.54039,62.5973041 298.238859,64.2607682 L298.238859,64.2607682 L297.938316,66.2380226 L297.627887,69.2039042 C297.389628,71.1837291 297.016916,73.1442757 296.881474,75.1356674 C296.813852,76.1220604 296.796412,77.111514 296.79264,78.1009322 L296.792497,86.9991939 L296.703521,91.9423299 L296.510739,93.9195843 L296.220082,95.8968387 L295.932392,97.8740931 C295.750484,99.1948991 295.596258,100.517682 295.349102,101.828602 C295.035707,103.490484 294.611586,105.133583 294.192408,106.771738 L294.192408,106.771738 L293.404472,109.73762 C292.920045,111.397525 292.393106,113.040623 291.845407,114.680756 C291.401513,116.009471 290.938836,117.336208 290.412886,118.635264 C289.454906,121.001049 288.288326,123.272915 287.150416,125.555655 L287.150416,125.555655 L285.170196,129.510164 L283.631892,132.476045 C282.317018,134.868523 280.838032,137.16115 279.273035,139.396436 C277.846446,141.433008 276.363505,143.437944 274.746111,145.328199 C273.273056,147.049399 271.684332,148.657895 270.095608,150.271335 L270.095608,150.271335 L267.133681,153.237217 C264.856873,155.514025 262.60478,157.817526 260.213291,159.9757 C258.966632,161.099769 257.623088,162.108168 256.258782,163.083943 C255.28795,163.77796 254.290425,164.441329 253.2929,165.096788 C251.986924,165.955905 250.681936,166.817988 249.338392,167.618776 C248.045267,168.388917 246.71853,169.093808 245.383883,169.788813 L245.383883,169.788813 L241.483748,171.819453 L239.727947,172.976147 L238.323107,174.383952 L237.370071,176.079448 L236.826326,177.967726 L236.579169,179.93114 L236.501067,181.907405 L236.486238,184.873287 L236.486238,194.759559 C236.485249,196.077399 236.49909,197.397216 236.447682,198.714068 L236.447682,198.714068 L236.333001,200.691322 L236.084855,203.657204 C236.010708,204.981964 236.125389,206.294861 236.257865,207.611713 C236.422966,209.266675 236.639475,210.928557 236.991426,212.554849 C237.421479,214.546933 238.076939,216.483653 238.563344,218.461896 L238.563344,218.461896 L238.992408,220.305686 L239.267246,221.777752 L239.45212,223.429748 L241.104116,223.005627 L242.576182,222.441121 L244.419971,221.546413 L249.338392,218.764416 L255.270155,215.372436 L259.224664,213.127264 C260.539538,212.374919 261.839583,211.591926 263.179172,210.88308 C265.113916,209.86084 267.070409,208.868258 269.110936,208.070436 C270.719432,207.44068 272.376371,206.931537 274.054072,206.524223 C275.357082,206.206873 276.673934,205.945876 278.008581,205.806479 C278.996219,205.702674 279.982869,205.678947 280.974462,205.663128 C282.290325,205.643356 283.632881,205.732332 284.928971,205.959717 C286.634353,206.258282 288.30711,206.790163 289.872107,207.532623 C292.72924,208.887042 295.304613,210.90483 297.061404,213.558305 C298.423732,215.61465 299.099953,218.047661 299.460802,220.463866 C299.655562,221.768854 299.740584,223.098558 299.739595,224.418375 C299.739595,225.738192 299.731686,227.059987 299.576472,228.372884 C299.417303,229.719394 299.107862,231.027348 298.727241,232.327393 C298.433619,233.328872 298.085622,234.317499 297.715875,235.293274 C297.336242,236.295742 296.925962,237.287335 296.473171,238.259156 C295.68128,239.95564 294.767789,241.593796 293.811786,243.202292 C293.012976,244.544848 292.195381,245.886415 291.285844,247.156801 C290.07181,248.851308 288.799446,250.502315 287.459857,252.099937 C286.61458,253.108337 285.745577,254.093009 284.854824,255.061864 L284.854824,255.061864 L282.142031,257.939758 C280.210253,259.987205 278.301214,262.052447 276.268597,264.00202 C274.259706,265.929843 272.196441,267.800325 270.096597,269.627309 L270.096597,269.627309 L267.19201,272.130513 L265.473776,273.779543 L264.252822,275.17845 L263.179172,276.815617 L264.831169,277.165591 L266.303234,277.572905 C268.593884,278.275819 270.838067,279.100334 273.065444,279.983178 C274.729304,280.642593 276.382289,281.325734 278.008581,282.075114 C279.364977,282.699926 280.679851,283.423601 281.963089,284.184844 C284.369408,285.611433 286.69367,287.202134 288.86865,288.961891 C291.077244,290.74834 293.130622,292.718674 295.083161,294.778973 C296.246775,296.006848 297.389628,297.260427 298.462289,298.56937 C299.248247,299.528338 299.989718,300.517954 300.704495,301.531297 C301.610078,302.815524 302.447445,304.144239 303.264051,305.485806 L303.264051,305.485806 L304.382188,307.46306 L305.369827,309.440315 L306.219058,311.417569 C306.746985,312.696853 307.149356,314.037431 307.510205,315.372078 C307.949155,316.995404 308.305061,318.641468 308.484003,320.315214 C308.589786,321.300875 308.620433,322.29148 308.641194,323.281095 L308.641194,323.281095 L308.656024,327.235604 C308.656024,329.875239 308.711387,332.521794 308.370311,335.144622 L308.370311,335.144622 L308.047029,337.121876 C307.785043,338.445648 307.524046,339.766454 307.197799,341.076385 L307.197799,341.076385 L306.388113,344.042267 L305.260089,347.996776 C304.850798,349.332411 304.395041,350.646296 303.896772,351.951284 L303.896772,351.951284 L302.344628,355.905793 L301.641714,357.883048 L301.136525,359.860302 L301.015913,362.811354 L301.484522,364.714462 L303.153325,367.334324 L304.809275,368.936888 C305.711892,369.731745 306.686678,370.432681 308.657012,371.743601 L308.657012,371.743601 L310.631301,372.792534 L312.585817,373.593322 L315.901673,374.492973 L317.553669,374.68971 L317.553669,354.917166 L317.554657,348.985403 C317.562566,347.336373 317.557623,345.685365 317.722724,344.042267 C317.888813,342.379396 318.205174,340.731354 318.557125,339.099131 C318.987178,337.098149 319.533889,335.129792 320.114213,333.167367 C320.407835,332.176763 320.691571,331.17825 321.029682,330.201486 C321.724687,328.193584 322.489884,326.213364 323.349001,324.269723 C323.9402,322.931121 324.571933,321.612293 325.250131,320.315214 C325.956011,318.964749 326.69847,317.630102 327.543747,316.360705 L327.543747,316.360705 L329.742453,313.394823 C330.608491,312.383458 331.492324,311.396808 332.422622,310.443771 C334.249605,308.573289 336.186326,306.80068 338.31484,305.277205 C340.471036,303.73297 342.820014,302.482356 345.23523,301.397832 C346.211005,300.95987 347.20161,300.548602 348.201112,300.166003 C349.173921,299.79329 350.156617,299.42651 351.166994,299.168478 L351.166994,299.168478 L353.144248,298.773027 L355.121502,298.607926 L359.076011,298.565415 L362.041893,298.56937 C363.031509,298.585188 364.020136,298.582222 365.007774,298.657358 C366.007277,298.734471 366.994915,298.864969 367.973656,299.088399 C370.384918,299.641042 372.631079,300.711725 374.894046,301.679591 C376.544065,302.385471 378.205948,303.064658 379.837182,303.814037 C381.504008,304.579235 383.139197,305.411659 384.780318,306.230242 L384.780318,306.230242 L396.643845,312.162005 C398.624065,313.15261 400.617138,314.122453 402.575608,315.155568 L402.575608,315.155568 L405.54149,316.779883 L409.495999,319.021101 C412.427278,320.606859 415.447534,322.019607 418.393643,323.575706 L418.393643,323.575706 L421.359525,325.17926 L425.314034,327.314694 L428.279915,328.918248 L433.223051,331.484724 L436.188933,333.088277 L440.143442,335.223712 L443.109323,336.827265 L448.052459,339.343322 L452.995595,341.809947 L455.961477,343.191059 L459.915986,344.892486 L463.870495,346.705628 L467.825004,348.412988 L472.76814,350.543479 C474.679156,351.344267 476.605002,352.112431 478.541722,352.850935 L478.541722,352.850935 L480.013788,353.388748 L481.665784,353.928539 L480.059265,352.276543 L478.763175,350.804477 L477.392938,348.960687 L476.298527,347.006171 C475.562989,345.454026 475.149742,343.786212 474.92829,342.089728 C474.713758,340.445641 474.759235,338.774861 474.745394,337.121876 L474.745394,337.121876 L473.093398,338.57417 L471.621332,339.694284 L469.777542,340.874705 L466.836376,342.209352 L463.870495,342.866789 L460.904613,342.996299 L458.927359,342.841085 L456.950104,342.408066 L454.973839,341.61321 L453.010425,340.430812 L451.125113,338.887564 L449.455321,337.079365 L448.141436,335.140667 C447.266501,333.623125 446.695074,331.925652 446.404418,330.201486 C445.8409,326.853006 446.476588,323.352277 448.052459,320.354759 L448.052459,320.354759 L449.831988,317.674591 L451.343599,316.152105 L453.087538,314.860958 L454.987679,313.807081 L456.951093,313.047815 C458.550692,312.563388 460.229381,312.436844 461.89324,312.436844 C463.911028,312.436844 465.938703,312.636546 467.824015,313.403721 C469.970325,314.277668 471.862557,315.696348 473.367248,317.453138 L473.367248,317.453138 L475.286173,320.319168 L476.112665,322.292468 L476.812613,325.256373 L476.994521,327.210889 C477.066691,328.868816 476.860068,330.530699 476.722648,332.17874 L476.722648,332.17874 L478.374644,330.571232 L479.84671,329.265256 C481.041961,328.303322 482.264892,327.38291 483.645016,326.696802 C484.894641,326.075945 486.218413,325.675551 487.597548,325.469916 C488.581232,325.322611 489.571836,325.30877 490.563429,325.288997 L490.563429,325.288997 L492.540684,325.363144 L494.517938,325.647869 L497.479865,326.69878 L499.418563,327.881178 L501.226762,329.424425 L502.770998,331.232624 L503.967237,333.171322 L505.16743,336.133249 L505.669653,338.110504 L505.911867,340.087758 C505.978105,341.767436 505.667676,343.432284 505.16743,345.030894 C504.502084,347.156442 503.492696,349.161378 502.037437,350.858851 L502.037437,350.858851 L499.418563,353.282965 L497.479865,354.465363 L495.506565,355.261208 C494.239145,355.665557 492.909442,355.795067 491.596545,355.955225 L491.596545,355.955225 L489.249544,356.315085 L487.597548,356.89442 L490.563429,357.754526 L493.529311,358.871675 L493.510527,360.523671 C493.459118,361.639831 493.341472,362.760934 493.035986,363.839526 C492.534752,365.605215 491.641033,367.205802 490.682064,368.757947 C489.838765,370.121264 488.893638,371.416365 487.953453,372.712456 L487.953453,372.712456 L486.47941,374.684767 L484.961867,376.608635 L483.346451,378.328847 L481.576808,379.591324 L479.673701,380.219102 L476.722648,380.182523 L474.745394,379.913616 L472.76814,379.706993 L469.802258,379.472688 L466.836376,379.152373 L464.859122,379.094044 L462.881868,379.252225 L459.915986,379.544858 C457.610507,379.693152 455.29712,379.577483 452.995595,379.800913 C451.668858,379.929434 450.354972,380.16275 449.041087,380.378271 L449.041087,380.378271 L444.097951,381.200809 L439.154815,382.029278 L435.200306,382.796453 L431.245797,383.590321 L428.279915,384.229963 L424.325407,385.145431 L419.382271,386.208206 L413.450507,387.667419 L406.530117,389.404437 L401.586981,390.769731 L396.643845,391.964982 L392.689336,393.004029 L388.734827,393.892805 L383.791691,395.031703 L379.837182,395.870059 L374.894046,397.008958 L369.95091,398.021312 C368.305835,398.350525 366.662736,398.697533 365.007774,398.975337 L365.007774,398.975337 L360.064638,399.673308 L356.11013,400.24078 L352.155621,400.67281 L349.189739,401.100886 L347.212485,401.293668 C346.225835,401.361883 345.23523,401.369792 344.246603,401.37869 L344.246603,401.37869 L340.292094,401.382645 C338.322749,401.382645 336.353404,401.389565 334.385047,401.349031 L334.385047,401.349031 L331.069191,400.972364 L329.417195,400.394017 L328.889268,402.046013 L327.436975,406.330724 C326.980229,407.654495 326.530404,408.982222 326.002477,410.280289 C325.454777,411.628777 324.841828,412.952549 324.153744,414.234798 C323.608022,415.251107 323.011879,416.228859 321.716778,418.189307 L321.716778,418.189307 L319.348027,421.151234 L317.514124,423.092898 C315.98966,424.616372 314.366335,426.042961 312.610533,427.295552 L312.610533,427.295552 L310.633278,428.590654 L308.656024,429.679132 L305.690142,430.949518 C304.708435,431.287629 303.726729,431.601024 302.724261,431.872896 C301.100935,432.312835 299.45487,432.667752 297.781125,432.846694 C296.795463,432.952477 295.804859,432.983124 294.815243,433.003886 L294.815243,433.003886 L290.860734,433.018715 L287.894853,433.014761 C286.905237,432.998942 285.91661,433.00092 284.928971,432.926773 C283.929469,432.850648 282.942819,432.719161 281.963089,432.505618 C280.607681,432.211995 279.303682,431.76217 278.008581,431.274777 L278.008581,431.274777 L276.031326,430.389955 L274.058026,429.297522 L271.177167,427.320268 L269.412467,425.778009 L267.850436,424.052855 L266.581039,422.288155 L265.762455,420.82993 L265.156427,419.177934 L263.179172,419.177934 L262.53261,420.82993 L261.587483,422.301996 C260.563265,423.643563 259.41448,424.873415 258.217253,426.060757 C256.073909,428.184328 253.740749,430.086447 251.315646,431.875862 C249.379914,433.304428 247.382887,434.645995 245.383883,435.983608 C243.419481,437.299471 241.46101,438.629174 239.45212,439.875833 C237.830771,440.882256 236.164934,441.809588 234.508984,442.756693 L234.508984,442.756693 L229.565848,445.565383 L226.599966,447.111596 L224.622712,448.142734 C222.6504,449.200565 220.692918,450.286078 218.690948,451.286568 C216.736432,452.264321 214.741383,453.152108 212.759185,454.071531 L212.759185,454.071531 L209.793303,455.454621 L204.850167,457.586101 L200.895659,459.266767 C198.623793,460.168395 196.293599,460.915797 193.975268,461.688904 C191.348486,462.564828 188.729612,463.472387 186.066251,464.232642 C184.102837,464.792205 182.115696,465.273666 180.134487,465.768968 C176.8562,466.58854 173.574946,467.398226 170.248215,468.002277 L170.248215,468.002277 L168.270961,468.337422 L164.316452,468.877212 C162.998612,469.062086 161.687692,469.303311 160.361943,469.429855 C158.060419,469.650319 155.747032,469.551456 153.441553,469.682943 C151.792523,469.776863 150.15239,470.022043 148.498417,470.022043 C147.172668,470.022043 145.862737,469.851999 144.543908,469.751159 C143.555281,469.676023 142.56962,469.635489 141.578026,469.612751 C139.601761,469.566285 137.620552,469.644387 135.646263,469.508945 L135.646263,469.508945 L133.669009,469.316163 L130.703127,468.888087 L125.759991,468.327536 C124.101075,468.092242 122.459954,467.749189 120.816855,467.422942 C118.50149,466.96323 116.171296,466.533177 113.896465,465.894524 C111.527714,465.229178 109.218281,464.368084 106.976074,463.357707 C105.304306,462.605361 103.667139,461.77096 102.032938,460.941502 C100.36117,460.09326 98.692367,459.240074 97.0898023,458.264299 C95.3794773,457.223275 93.7528889,456.061638 92.1466663,454.867376 C90.7899732,453.858976 89.4661025,452.785327 88.2311094,451.630611 C86.0529659,449.594039 84.1723993,447.286583 82.417586,444.882241 C81.4822458,443.600981 80.5620316,442.294015 79.7529391,440.927733 L79.7529391,440.927733 L78.6156224,438.950478 L77.5842865,436.973224 C76.9448424,435.669225 76.3312015,434.355339 75.763334,433.018715 C75.074854,431.397366 74.4233487,429.750313 73.8769345,428.075579 C73.2427301,426.131938 72.7858855,424.145786 72.3779779,422.143816 C72.0444151,420.507638 71.7238033,418.863551 71.554056,417.20068 L71.554056,417.20068 L71.4198004,415.223425 L71.3313183,413.251114 C71.2257329,411.987649 71.0719025,410.684638 69.8003302,408.856666 L69.8003302,408.856666 L67.3730527,407.242238 L64.4643137,406.000522 L61.499223,404.638194 L58.5333414,403.252139 C57.1917743,402.593713 55.8519867,401.914526 54.5788326,401.128567 L54.5788326,401.128567 L52.6015782,399.876965 C51.2579349,398.959519 49.9396994,398.012414 48.6616022,397.005003 C47.3917105,396.004513 46.1545425,394.961511 44.9756045,393.854248 C43.8135721,392.763793 42.7071994,391.61303 41.6511478,390.418769 C40.2895116,388.880465 39.010228,387.278889 37.8751851,385.564609 C36.6226933,383.673365 35.5902699,381.652611 34.5652612,379.632846 C33.7350121,377.996668 32.9308627,376.349615 32.1493529,374.68971 L32.1493529,374.68971 L31.3102061,372.712456 C30.9167325,371.746567 30.5956264,370.745087 30.2979507,369.746574 C29.8151052,368.126214 29.4281565,366.474218 29.1674555,364.803438 C28.9116977,363.164294 28.8097702,361.504389 28.5961279,359.860302 C28.4247988,358.542462 28.1621205,357.231542 28.053767,355.905793 L28.053767,355.905793 L27.92485,353.928539 L27.887381,350.962657 C27.8818447,349.645806 27.8844152,348.323023 27.9743802,347.008148 C28.1108108,345.017053 28.4841164,343.056605 28.7211892,341.076385 L28.7211892,341.076385 L29.0286523,338.110504 L29.3078406,336.133249 C29.5773404,334.472355 29.9397711,332.826291 30.333047,331.190113 L30.333047,331.190113 L31.1455008,328.224231 C31.5209815,326.899471 31.9118847,325.574711 32.3507363,324.269723 C33.1379801,321.928653 34.0812293,319.638993 35.0046071,317.349332 C35.6738089,315.689427 36.3531935,314.037431 37.0894242,312.406196 C37.6950572,311.064629 38.3647533,309.743823 39.0697433,308.451687 C40.332418,306.137311 41.7931147,303.944536 43.155443,301.689477 L43.155443,301.689477 L43.9685888,300.217411 L44.6925605,298.565415 C42.3863899,298.563438 40.0693443,298.617813 37.7706872,298.397349 L37.7706872,298.397349 L32.8290341,297.743866 L27.8858981,297.40971 C26.2284646,297.241644 24.5846741,296.943078 22.9427621,296.666263 L22.9427621,296.666263 L19.9768805,296.143279 L17.9996261,295.699385 L16.0223717,295.165526 C14.686934,294.755246 13.3614815,294.321239 12.0678628,293.791335 C10.3365789,293.0815 8.64493887,292.277746 7.13995168,291.1517 L7.13995168,291.1517 L4.37014451,288.624769 L2.82694687,286.696946 L1.64455862,284.724635 L0.849692467,282.74738 C0.248102928,280.828455 0.231948759,278.805723 0.208152502,276.815617 C0.184484767,274.837374 0.199740471,272.856165 0.37597197,270.883854 C0.463949905,269.886329 0.65712766,268.895724 0.865708228,267.917972 C1.29596867,265.901173 1.88880886,263.906123 2.6400469,261.986209 C3.03335246,260.980775 3.47282691,259.990171 3.94601355,259.020327 C4.43239836,258.022802 4.92667242,257.031209 5.45336356,256.054446 C6.17475494,254.716833 6.94390691,253.404925 7.72205538,252.099937 C8.5149344,250.770233 9.30771455,249.433609 10.1684134,248.145428 C11.7684077,245.751962 13.4551045,243.41287 15.3305303,241.225038 C16.497407,239.863698 17.7355637,238.576505 19.0027861,237.309085 L19.0027861,237.309085 L20.9662986,235.46233 C22.2311482,234.29575 23.5780539,233.212214 24.9200165,232.137576 C26.2143272,231.100506 27.5199083,230.06838 28.8745253,229.1104 C30.4875694,227.970513 32.1258236,226.873136 33.8176613,225.851885 L33.8176613,225.851885 L36.7835429,224.152434 C38.0895195,223.427771 39.402713,222.716948 40.7380517,222.047647 L40.7380517,222.047647 L44.6925605,220.170244 C46.6816785,219.220173 48.666051,218.255273 50.6243238,217.242919 C51.9593659,216.551868 53.2914422,215.849943 54.5788326,215.073871 L54.5788326,215.073871 L59.5219686,211.985399 C60.8428734,211.160884 62.1867144,210.369983 63.4764774,209.497025 C64.49941,208.803997 65.4897178,208.073402 66.442359,207.286454 C68.1729509,205.856899 69.787478,204.278062 71.3465431,202.664622 C72.5756045,201.393248 73.7612651,200.083317 74.8807865,198.714068 C75.6705019,197.748179 76.4163223,196.749666 77.1600665,195.748186 C78.1071714,194.472857 78.9987154,193.150074 79.8247134,191.793677 C80.9863504,189.885627 82.0053285,187.8886 82.9431402,185.861914 L82.9431402,185.861914 L84.6572221,181.907405 C85.2330974,180.575725 85.8380384,179.258873 86.4704632,177.952897 L86.4704632,177.952897 L87.9511302,174.987015 L89.485875,172.021133 C90.3934348,170.347388 91.3638713,168.707255 92.3480497,167.077997 C93.7682126,164.726053 95.2390922,162.408711 96.8139753,160.157607 C98.4728918,157.788856 100.234625,155.497218 102.036893,153.237217 C103.373517,151.560505 104.720027,149.887748 106.156502,148.29408 C107.974588,146.276292 109.905377,144.352424 111.91921,142.530384 C112.886088,141.655449 113.88559,140.818082 114.885092,139.979726 L114.885092,139.979726 L119.827239,135.847264 C120.813889,135.009897 121.813391,134.188348 122.751599,133.296606 C123.97453,132.134969 125.140122,130.896219 126.103045,129.506209 C127.131217,128.024257 127.975505,126.368306 128.243423,124.567028 C128.545943,122.536387 127.9933,120.552213 127.38134,118.635264 C126.730823,116.599681 125.893456,114.636267 124.986885,112.703501 C124.050655,110.706474 123.036323,108.745038 122.049673,106.771738 C120.554869,103.781141 119.088735,100.777691 117.42883,97.8740931 L117.42883,97.8740931 L113.908328,91.9423299 C113.332947,90.9645776 112.762509,89.9808935 112.235571,88.9764483 C111.231126,87.0614774 110.3641,85.084223 109.644379,83.0446851 C109.186645,81.7471119 108.778342,80.429865 108.461981,79.0901763 C108.153529,77.7843975 107.946906,76.4576597 107.722488,75.1356674 C107.500047,73.8290977 107.25289,72.5069077 107.182697,71.1811586 L107.182697,71.1811586 L107.272663,68.215277 L107.811464,64.2607682 C107.968656,62.9444111 108.03786,61.6149052 108.422436,59.3176322 L108.422436,59.3176322 L109.082839,56.3517506 C109.407109,55.0257049 109.739287,53.6980774 110.155499,52.3972418 C110.804039,50.368381 111.661179,48.423949 112.491626,46.4654786 C113.338879,44.4692425 114.182178,42.4744894 115.152021,40.5337153 C116.163387,38.5115773 117.300308,36.562993 118.423389,34.6019521 L118.423389,34.6019521 L121.261737,29.6588161 C122.062525,28.3103286 122.920654,26.9854693 123.825248,25.7043073 C124.542991,24.689086 125.28545,23.6972952 126.078329,22.7392166 C127.183614,21.4018017 128.369967,20.1331953 129.561263,18.872399 C130.938421,17.414767 132.334362,15.9699873 133.837075,14.6394928 C135.352641,13.2973325 136.961137,12.0780585 138.613133,10.9107864 C139.909224,9.99492216 141.232996,9.1103974 142.566654,8.24999515 C144.186025,7.20541165 145.807374,6.1686383 147.50979,5.26275919 C150.341218,3.75609133 153.338736,2.62233366 156.407435,1.70192173 C158.351076,1.11892827 160.32833,0.58655252 162.339198,0.296687024 C163.97933,0.0604051221 165.62836,0.0164112116 167.282334,0.00121290243 Z M257.247409,301.424525 L255.270155,302.197632 L254.281528,302.81849 L252.304273,304.28759 L250.327019,305.670679 L249.338392,306.252981 L247.361137,307.221835 L246.37251,307.644968 L244.395256,308.446744 L242.418001,309.200078 L240.440747,309.825879 L238.463492,310.22133 C236.839178,310.455635 235.18125,310.419056 233.545072,310.427953 L228.57722,310.428942 L228.59205,312.080938 C228.616765,312.863931 228.656311,313.649889 228.745287,314.427939 L228.996398,316.365648 C229.140738,317.351309 229.303861,318.334005 229.397781,319.326587 C229.554973,320.971662 229.555961,322.619704 229.564859,324.269723 L229.551018,327.235604 C229.527291,328.224231 229.508507,329.217802 229.397781,330.201486 C229.176328,332.188627 228.82932,334.161926 228.497142,336.133249 C228.106634,338.45158 227.699319,340.774854 227.116029,343.05364 C226.601943,345.058575 225.952415,347.031875 225.270262,348.985403 C224.923254,349.978973 224.583166,350.981441 224.173875,351.951284 L223.314758,353.928539 C222.828353,354.932984 222.330085,355.925566 221.776454,356.89442 C220.798702,358.6087 219.697371,360.244878 218.533757,361.837556 C217.300938,363.525143 216.013746,365.183071 214.564418,366.691716 C213.086421,368.232986 211.441345,369.577519 209.792315,370.927984 C208.495236,371.990758 207.171464,373.024862 205.838795,374.043148 C203.585713,375.762371 201.271337,377.391628 198.918404,378.969477 C197.287169,380.064876 195.643082,381.140503 193.975268,382.178561 C192.344033,383.193881 190.691049,384.174599 189.032132,385.145431 L186.066251,386.831041 C184.089985,387.95511 182.13448,389.120701 180.134487,390.202259 C177.858668,391.4331 175.528473,392.563101 173.214097,393.717818 C171.572976,394.536401 169.937786,395.368825 168.270961,396.134023 L163.327825,398.278355 L159.373316,400.091497 C157.742081,400.81715 156.10096,401.516109 154.43018,402.145865 C152.797957,402.760791 151.141017,403.296627 149.487044,403.848281 L146.521162,404.837897 L142.566654,406.035124 C140.923555,406.515597 139.279468,406.994093 137.623518,407.429088 C135.655161,407.946141 133.676918,408.424636 131.691754,408.872484 L128.725873,409.499274 L125.759991,410.161654 C124.447094,410.463185 123.13914,410.77658 121.805482,410.973317 C120.493574,411.166099 119.17178,411.238269 117.850974,411.343064 L115.873719,411.550675 L113.896465,411.838366 C112.907838,411.972819 111.926131,412.101341 110.930583,412.168567 C109.943933,412.236783 108.953329,412.244692 107.964702,412.253589 L104.010193,412.257544 L100.055684,412.253589 C99.0670567,412.244692 98.0764523,412.236783 97.0898023,412.168567 L95.1125479,411.975785 C93.7945101,411.795855 92.4822064,411.568471 91.1580391,411.435995 L86.2393222,411.102827 C84.5678502,410.92784 82.9222802,410.586764 81.2717671,410.280289 L81.6928234,411.932285 L82.2359752,413.404351 L83.0766049,415.248141 L84.1194089,417.202657 L84.7007217,418.189307 C85.3465918,419.204627 86.0033369,420.201163 86.7381835,421.155189 C88.0908232,422.91099 89.6183511,424.518498 91.1725719,426.09437 C92.753288,427.697923 94.3701877,429.27775 96.1011751,430.719168 C97.3636521,431.771067 98.6933556,432.734979 100.055684,433.651436 C101.343865,434.519451 102.661705,435.341 104.010193,436.110152 C105.302328,436.847668 106.623134,437.533775 107.964702,438.174406 C109.257826,438.792298 110.569734,439.364713 111.91921,439.850129 C113.537593,440.430453 115.198487,440.866438 116.862346,441.293525 C118.499513,441.71468 120.1436,442.136824 121.805482,442.450219 C123.442649,442.75867 125.100577,442.937612 126.748618,443.172905 C128.066458,443.360744 129.378367,443.589117 130.703127,443.729502 L134.657636,444.057726 C136.640822,444.270281 138.597315,444.657823 140.589399,444.793265 C141.905262,444.884219 143.226068,444.878287 144.543908,444.882241 L153.441553,444.882241 C155.091572,444.871367 156.739613,444.871367 158.384689,444.714175 C160.039651,444.556983 161.676818,444.244577 163.327825,444.046851 L166.293707,443.740377 C167.617478,443.57231 168.932353,443.366676 170.248215,443.147201 C171.570999,442.926737 172.89477,442.710227 174.202724,442.410673 C175.534405,442.105188 176.843347,441.713691 178.157233,441.343945 L182.111742,440.226796 C184.094928,439.654381 186.075148,439.073068 188.043505,438.451222 L191.009387,437.461606 L194.963895,436.122016 C196.959934,435.401307 198.925325,434.597553 200.895659,433.809617 L204.857211,432.231891 C206.176905,431.703841 207.494251,431.169982 208.804676,430.619317 C210.1413,430.056788 211.454197,429.439885 212.759185,428.80914 L215.725067,427.328177 L218.690948,425.792839 C220.357774,424.891211 221.98802,423.922356 223.634084,422.984149 L227.588593,420.736011 L230.554475,418.97922 L236.486238,415.421151 L242.418001,411.838366 L245.383883,409.964917 L250.327019,406.805265 L252.304273,405.450845 L255.270155,403.34507 C256.264714,402.603599 257.294863,401.88981 258.221207,401.061341 L260.106519,399.313448 L260.979477,398.377218 L261.77631,397.413306 L263.090196,395.449893 L264.021483,393.473627 L264.361571,392.485 L264.629489,391.496372 L264.973531,389.519118 C265.098098,388.536423 265.120836,387.541864 265.141597,386.553236 L265.155438,383.587355 C265.151484,382.269515 265.159393,380.948709 265.06745,379.632846 C264.997258,378.63631 264.874668,377.650649 264.696715,376.666964 C264.396173,374.996184 263.941404,373.348143 263.454999,371.723828 C262.953765,370.054037 262.39618,368.398087 261.742697,366.780692 C261.062522,365.096072 260.266677,363.465825 259.462923,361.837556 C258.969598,360.840032 258.463421,359.84745 257.927585,358.871675 C257.190069,357.527142 256.394224,356.218199 255.582561,354.917166 L253.740749,351.951284 C252.801553,350.352674 251.921675,348.716496 251.197011,347.008148 C250.390291,345.108995 249.74274,343.138661 249.536117,341.076385 C249.437254,340.088747 249.445163,339.099131 249.520299,338.110504 C249.622128,336.783766 249.864341,335.466914 250.084805,334.155995 L250.62855,331.19209 L250.878673,330.210384 L251.206897,329.251415 L252.163888,327.528238 L252.811439,326.875744 L253.564773,326.451623 L254.399174,326.30234 L255.284984,326.451623 L257.080331,327.528238 L257.940437,328.335946 L259.551899,330.170838 C260.529652,331.330498 261.456984,332.527726 262.481202,333.64784 C263.68535,334.96568 264.98836,336.172794 266.326961,337.350249 C267.531109,338.409069 268.801495,339.401651 270.103517,340.335903 C271.067429,341.027942 272.057045,341.671539 273.065444,342.29734 L274.054072,342.866789 L276.031326,343.819826 L278.008581,344.478251 L278.997208,344.690806 L279.985835,344.830203 L281.963089,344.898418 C282.966546,344.898418 283.954185,344.689818 284.928971,344.478251 L285.917598,344.186606 L286.905237,343.81686 L288.864696,342.828233 L290.729247,341.513358 L291.573534,340.740252 L292.329834,339.901896 L293.511244,338.070958 L293.928444,337.107047 L294.43561,335.143633 L294.539416,333.167367 L294.292259,331.190113 C293.999626,329.855466 293.631856,328.544547 293.242337,327.235604 C292.74308,325.558893 292.224051,323.889101 291.501365,322.292468 C290.379273,319.814968 288.884468,317.519376 287.221597,315.373066 C285.909689,313.677571 284.494964,312.062154 282.91316,310.611838 C280.578023,308.47146 277.917627,306.712692 275.042699,305.387932 C274.074833,304.942061 273.080274,304.557485 272.076817,304.20059 C270.777761,303.737913 269.457944,303.33653 268.122308,302.992488 C266.491074,302.57331 264.832157,302.248052 263.179172,301.926748 C262.196477,301.735943 261.208838,301.512513 260.213291,301.395855 C259.228618,301.280754 258.225162,301.197141 257.247409,301.424525 Z M294.815243,363.814811 L293.163247,364.040218 L291.691181,364.442589 L289.847391,365.122765 C287.608151,366.032302 285.372865,367.087167 282.951717,367.405505 C281.961112,367.536004 280.984348,367.528095 279.990778,367.447027 C279.046639,367.370903 278.115352,367.190973 277.178134,367.062451 L275.706068,366.877578 L274.054072,366.780692 L274.054072,371.748544 C274.05506,373.057487 274.04122,374.369395 274.092628,375.678337 L274.207309,377.655592 C274.319024,378.972443 274.478193,380.286329 274.478193,381.6101 C274.478193,383.263085 274.247843,384.906184 274.135139,386.553236 C274.045174,387.870088 274.036276,389.195837 273.886994,390.507745 C273.698166,392.164684 273.42135,393.806794 273.143546,395.450881 L272.620562,398.416763 C272.350667,399.747455 272.026397,401.06925 271.64281,402.371272 C270.946816,404.733102 270.020473,407.010899 269.100061,409.291662 L268.274557,411.268917 L267.47278,413.246171 L267.146533,414.234798 L266.918161,415.223425 L266.951774,417.196725 L267.773323,419.138389 L269.261207,420.972293 L271.106974,422.609459 L272.08176,423.341043 L274.054072,424.633179 L276.031326,425.699908 L277.019953,426.143801 L278.008581,426.537275 L279.985835,427.196689 L281.963089,427.780968 C282.949739,428.049875 283.927492,428.345474 284.928971,428.555063 C285.909689,428.760698 286.894362,428.899105 287.894853,428.968309 C289.210715,429.058274 290.537453,429.021695 291.849361,428.895151 C293.178076,428.766629 294.495916,428.527382 295.80387,428.265395 C296.799418,428.066681 297.785079,427.839297 298.769752,427.591152 L299.758379,427.310382 L301.735633,426.624274 L303.712888,425.775044 C304.717333,425.281719 305.709915,424.778507 306.66394,424.190274 C308.271448,423.200658 309.795911,422.066703 311.098922,420.692511 C313.833464,417.808686 315.382643,414.065743 316.40785,410.280289 C316.8468,408.657952 317.198751,407.013865 317.381648,405.342096 C317.597168,403.37374 317.548726,401.381656 317.553669,399.40539 L315.901673,399.055416 L315.419223,398.913054 L314.429607,398.648102 C312.476079,398.034164 310.53145,397.389579 308.656024,396.56111 C306.938778,395.802833 305.246249,394.945693 303.727717,393.83151 L301.839439,392.274422 L300.957584,391.392567 L300.143944,390.465234 L298.739104,388.526536 L298.139996,387.540875 L297.116767,385.564609 L296.263582,383.587355 C295.894824,382.607625 295.548804,381.625918 295.250239,380.621473 C294.958594,379.643721 294.702539,378.652128 294.488007,377.655592 C294.276441,376.675862 294.0975,375.688224 294.001603,374.68971 C293.877036,373.379779 293.862206,372.04711 293.998637,370.737178 C294.131113,369.463827 294.347622,368.205304 294.532496,366.938873 L294.650142,365.949257 L294.718358,365.466807 L294.815243,363.814811 Z M193.975268,391.099933 L195.952523,391.295681 L196.94115,391.446941 C198.283706,391.64961 199.639113,391.96597 200.895659,392.489943 L200.895659,392.489943 L202.868959,393.482525 L203.846711,394.1192 L204.807657,394.851773 L206.615856,396.543314 L207.42653,397.470647 L208.809619,399.409345 L209.872394,401.382645 L210.304424,402.371272 C210.672193,403.347047 211.013269,404.318867 211.247574,405.337153 C211.545151,406.635221 211.687513,407.96097 211.692456,409.291662 L211.692456,409.291662 L211.595571,411.268917 L211.471992,412.257544 L211.30788,413.246171 L211.094337,414.234798 L210.524888,416.211064 L209.694441,418.174478 C208.6722,420.165573 207.234736,421.908523 205.541218,423.36477 C204.145276,424.566941 202.569405,425.579295 200.891704,426.341527 C199.031108,427.186803 196.999479,427.710776 194.963895,427.888728 L194.963895,427.888728 L192.986641,427.947057 L191.998014,427.889717 L191.009387,427.774048 L189.032132,427.402324 L187.054878,426.864511 C186.039558,426.535298 185.040056,426.158631 184.092951,425.661351 C183.066756,425.12255 182.101856,424.478953 181.216046,423.731551 L181.216046,423.731551 L179.481993,422.04001 L178.708887,421.112678 L177.394013,419.17398 L176.40242,417.20068 L176.021798,416.212053 L175.704449,415.223425 L175.223976,413.246171 L175.04108,412.257544 C174.900695,411.267928 174.773162,410.293142 174.775117,409.291662 L174.775117,409.291662 L174.902672,407.314408 L175.051955,406.325781 L175.248692,405.337153 L175.784528,403.363853 L176.535884,401.42219 L177.492876,399.587298 L178.619911,397.940245 C179.655003,396.61845 180.919457,395.487461 182.294638,394.530469 L182.294638,394.530469 L184.128541,393.389594 L185.092453,392.893303 L187.055866,392.099435 L188.043505,391.80087 L189.032132,391.554701 C190.015816,391.357965 190.994557,391.175069 191.998014,391.110808 L191.998014,391.110808 L193.975268,391.099933 Z M84.2376487,298.564636 L80.2831399,298.566404 L78.3058855,298.580245 L76.3286311,298.654392 L74.3513766,298.847174 L70.3968678,299.385976 C69.0811039,299.511532 67.7630661,299.538225 66.442359,299.550088 L62.4878502,299.554043 L56.556087,299.554043 L53.5909963,299.558986 C51.7154716,299.593588 49.687204,299.536247 48.033033,300.570351 C47.1742126,301.107176 46.5240913,301.866442 45.9222151,302.666241 L44.7077854,304.515963 L43.5674039,306.475422 C41.9697824,309.317725 40.5192685,312.268777 39.5014768,315.372078 C38.6536301,317.957338 38.1376656,320.626631 37.5646573,323.281095 L36.9017827,326.246977 C36.6010423,327.558885 36.2818146,328.866839 36.0917016,330.201486 C35.7187914,332.817393 35.7916532,335.474823 35.7949157,338.110504 C35.7972884,340.087758 35.7664433,342.072921 35.9634767,344.042267 C36.1297638,345.704149 36.4448392,347.354168 36.7980757,348.985403 C37.4590719,352.039272 38.3401365,355.079301 39.7418121,357.883048 C40.4257444,359.251308 41.2220836,360.575079 42.085254,361.837556 C42.7714602,362.841013 43.4502516,363.857322 44.2157456,364.803438 L45.8634906,366.780692 C46.7752026,367.786126 47.701744,368.772776 48.6616022,369.731745 C50.2276865,371.298719 51.8483431,372.807364 53.5902054,374.177601 C55.1627158,375.415362 56.8342867,376.536466 58.5333414,377.590342 C59.5027892,378.192416 60.4852869,378.788558 61.499223,379.313519 L63.4764774,380.305113 C64.456899,380.754938 65.442066,381.190923 66.442359,381.595271 C67.7346925,382.117266 69.0351327,382.590819 70.3724487,382.984292 L72.2154476,383.379743 L73.2055577,383.485526 L75.3400038,383.587355 L75.6932403,381.935359 L76.1219091,380.463293 L76.7642202,378.619503 L77.9145868,375.678337 C78.4519057,374.349622 79.0022745,373.026839 79.599603,371.723828 L81.0338045,368.757947 C82.2190697,366.389196 83.4774932,364.061968 84.9272162,361.8425 C85.7461949,360.587932 86.6015552,359.355113 87.5574588,358.200397 L88.3469765,357.405541 L88.713164,356.979442 L90.1694119,355.905793 L89.6354543,357.557789 L89.3936361,358.040239 L88.9641765,359.029855 L87.4933958,361.8425 L85.4826269,365.792065 L85.0103597,366.780692 L84.1148612,368.757947 C83.7043832,369.732733 83.3296935,370.717406 83.0010738,371.723828 C82.5758652,373.02585 82.2351843,374.352588 81.8942068,375.678337 L81.1611397,378.642242 L80.7415663,380.596758 L80.4547655,382.440547 L80.371622,383.430163 L80.2831399,385.564609 L81.9354325,385.606132 L83.4076961,385.732676 L88.1921575,386.386158 L93.1352935,386.720314 C94.4594608,386.852791 95.7719623,387.080175 97.0898023,387.260105 L99.0670567,387.452887 C100.053707,387.521103 101.044311,387.529012 102.032938,387.537909 L105.987447,387.541864 C108.292926,387.540875 110.609279,387.592284 112.907838,387.373797 L117.850974,386.717349 L120.816855,386.479089 L122.79411,386.271478 L125.759991,385.806823 C127.082774,385.586359 128.406546,385.36985 129.7145,385.070296 C130.712025,384.841923 131.695709,384.560164 132.680382,384.284337 L135.646263,383.448947 C138.290841,382.699568 140.93443,381.939313 143.555281,381.110844 L146.521162,380.121228 C148.175136,379.569574 149.830098,379.028795 151.464298,378.418812 C153.788561,377.551786 156.082176,376.599738 158.384689,375.678337 L164.316452,373.278939 C165.653076,372.71641 166.965973,372.099507 168.270961,371.468763 L171.236843,369.987799 L174.202724,368.452461 C176.202717,367.370903 178.157233,366.205311 180.134487,365.081242 L186.066251,361.689262 L190.020759,359.416408 L194.963895,356.324971 C198.248115,354.291365 201.617357,352.390235 204.850167,350.274573 C207.241657,348.709576 209.548124,347.022978 211.766603,345.22071 C213.683552,343.663623 215.603466,342.067978 217.056748,340.049201 C217.921796,338.847031 218.584177,337.529191 219.073547,336.133249 C219.411658,335.16736 219.641019,334.164892 219.858517,333.167367 C220.281649,331.221749 220.590101,329.230654 220.590101,327.235604 C220.590101,324.897501 220.138299,322.596965 219.675621,320.315214 C219.134842,317.646909 218.499155,315.001343 217.673651,312.406196 C217.250518,311.073527 216.791795,309.747778 216.264857,308.451687 L215.40574,306.474433 L214.924279,305.486794 L213.866448,303.527335 L212.655379,301.677614 L211.979158,300.857053 L211.247574,300.150185 L209.610407,299.161558 L207.776504,298.711732 L205.83484,298.584199 L203.86154,298.566404 L197.929777,298.564636 L187.054878,298.564636 L184.088996,298.566404 L181.123115,298.603972 L179.14586,298.733482 L178.157233,298.847174 L175.191351,299.272284 L174.202724,299.385976 L172.22547,299.515486 L169.259588,299.553054 L166.293707,299.554043 L101.044311,299.554043 C99.3972582,299.551077 97.7452622,299.57777 96.1011751,299.465066 C93.7803728,299.306886 91.5016859,298.812572 89.1807847,298.654392 C87.5368954,298.541688 85.8842073,298.568381 84.2376487,298.564636 Z M240.440747,349.989848 L242.418001,350.077836 L243.406628,350.184608 L244.395256,350.359595 L245.383883,350.604774 L247.360149,351.325483 L248.34581,351.793104 L249.323562,352.314111 L251.223704,353.570656 L252.967642,355.127744 L253.755578,356.009599 L254.479253,356.936931 L255.731844,358.875629 C256.617654,360.417888 257.297829,362.082736 257.710087,363.814811 L257.710087,363.814811 L258.052152,365.792065 L258.14014,366.780692 L258.181662,367.76932 L258.14014,369.746574 L258.052152,370.735201 L257.710087,372.712456 L257.115922,374.68971 L256.720471,375.678337 L256.258782,376.665976 L255.138667,378.629389 L254.479253,379.590335 L253.755578,380.517667 L252.121377,382.209209 C250.205418,383.909647 247.833701,385.064364 245.383883,385.77321 C243.140688,386.421749 240.788744,386.605634 238.463492,386.460306 C236.09573,386.312011 233.697321,385.826595 231.543102,384.804355 C229.752698,383.956113 228.132338,382.793487 226.703772,381.42325 C225.261365,380.04016 224.001854,378.453414 223.096271,376.665976 C222.16103,374.821197 221.724057,372.779682 221.50557,370.735201 C221.400775,369.750529 221.352333,368.759924 221.375071,367.76932 C221.396821,366.772783 221.50557,365.791077 221.632114,364.803438 L221.632114,364.803438 L222.011747,362.826184 L222.288563,361.837556 L223.096271,359.860302 L224.279658,357.887002 L225.012231,356.90925 L226.703772,355.020972 C228.628629,353.095126 230.899506,351.441153 233.520356,350.619604 L233.520356,350.619604 L235.497611,350.185596 L236.486238,350.077836 L238.463492,349.989848 L240.440747,349.989848 Z M347.212485,323.299879 C346.220892,323.324595 345.233253,323.347333 344.246603,323.453117 C343.24809,323.5589 342.258474,323.727955 341.280722,323.954351 C339.581271,324.346836 337.886764,324.881683 336.337586,325.695323 L334.364286,326.891562 L332.426576,328.435798 L331.50221,329.316665 L330.631229,330.243997 L329.846259,331.204942 L328.605532,333.168356 L327.869005,335.144622 L327.669302,336.133249 L327.561542,337.121876 L327.543747,339.099131 L327.611962,340.087758 L327.722688,341.076385 C327.951061,342.723438 328.218979,344.359616 328.34058,346.019521 C328.461193,347.665585 328.437466,349.317581 328.596635,350.962657 L328.998017,353.928539 C329.135436,354.916177 329.260003,355.898873 329.328219,356.89442 C329.486399,359.197922 329.347991,361.511309 329.506172,363.814811 C329.574387,364.810358 329.698954,365.793054 329.836373,366.780692 L330.237756,369.744597 C330.45822,372.044144 330.403845,374.360497 330.405822,376.666964 L350.178366,376.666964 C351.495218,376.665976 352.817012,376.685748 354.132875,376.628408 C355.126446,376.584908 356.112107,376.512739 357.098757,376.385206 L360.064638,375.960096 L362.041893,375.767314 C364.675596,375.586395 367.320173,375.765336 369.95091,375.510271 C371.277648,375.381749 372.591534,375.148433 373.905419,374.932912 L378.848555,374.110374 L383.791691,373.281905 L388.734827,372.317005 L392.689336,371.515228 L398.621099,370.165752 L402.575608,369.351123 L408.507371,368.16477 L412.46188,367.350142 L418.393643,366.000666 L424.323429,364.801461 C425.594804,364.536509 426.866179,364.273534 428.121735,363.943332 L429.111351,363.626972 L429.593801,363.501416 L431.245797,362.826184 L431.245797,360.848929 L429.593801,359.997721 L429.111351,359.712997 L428.121735,359.157388 L425.309091,357.460904 L421.359525,354.966597 C419.3971,353.738722 417.412925,352.548415 415.427762,351.358108 L410.484626,348.415953 L406.530117,346.167815 L402.575608,343.893973 L399.609727,342.213306 L394.66659,339.404617 L389.723454,336.828254 L385.768946,334.751148 L381.814437,332.876711 L378.848555,331.492633 C377.214354,330.764015 375.566313,330.078896 373.905419,329.414539 C372.597465,328.890566 371.280614,328.386366 369.95091,327.9227 C366.716122,326.794677 363.396312,325.934571 360.064638,325.143669 C358.423517,324.75415 356.775476,324.404176 355.121502,324.07694 C353.81256,323.81792 352.495709,323.581638 351.166994,323.450151 C349.858051,323.319652 348.527359,323.266266 347.212485,323.299879 Z M123.782737,308.583175 L125.759991,308.7809 L127.737246,309.231714 L129.7145,309.916833 L130.702139,310.345897 L132.665552,311.373081 L134.565694,312.627649 L135.463367,313.323642 L136.309632,314.068079 L137.821243,315.669655 L138.480657,316.532726 L139.600772,318.376516 L140.457912,320.319168 L140.787125,321.30483 L141.052077,322.292468 L141.252768,323.281095 L141.39513,324.269723 C141.488061,325.259338 141.549356,326.241045 141.549356,327.235604 C141.549356,328.892543 141.436653,330.562335 141.052077,332.17874 L141.052077,332.17874 L140.457912,334.155995 L140.062461,335.143633 L139.073834,337.107047 L138.480657,338.070958 L137.821243,339.0062 L136.309632,340.740252 L134.565694,342.210341 L133.629464,342.831198 L131.6878,343.855416 L129.7145,344.647307 L128.725873,344.976519 L126.748618,345.506424 C125.770866,345.714035 124.783228,345.85442 123.782737,345.888034 C122.450067,345.931533 121.13025,345.782251 119.828228,345.506424 L119.828228,345.506424 L117.850974,344.976519 L116.862346,344.647307 L114.889046,343.855416 L112.947383,342.831198 L112.011153,342.210341 L110.267214,340.740252 L108.755603,339.0062 L108.096189,338.070958 L107.503013,337.107047 L106.514385,335.143633 L106.118935,334.155995 L105.52477,332.17874 C105.066047,330.24894 104.969161,328.223243 105.04232,326.246977 L105.04232,326.246977 L105.181716,324.269723 L105.525758,322.292468 L105.793676,321.303841 L106.553931,319.326587 C107.782794,316.754179 109.718526,314.567335 111.93404,312.795715 C114.227655,310.960823 116.96022,309.624199 119.828228,308.97566 L119.828228,308.97566 L121.805482,308.649413 L122.79411,308.583175 L123.782737,308.583175 Z M88.1921575,201.679949 L87.9694198,203.331946 L87.5887983,204.804011 C86.9575598,206.784232 86.1849477,208.718975 85.2552427,210.577594 C84.2214352,212.644814 82.9972181,214.602296 81.696679,216.509358 C80.7645024,217.876629 79.725653,219.180628 78.6827501,220.463866 C76.4430152,223.220159 74.0301717,225.828158 71.3847041,228.200863 C69.2062641,230.155379 66.8607461,231.914147 64.4651046,233.591847 C62.8528514,234.719871 61.2129166,235.814281 59.5219686,236.822681 C57.9129778,237.781649 56.2533693,238.647686 54.5788326,239.486042 L51.612951,240.919552 C50.3097426,241.517671 48.9852787,242.062405 47.6584422,242.605161 C46.3530588,243.138031 45.0362074,243.651129 43.7039333,244.113806 C42.397067,244.567586 41.0694396,244.958094 39.7494245,245.37134 L37.7721701,246.030754 L34.8062885,247.110335 C33.4861746,247.595751 32.153604,248.056452 30.8517797,248.589322 C27.4786825,249.970434 24.1508645,251.49292 20.9655077,253.268494 L18.9928009,254.400472 L18.0179157,255.02133 L16.1551443,256.44001 L14.5683976,258.135506 L13.9482318,259.062838 L13.1770037,260.997582 L13.1419074,262.932325 L13.8833778,264.740524 L15.2740797,266.28476 L17.0552894,267.480999 L18.9921089,268.350002 L20.9655077,268.981735 L22.9427621,269.472094 L24.9200165,269.891272 L27.8858981,270.464676 L32.8290341,271.293145 L37.7721701,272.115683 C39.4160594,272.381624 41.0519409,272.65844 42.7153061,272.772132 C44.0306746,272.863085 45.3520738,272.857154 46.669815,272.860119 L52.6015782,272.861108 C54.2482356,272.864074 55.9008249,272.837381 57.5447142,272.950085 L59.5219686,273.142867 L62.4878502,273.567977 C63.4741047,273.695509 64.4604581,273.767679 65.4537318,273.811179 L68.4196134,273.848747 L72.3741222,273.849735 L184.088996,273.849735 L187.054878,273.834906 C188.379638,273.80327 189.694512,273.73802 191.009387,273.567977 L193.975268,273.142867 L195.952523,272.950085 C197.266408,272.859131 198.586226,272.865063 199.902088,272.862097 L205.838795,272.861108 L206.93716,270.930319 L207.555052,270.197746 L208.990538,269.501753 L210.657364,269.757807 L211.503629,270.20961 C212.352859,270.755332 213.148704,271.372236 214.029571,271.868526 L215.814043,272.547713 L216.75225,272.714791 L217.717151,272.802779 L219.680564,272.856165 L222.645457,272.861108 L228.57722,272.861108 C229.894072,272.862097 231.215866,272.842324 232.531729,272.899665 C233.526288,272.943164 234.509972,273.021266 235.497611,273.142867 L239.45212,273.681669 C241.043809,273.833917 242.639454,273.837872 244.237075,273.848747 L247.361137,273.849735 L246.692825,272.197739 L245.938503,270.725673 L244.83124,268.881884 C243.500548,266.886834 242.118447,264.929352 240.728437,262.974836 L237.895032,259.02527 L235.898993,256.212626 L235.165432,255.22301 L234.823367,254.74056 L233.520356,253.088564 L231.86836,253.738092 L231.38591,253.968442 L230.396294,254.394541 L227.58365,255.638234 L223.634084,257.348559 L218.690948,259.703469 L213.747812,261.847801 C211.766603,262.723725 209.825928,263.692579 207.816049,264.504242 C206.516004,265.029203 205.191244,265.49287 203.86154,265.936763 C202.222396,266.483474 200.581275,267.025242 198.918404,267.49484 C195.34946,268.501262 191.697471,269.199233 188.043505,269.815148 L185.077623,270.300564 C184.090973,270.457755 183.106301,270.61989 182.111742,270.715787 C179.809229,270.939217 177.495841,270.813661 175.191351,270.97283 C173.200256,271.109261 171.241786,271.486916 169.259588,271.704414 C167.949657,271.848754 166.621931,271.864572 165.305079,271.864572 C163.988228,271.864572 162.660502,271.848754 161.350571,271.704414 C159.368373,271.486916 157.409902,271.109261 155.418807,270.97283 C153.445507,270.837388 151.46331,270.908569 149.487044,270.845297 C148.159318,270.802786 146.840489,270.660424 145.532535,270.424142 C143.514747,270.060327 141.544413,269.473083 139.600772,268.828498 C138.599293,268.496319 137.618575,268.097902 136.63489,267.716292 L133.669009,266.507201 C131.996252,265.791435 130.353153,265.015363 128.725873,264.201722 C127.731314,263.704443 126.730823,263.210129 125.759991,262.666384 C123.374434,261.331738 121.035342,259.901194 118.839601,258.267982 C117.818349,257.508716 116.828733,256.71386 115.873719,255.872538 C114.506448,254.666413 113.213323,253.37922 111.920199,252.095982 L108.992874,249.134055 C108.071473,248.171132 107.161936,247.196346 106.312705,246.168174 C104.299861,243.731208 102.668626,241.030278 101.162946,238.259156 C100.46201,236.970975 99.8559812,235.631385 99.2321575,234.304647 C98.3097683,232.342222 97.3616748,230.38474 96.5490232,228.372884 C96.0240622,227.072839 95.560396,225.748079 95.1165024,224.418375 C94.460746,222.453973 93.8323745,220.484627 93.2855648,218.486612 C92.569601,215.870704 91.9321342,213.230081 91.366244,210.577594 L90.3326342,205.692787 L89.8132095,203.974553 L89.3813772,203.179697 L89.2128162,202.753599 L88.1921575,201.679949 Z M278.004626,232.606186 L277.018965,232.668469 L275.042699,233.003614 L273.065444,233.534507 C270.668024,234.275977 268.416919,235.396092 266.145054,236.444036 C264.155936,237.362471 262.163852,238.27102 260.215268,239.274476 C258.934996,239.932902 257.67153,240.623952 256.416962,241.328843 L255.427347,241.909168 L254.944896,242.177086 L253.2929,243.202292 L254.016576,244.854288 L254.831204,246.326354 C255.805991,247.952646 256.869754,249.518631 257.895949,251.11131 C259.128767,253.024303 260.35763,254.939274 261.246406,257.043073 C262.171761,259.232882 262.743188,261.578894 263.007151,263.938748 C263.192025,265.588766 263.165332,267.24966 263.179172,268.906599 L264.831169,268.260037 L265.313619,267.922915 L266.303234,267.314909 L268.147024,265.793412 C269.488591,264.561583 270.787647,263.286254 272.061988,261.98522 C273.613144,260.402428 275.139584,258.796898 276.49697,257.043073 C277.94432,255.173579 279.172195,253.14195 280.376343,251.11131 C281.331357,249.500836 282.285382,247.881465 283.046625,246.168174 L283.833572,244.190919 L284.147955,243.202292 L284.588883,241.225038 L284.729268,239.251738 L284.486066,237.314028 L283.762391,235.518681 L283.206782,234.733711 L281.737682,233.496939 L279.942335,232.795013 L278.982378,232.642765 L278.004626,232.606186 Z M139.600772,165.100743 L139.022425,166.752739 L138.771314,168.224805 L138.660588,170.068595 C138.660588,171.053267 138.691235,172.029042 138.7812,173.009761 C138.931471,174.665711 139.259696,176.299912 139.43666,177.952897 C139.613624,179.598961 139.654158,181.2559 139.896372,182.896033 C140.19296,184.898991 140.708035,186.869325 141.212234,188.827796 C141.552322,190.152556 141.884501,191.483248 142.315542,192.782305 C142.870162,194.453085 143.493986,196.093217 144.152412,197.725441 C144.689236,199.054156 145.239902,200.376939 145.838021,201.679949 L147.271531,204.645831 C148.109886,206.320566 148.975924,207.979482 149.934892,209.588967 C150.943292,211.27952 152.037702,212.919652 153.165726,214.532103 C154.346147,216.216724 155.562158,217.884538 156.867146,219.475239 C158.278906,221.197428 159.790517,222.829651 161.3654,224.403546 C162.634797,225.673932 163.939785,226.908727 165.305079,228.076296 C166.57942,229.165763 167.905169,230.193935 169.259588,231.181574 C171.149843,232.55972 173.098428,233.866685 175.191351,234.920562 C176.782053,235.720361 178.448878,236.349128 180.134487,236.918577 C181.758802,237.467266 183.409809,237.959602 185.077623,238.359007 C186.37668,238.670425 187.698474,238.958115 189.032132,239.075762 L191.009387,239.209227 L193.975268,239.245806 C195.624298,239.245806 197.275306,239.238886 198.918404,239.079717 C200.576332,238.919559 202.21943,238.610119 203.86154,238.338246 C206.848183,237.844921 209.83878,237.342699 212.759185,236.534002 C214.418102,236.07429 216.046371,235.513738 217.677605,234.967027 L220.993461,233.843947 L222.645457,233.31602 L222.46355,231.664024 L222.210461,230.191958 C221.666716,227.28836 220.963802,224.4075 220.757179,221.452494 C220.664248,220.138608 220.665237,218.814836 220.673146,217.497985 C220.680066,216.177179 220.710714,214.85835 220.836269,213.543476 L221.375071,209.588967 C221.496672,208.601329 221.574774,207.617644 221.618273,206.623085 C221.675614,205.307223 221.655841,203.985428 221.65683,202.668577 L221.65683,178.941524 L220.004834,179.038409 L219.522384,179.106625 L218.532768,179.224271 L215.720124,179.648392 L213.747812,179.841175 C212.103725,179.954867 210.451729,179.927185 208.804676,179.930151 L193.975268,179.930151 C192.329204,179.927185 190.676219,179.954867 189.032132,179.841175 C187.369261,179.727482 185.733083,179.451655 184.088996,179.184726 C182.107787,178.863422 180.124601,178.543107 178.157233,178.143702 C177.16564,177.942022 176.17207,177.735399 175.191351,177.483299 C172.865112,176.884191 170.56161,176.199072 168.270961,175.476385 L165.305079,174.497645 L160.361943,172.985045 C158.035704,172.254449 155.723304,171.473434 153.441553,170.61234 C151.781648,169.98555 150.134595,169.321192 148.498417,168.636074 L142.724834,166.189221 L141.252768,165.640533 L139.600772,165.100743 Z M169.259588,3.95450881 L166.293707,3.9582656 C164.637756,3.98476081 162.989714,4.00769696 161.350571,4.27561493 C159.67287,4.54986011 158.033726,5.04298736 156.407435,5.52751356 L154.43018,6.13542042 L153.441553,6.46957642 L151.464298,7.25375552 C150.464796,7.70150478 149.478146,8.17130042 148.498417,8.6611652 C146.809842,9.50535397 145.141039,10.3893844 143.555281,11.4165681 C142.536995,12.0757847 141.549356,12.7837406 140.590388,13.5249145 C139.23498,14.5718707 137.936912,15.6869433 136.723867,16.8959355 C134.900838,18.7109562 133.297285,20.7307216 131.695709,22.7384257 C130.147519,24.6795952 128.608226,26.6355941 127.183614,28.6701889 C126.068443,30.2627685 125.022475,31.8991442 124.103052,33.6133249 C123.07488,35.5290867 122.227626,37.5314522 121.413986,39.5450881 C120.754572,41.1767185 120.131737,42.8180373 119.577117,44.4882241 C119.146075,45.7866871 118.813896,47.1184668 118.473809,48.442733 L117.740247,51.4086146 L117.325024,53.385869 L117.073913,55.3631234 C116.982959,56.3465109 117.060072,57.3548117 117.19848,58.329005 C117.340842,59.3291991 117.590965,60.3321614 117.894473,61.2948866 C118.210834,62.2968603 118.555865,63.2798523 118.931543,64.2607682 L119.809444,66.2380226 L120.311667,67.2266498 L121.946856,70.1925314 L124.632956,75.1356674 L127.43176,80.0788035 L128.964132,83.0446851 L130.397641,86.0105667 C131.143066,87.6358698 131.820276,89.2918204 132.478702,90.9537027 C133.757985,94.1835478 134.9216,97.460847 135.747103,100.839975 C136.146509,102.474175 136.434199,104.125183 136.712992,105.783111 L136.965046,107.258822 C137.215338,108.736387 137.446306,110.22007 137.531575,111.714874 C137.606711,113.034691 137.578041,114.35352 137.454462,115.669383 C137.330884,116.995132 137.092625,118.30704 136.902808,119.623892 L136.327427,123.5784 L135.884522,125.555655 C135.54048,126.890302 135.100541,128.207153 134.653682,129.510164 C134.198913,130.83789 133.73327,132.157707 133.221161,133.464672 L132.37193,135.441927 C131.619585,137.113695 130.776286,138.74493 129.958691,140.385063 L127.978471,144.339572 C127.304227,145.670264 126.627017,146.998979 125.885547,148.29408 C124.718967,150.334607 123.428808,152.300987 122.081309,154.225844 L119.928079,157.191725 L118.383844,159.16898 L116.730859,161.146234 C115.89448,162.137827 115.006693,163.089875 114.206894,164.112116 L112.699237,166.08937 L111.40809,168.066625 L110.850504,169.055252 L109.922183,171.032506 C109.279576,172.619253 108.893022,174.297942 108.576662,175.975642 C108.3908,176.957349 108.230642,177.945976 108.133757,178.941524 C108.006224,180.256398 107.982497,181.577204 108.056644,182.896033 C108.169347,184.889105 108.57765,186.846587 108.789217,188.827796 L109.027476,191.793677 C109.115464,192.788236 109.232122,193.772909 109.387336,194.759559 C109.543539,195.752141 109.742253,196.741757 109.94591,197.725441 C110.287975,199.380403 110.657722,201.026467 111.059105,202.668577 C111.462465,204.32255 111.884608,205.97158 112.341354,207.611713 C112.712089,208.941416 113.139176,210.255302 113.571206,211.566221 C114.230621,213.568192 114.898933,215.578071 115.774856,217.497985 C116.555872,219.209298 117.498034,220.827681 118.459968,222.441121 C119.262733,223.789608 120.118884,225.11338 121.023478,226.39563 C122.221694,228.093102 123.493069,229.753996 124.943385,231.246823 L126.787175,232.990762 L128.729827,234.513248 L130.703127,235.804395 L132.675439,236.858271 L134.613148,237.617537 L136.477699,238.050556 L136.960149,238.146452 L138.612145,238.259156 L137.849913,236.60716 L137.527621,236.12471 L136.931479,235.135094 L135.604741,233.291304 L133.441625,230.350138 C132.32843,228.748562 131.307178,227.084703 130.312619,225.407002 C129.54149,224.105969 128.798043,222.797027 128.106004,221.452494 L127.20833,219.475239 C126.666562,218.187058 126.19993,216.856366 125.788661,215.52073 C125.383324,214.209811 125.009623,212.895925 124.671513,211.566221 L124.238494,209.588967 C123.970576,208.282991 123.839089,206.953287 123.654215,205.634458 C123.376411,203.66017 123.019517,201.69379 122.883086,199.702695 C122.814871,198.716045 122.806962,197.725441 122.798064,196.736813 L122.79411,193.770932 L122.795098,188.827796 C122.798064,187.509956 122.792132,186.18915 122.883086,184.873287 C122.996778,183.211405 123.279526,181.577204 123.514819,179.930151 L124.064496,175.975642 L124.44314,173.998388 C124.879124,171.989497 125.481198,170.025095 126.100079,168.066625 C126.519257,166.740875 126.960185,165.418092 127.435714,164.112116 C127.922119,162.77648 128.433239,161.445788 129.034325,160.157607 C130.13961,157.789845 131.355621,155.480412 132.695211,153.237217 C133.500942,151.889718 134.32348,150.545185 135.260699,149.283696 C136.018976,148.261456 136.835582,147.280738 137.726335,146.371201 L139.615601,144.615399 L140.593354,143.860087 L141.579015,143.214514 L143.555281,142.296079 L145.532535,141.885799 C147.200349,141.724653 148.888925,142.110217 150.475671,142.584758 C153.244816,143.412239 155.805361,144.795329 158.384689,146.071647 C159.696597,146.721175 161.003562,147.388498 162.339198,147.988595 C164.295691,148.868473 166.280854,149.67025 168.270961,150.46906 L173.214097,152.432474 C174.196792,152.804198 175.180476,153.166035 176.179979,153.489316 C177.486944,153.910472 178.81467,154.2644 180.134487,154.642056 L186.066251,156.341506 C187.711326,156.806161 189.351459,157.295531 191.009387,157.710755 L195.952523,158.82296 C197.269374,159.119548 198.579305,159.454693 199.907031,159.702838 C201.21894,159.949007 202.540734,160.100267 203.86154,160.286128 L208.804676,160.992997 L211.770558,161.299471 C213.419588,161.497197 215.055766,161.806637 216.708751,161.966795 C218.683039,162.158588 220.665237,162.12893 222.645457,162.134861 L222.645457,152.248589 L222.649412,149.282708 C222.658309,148.29408 222.666218,147.304465 222.734434,146.316826 C222.869876,144.325731 223.24852,142.36726 223.466018,140.385063 C223.610357,139.073155 223.614312,137.748394 223.63013,136.430554 L223.634084,130.498791 L223.634084,113.692128 C223.633096,112.375277 223.652868,111.053482 223.595528,109.73762 C223.552028,108.744049 223.479858,107.758388 223.352326,106.771738 L222.927216,103.805856 L222.734434,101.828602 C222.666218,100.841952 222.658309,99.8513475 222.649412,98.8627203 L222.645457,95.8968387 L222.645457,89.9650755 L222.641503,86.9991939 C222.625685,85.6813538 222.62173,84.3567911 222.477391,83.0446851 C222.259893,81.0626853 221.885203,79.1037205 221.745806,77.1129219 L221.645955,74.1470402 C221.617285,73.1559415 221.583672,72.1686983 221.488763,71.1811586 C221.362219,69.8553107 221.121983,68.5446876 220.936121,67.2266498 C220.703793,65.5787071 220.512988,63.9251293 220.23815,62.2835138 C219.960346,60.6288485 219.613338,58.9853546 219.284125,57.3403778 C218.755209,54.693625 218.245077,52.0407428 217.549084,49.4313602 C217.10519,47.7669074 216.590116,46.1240067 216.050325,44.4882241 C215.503614,42.8277259 214.94504,41.1661402 214.288591,39.5450881 C213.606439,37.861456 212.81356,36.2304188 212.011783,34.6019521 C211.1932,32.9411573 210.350889,31.2949941 209.484852,29.6588161 L208.342987,27.6815617 C207.734982,26.6624848 207.049863,25.6831507 206.343983,24.730114 C205.407753,23.4668462 204.399353,22.2496484 203.345477,21.0830683 C201.768616,19.3389322 200.124529,17.6643954 198.406295,16.0590626 C196.367746,14.1533848 194.279765,12.2754874 191.997025,10.6620478 C190.131486,9.34282366 188.135447,8.20876939 186.066251,7.2400136 C184.459731,6.4876683 182.801804,5.86839222 181.123115,5.29864636 C179.835922,4.86157427 178.510173,4.50052762 177.168606,4.27640583 C175.859663,4.05782036 174.538857,3.99741523 173.214097,3.96894277 L169.259588,3.95450881 Z" id="Combined-Shape"></path>
            </g>
        </g>
    </g>
</svg>