<?xml version="1.0" encoding="UTF-8" standalone="no"?>
<svg width="193px" height="48px" viewBox="0 0 193 48" version="1.1" xmlns="http://www.w3.org/2000/svg" xmlns:xlink="http://www.w3.org/1999/xlink">
    <!-- Generator: Sketch 45.2 (43514) - http://www.bohemiancoding.com/sketch -->
    <title>Logo</title>
    <desc>Created with Sketch.</desc>
    <defs>
        <linearGradient x1="0%" y1="-0.776630478%" x2="100%" y2="100%" id="linearGradient-1">
            <stop stop-color="#EF0000" offset="0%"></stop>
            <stop stop-color="#DB1200" offset="54.8947704%"></stop>
            <stop stop-color="#FF6D00" offset="100%"></stop>
        </linearGradient>
    </defs>
    <g id="Page-1" stroke="none" stroke-width="1" fill="none" fill-rule="evenodd">
        <g id="Desktop" transform="translate(-24.000000, -16.000000)">
            <g id="Top-Nav">
                <g id="Logo" transform="translate(24.000000, 16.000000)">
                    <text id="Nawhas.com" font-family="RobotoSlab-Bold, Roboto Slab" font-size="24" font-weight="bold" letter-spacing="-1.12156844" fill="#DA0000">
                        <tspan x="57.4594047" y="32">Nawhas.com</tspan>
                    </text>
                    <g>
                        <g>
                            <circle id="Oval" fill="url(#linearGradient-1)" cx="23.9771041" cy="23.9771041" r="23.9771041"></circle>
                            <g id="Group" transform="translate(6.059574, 6.536170)" fill-rule="nonzero" fill="#FFFFFF">
                                <path d="M3.04289774,20.3278581 C2.88588186,20.3277234 2.72812557,20.3314255 2.57162126,20.3164152 L2.23516828,20.2719228 L1.89861434,20.2491718 C1.7857678,20.2377289 1.67385015,20.2174011 1.5620604,20.198554 L1.36012803,20.1629466 L1.22550646,20.1327241 L1.09088488,20.0963763 C0.999961466,20.0684423 0.909717892,20.0388929 0.821641725,20.0028143 C0.703767073,19.9544851 0.588591583,19.8997615 0.48612437,19.8230945 L0.297541754,19.6510481 L0.192472979,19.5197921 L0.111969949,19.385507 L0.057851402,19.2508855 C0.0168921142,19.1202352 0.0157922559,18.9825173 0.0141720853,18.8470207 C0.012560665,18.7123318 0.0137540853,18.577441 0.0255980916,18.443156 C0.0315880786,18.3752394 0.0447406067,18.307794 0.0589418368,18.2412236 C0.088236165,18.1039096 0.128599752,17.9680765 0.179747874,17.8373589 C0.206526125,17.7689038 0.23644779,17.7014584 0.268664752,17.6354265 C0.301780314,17.56751 0.335433016,17.4999972 0.371292838,17.4334942 C0.420408847,17.3424227 0.472776641,17.2531013 0.525756962,17.164251 C0.579740214,17.073718 0.633716735,16.9827138 0.692317508,16.8950079 C0.801253288,16.7320484 0.916092223,16.5727911 1.04378079,16.4238323 C1.12322771,16.3311454 1.20752774,16.2435067 1.29380671,16.1572143 L1.42749267,16.0314778 C1.51361009,15.952051 1.60531431,15.8782784 1.69668197,15.8051116 C1.78480526,15.7345026 1.87369588,15.6642301 1.96592513,15.5990059 C2.07574941,15.5213966 2.18729012,15.4466816 2.30247907,15.3771496 L2.50441143,15.2614423 C2.59332898,15.2121035 2.6827379,15.1637071 2.77365459,15.1181377 L3.04289774,14.9903145 C3.17832705,14.9256288 3.31343326,14.8599335 3.44676247,14.7910072 C3.53765896,14.743957 3.62835351,14.6961663 3.71600562,14.6433274 L4.05255956,14.4330485 C4.14249351,14.3769113 4.23398906,14.3230626 4.32180272,14.2636272 C4.39144919,14.2164424 4.45887441,14.1666997 4.52373508,14.1131203 C4.64156262,14.0157889 4.75148787,13.9082936 4.85763698,13.7984424 C4.94131775,13.7118807 5.02204358,13.6226939 5.09826632,13.5294684 C5.15203417,13.4637058 5.20281343,13.3957219 5.25345134,13.3275361 C5.31793507,13.2407052 5.37863594,13.1506433 5.43487411,13.0582929 C5.51396428,12.9283831 5.58334151,12.7924153 5.64719253,12.6544282 L5.76389597,12.385185 C5.8031045,12.2945174 5.84429198,12.2048594 5.88735069,12.1159419 L5.98816205,11.9140095 L6.09265532,11.7120772 C6.15444663,11.59812 6.2205189,11.4864514 6.28752679,11.3755232 C6.38421873,11.2153909 6.48436372,11.0576144 6.59158981,10.9043477 C6.70453731,10.7430711 6.82448514,10.5870446 6.9471927,10.4331722 C7.03819689,10.3190131 7.12987418,10.2051232 7.22767676,10.0966182 C7.3514613,9.95923693 7.48291927,9.82825013 7.62003134,9.70419635 C7.6858613,9.6446263 7.7539125,9.58761406 7.82196371,9.53053452 L8.15845034,9.24917542 C8.22562651,9.19216318 8.29367771,9.13622792 8.35755565,9.07551359 C8.4408191,8.99642341 8.52017852,8.91208299 8.58573922,8.81744402 C8.65574244,8.71654515 8.71322586,8.60379958 8.73146708,8.48115933 C8.75206418,8.34290297 8.71443745,8.20781022 8.67277207,8.0772946 C8.62848157,7.93870168 8.57146934,7.80502246 8.50974534,7.67342987 C8.44600203,7.53746207 8.37694116,7.40391747 8.30976499,7.26956514 C8.20799108,7.06595 8.10816918,6.86145983 7.99515437,6.66376804 L7.75546065,6.25990331 C7.71628577,6.19333294 7.67744745,6.12635871 7.6415708,6.05797095 C7.57318304,5.92758995 7.51415147,5.79296837 7.46514922,5.65410622 C7.43398433,5.56576081 7.40618497,5.47607591 7.38464552,5.38486306 C7.36364455,5.29595898 7.3495766,5.2056279 7.33429705,5.11561991 C7.31915212,5.02666197 7.30232442,4.93664053 7.29754536,4.84637676 L7.30367064,4.64444439 L7.34035502,4.37520124 C7.35105743,4.28557693 7.35576919,4.19505738 7.38195309,4.0386473 L7.42691669,3.83671493 C7.44899463,3.74643097 7.47161106,3.65603932 7.4999489,3.56747178 C7.54410478,3.42933658 7.60246323,3.29694972 7.65900429,3.16360705 C7.71668964,3.02769311 7.77410574,2.89188013 7.84013762,2.75974232 C7.90899656,2.62206483 7.98640397,2.48939527 8.06286902,2.35587759 L8.25611829,2.01932365 C8.31064003,1.92751173 8.3690658,1.83730855 8.43065517,1.7500805 C8.4795228,1.68095905 8.5300732,1.61343286 8.58405645,1.54820198 C8.65930992,1.45714395 8.74008286,1.37077074 8.82119236,1.28492929 C8.91495629,1.18568627 9.00999912,1.08731828 9.11231152,0.996731422 C9.21549896,0.905350296 9.32501361,0.822335901 9.43748994,0.742862053 C9.52573438,0.680505339 9.61586353,0.620282376 9.70666578,0.561701797 C9.81692085,0.490581218 9.92731055,0.419992395 10.0432197,0.358315519 C10.2359978,0.255733878 10.4400841,0.178541866 10.6490168,0.115875522 C10.7813498,0.0761823502 10.9159714,0.0399354907 11.0528815,0.0201999676 C11.1645501,0.00411268917 11.2768245,0.00111735909 11.3894355,0.000309629626 C11.5015753,-0.000491368755 11.6143208,0.000302898547 11.7259894,0.0114764894 C11.8163205,0.0205163283 11.906315,0.035943961 11.9952326,0.0543803859 C12.0854964,0.073092785 12.1758274,0.0919263436 12.2644757,0.11748425 C12.3776925,0.150123251 12.4896976,0.186572043 12.6010297,0.225094007 L12.802962,0.298065633 L12.9375836,0.352136389 L13.0722052,0.4119151 C13.1638825,0.453829528 13.2533385,0.501875969 13.3414484,0.550743601 L13.4760699,0.627558673 C13.5449289,0.670004856 13.612307,0.713413583 13.6780023,0.760618639 C13.7469958,0.810186303 13.8143739,0.862675256 13.8799347,0.916692164 C13.9481205,0.97288321 14.0167775,1.02868385 14.081867,1.0884491 C14.1958242,1.19303661 14.3066851,1.3006329 14.412363,1.4135804 C14.5343975,1.54389409 14.6474796,1.68207641 14.7637253,1.81739128 C14.8405942,1.90679347 14.919819,1.99433788 14.9931878,2.08663444 C15.1142799,2.23887125 15.229314,2.39569865 15.3368094,2.55780996 C15.4093704,2.66717652 15.4791717,2.77850184 15.540963,2.8943639 C15.6220052,3.04628435 15.6875659,3.20562918 15.7509053,3.36553942 C15.8209759,3.54235813 15.8858635,3.72094711 15.9377601,3.90402572 C16.0128116,4.16892733 16.0616119,4.44042539 16.1065755,4.71175518 C16.1214512,4.80135257 16.1378077,4.89088938 16.1493179,4.98099833 L16.1634532,5.11561991 L16.1796751,5.31755228 L16.2166287,5.58679543 C16.2249079,5.65404564 16.2302255,5.72103333 16.2331871,5.78872779 C16.2381008,5.90073295 16.2357449,6.01320927 16.2358122,6.12528174 L16.2358122,6.66376804 L16.2358796,6.9330112 C16.2361488,7.02280379 16.2364854,7.11259638 16.241601,7.20225435 C16.2479282,7.31452874 16.2646886,7.42619734 16.2646886,7.53880829 C16.2646886,7.62893744 16.2538515,7.71839347 16.2462454,7.80805144 L16.2384374,7.94267302 C16.2313697,8.12219089 16.2414664,8.30204532 16.2243694,8.48115933 L16.187685,8.75040248 C16.1794058,8.81764596 16.1740883,8.88462019 16.1711266,8.95233484 C16.1672226,9.0419255 16.1685688,9.13192003 16.1685015,9.221578 L16.1685015,9.62544273 L16.1685015,10.9043477 L16.3812036,10.8787696 L16.5067382,10.8434988 C16.5742509,10.8203438 16.6408213,10.7955062 16.7069878,10.7687165 C16.8215507,10.722272 16.9344309,10.6715197 17.0435417,10.6133632 C17.1832116,10.5388501 17.3166889,10.4530962 17.4474064,10.3639094 C17.5857974,10.2695397 17.7205536,10.1701216 17.8512712,10.0653187 C17.9210725,10.0093835 17.9876428,9.94940955 18.0532035,9.88862791 C18.1451501,9.80341245 18.2341349,9.71462952 18.3221774,9.62537542 C18.4304132,9.51565883 18.5385143,9.40607687 18.6388074,9.28888879 C18.7489278,9.16019056 18.849894,9.02368428 18.9470235,8.88502406 C19.0238251,8.77524016 19.0983381,8.66357156 19.1669951,8.54847011 C19.2322866,8.43895546 19.2913182,8.32594065 19.3483304,8.21191617 C19.4035926,8.10139186 19.4572393,7.9899925 19.5035491,7.87536223 C19.5654077,7.72223019 19.6162273,7.56391521 19.658162,7.40418671 C19.6815188,7.31520185 19.701712,7.22574581 19.7167897,7.13494356 L19.7542145,6.86570041 L19.7841005,6.66376804 C19.792447,6.59652456 19.7976972,6.52955033 19.8006589,6.46183568 C19.8045629,6.37224502 19.8032167,6.28225049 19.803284,6.19259252 L19.803284,5.78872779 C19.803486,5.65403891 19.8018705,5.5191077 19.8147269,5.38486306 C19.8233426,5.29458584 19.8397665,5.20535865 19.8523536,5.11561991 L19.888836,4.84637676 L19.9095678,4.71175518 L19.9291552,4.5771336 C19.9412038,4.4871862 19.9520409,4.39712436 19.9688686,4.30789045 C19.9902061,4.19470736 20.0190824,4.08287049 20.0476222,3.97133651 C20.0941339,3.7894291 20.1448863,3.60855829 20.2115913,3.4328502 C20.2822003,3.24686376 20.3694351,3.06719108 20.4678434,2.8943639 C20.5330003,2.77982786 20.6043497,2.66889968 20.675228,2.55780996 C20.7329133,2.46729714 20.7889832,2.37488616 20.8529285,2.2885668 C20.9385478,2.17311534 21.02935,2.06190445 21.1219697,1.95206671 C21.2170125,1.83938845 21.3126611,1.72779389 21.4213681,1.62787103 L21.6207426,1.46468275 L21.7552969,1.36963992 L21.9572293,1.23480968 C22.1509497,1.10872311 22.3503916,0.989549361 22.5630263,0.897791294 L22.6976479,0.844346529 C22.7866328,0.813740313 22.87656,0.786789073 22.9668911,0.760470555 C23.0554721,0.734643406 23.1449281,0.709879767 23.2361342,0.694970427 C23.3477355,0.676722472 23.4598753,0.675167593 23.5726882,0.673363664 L23.7746205,0.673107883 C23.9540038,0.673107883 24.1350698,0.667648978 24.3131068,0.693307851 C24.4269967,0.709718221 24.5390692,0.738069525 24.6496608,0.769247882 C24.7865709,0.807837157 24.920856,0.85402582 25.0535255,0.905316641 C25.1217787,0.93170247 25.1886183,0.961911551 25.2554579,0.991588878 C25.3230379,1.02160949 25.3910891,1.05148202 25.4573902,1.08434988 L25.5920118,1.15233377 L25.7266334,1.22722375 C25.8182434,1.2815301 25.9091129,1.33685957 25.9958092,1.39882588 C26.1543935,1.51217051 26.2998521,1.64222169 26.4385123,1.77890971 C26.5406901,1.87968069 26.6386946,1.98486053 26.7389203,2.08761718 C26.8472234,2.19867998 26.9575458,2.30781096 27.061339,2.42318838 C27.1397561,2.51032893 27.2149422,2.6005725 27.2877052,2.69243153 L27.4445393,2.8943639 C27.5100327,2.98233237 27.5722952,3.07260286 27.6334807,3.16360705 C27.707388,3.27358615 27.7816318,3.38414412 27.8459136,3.50016099 C27.906224,3.60893523 27.955159,3.72289239 28.0048343,3.83671493 C28.0534327,3.94791236 28.1029735,4.05891458 28.1437638,4.17326888 C28.1832079,4.28374607 28.2134978,4.39705705 28.2454704,4.50982282 C28.2707793,4.59933943 28.2980401,4.68857335 28.3197815,4.77906597 C28.3465712,4.89059995 28.3699954,5.00275991 28.3905252,5.11561991 L28.4244498,5.31755228 L28.4673941,5.58679543 L28.4968089,5.85603858 C28.5129635,5.99086209 28.538407,6.12433938 28.5476285,6.25990331 C28.555302,6.37184115 28.5534846,6.48431748 28.5536865,6.59645725 L28.5536865,7.00032198 L28.5536865,7.40418671 L28.5546962,7.60611908 L28.5597445,7.74074066 L28.5742163,7.87536223 L28.6024195,8.00964725 L28.6502102,8.14090329 L28.776014,8.31194 L28.8941445,8.39244371 L29.0251986,8.44285949 L29.1594836,8.47113002 C29.2494781,8.48513066 29.3396746,8.49623694 29.4287268,8.51555514 C29.496778,8.5302962 29.5636176,8.54968171 29.6306591,8.5683268 L29.7652807,8.60635739 C29.8554098,8.63220474 29.9467506,8.65603275 30.0345239,8.68914966 C30.102777,8.71492969 30.170357,8.74131552 30.2364562,8.77241311 C30.3055844,8.80499153 30.3728952,8.8410028 30.4383886,8.8803123 C30.5079206,8.92204499 30.5742218,8.96788364 30.6403209,9.01473195 L30.7749425,9.11845787 L30.9768749,9.29494676 L31.178538,9.49109039 C31.2663113,9.57886366 31.3523345,9.66805046 31.4355979,9.7600643 L31.5468626,9.89468588 C31.5970092,9.95795802 31.6412997,10.026817 31.6816862,10.0966182 C31.7313615,10.1825068 31.7733634,10.2735783 31.8097113,10.3658614 C31.8447129,10.454577 31.8777625,10.5436965 31.9052253,10.6351046 C31.931813,10.7238202 31.9527467,10.8138147 31.9723341,10.9043477 L32.0124514,11.1062801 C32.0245,11.1733216 32.0356063,11.2404305 32.0423374,11.3082124 C32.0535783,11.420083 32.0534436,11.532492 32.0537802,11.6447664 C32.0542514,11.7795899 32.0547225,11.9143461 32.041395,12.0486311 C32.0345966,12.1168169 32.0194517,12.1847335 32.0007393,12.2505635 C31.9812865,12.3191532 31.9565161,12.3874736 31.9273032,12.4524958 C31.8964749,12.5210182 31.8649061,12.5887329 31.8284237,12.6544282 C31.7899219,12.7238929 31.7474488,12.7909345 31.7024179,12.8563606 C31.6388765,12.9487783 31.5695464,13.0363496 31.4967834,13.1216324 L31.3854514,13.2386185 L31.2902739,13.3217474 L31.1788073,13.3948469 L31.2451084,13.2823705 L31.3130923,13.1821448 C31.4174913,13.0314359 31.527006,12.8829483 31.6151158,12.721739 L31.7109663,12.5198066 L31.7601705,12.385185 L31.8004224,12.2505635 L31.8273467,12.1159419 L31.8339432,11.9813203 L31.8196733,11.8466987 C31.8068842,11.7786475 31.7915374,11.7117406 31.7741039,11.6447664 C31.7386311,11.508462 31.6949464,11.374177 31.6497135,11.2409016 C31.6032018,11.1036549 31.5549399,10.9668794 31.489985,10.8370369 C31.4436752,10.74435 31.3906343,10.6542881 31.3336221,10.5677938 C31.2572916,10.4518846 31.1786053,10.3379274 31.0895531,10.2312398 C31.0316659,10.1618424 30.9707496,10.0942624 30.9068717,10.0303171 C30.8418494,9.96516028 30.7768272,9.89973419 30.7075644,9.83908717 L30.5730102,9.72405303 C30.5066417,9.67101213 30.4396675,9.61898089 30.3710778,9.56883435 C30.1197393,9.38521052 29.8507654,9.22319346 29.5633483,9.10257252 C29.4535644,9.05653195 29.3417612,9.01648203 29.2267944,8.98524982 C29.1162701,8.95522921 29.0032553,8.93503597 28.8919232,8.90851552 C28.7782353,8.88138927 28.6661628,8.84934934 28.5536865,8.81771327 C28.5532826,8.95253678 28.555302,9.08749491 28.5422437,9.22191455 L28.5055593,9.49082115 L28.4924337,9.62544273 L28.4873854,9.7600643 L28.4863757,9.96199667 L28.4863757,10.3658614 L28.4863757,11.442834 L28.4863757,11.7120772 L28.4853661,11.9140095 C28.4837506,11.9813203 28.4822698,12.0489004 28.4749329,12.1159419 L28.4578359,12.2505635 L28.4382485,12.385185 C28.4299693,12.4524285 28.4246517,12.5194028 28.4216901,12.5871174 L28.4191322,12.7890498 L28.4190649,13.0582929 L28.4190649,13.7987116 L28.4189976,14.0679548 L28.4180553,14.2025763 C28.4164398,14.2698871 28.414959,14.3374672 28.4076221,14.4045087 L28.3905252,14.5391303 L28.3709377,14.6737519 C28.3626585,14.7409953 28.3573409,14.8079696 28.3543793,14.8756842 L28.3518215,15.0776166 L28.3517541,15.3468597 L28.3520234,15.5487921 C28.3526292,15.6161029 28.3531677,15.6835483 28.3578121,15.7507245 C28.3685818,15.9087702 28.4022372,16.0638543 28.413007,16.2219 C28.426873,16.4234958 28.4112569,16.6261013 28.4251229,16.8276971 C28.4344118,16.9633283 28.4588456,17.0970749 28.4776253,17.2315618 L28.5048862,17.4334942 C28.5230601,17.5462397 28.543388,17.6587834 28.5695719,17.7700481 C28.601881,17.9072275 28.6426714,18.0421183 28.6927506,18.1739128 C28.7459261,18.3139193 28.8081213,18.4503583 28.8871442,18.5777776 C28.9450314,18.6710703 29.0104575,18.7595167 29.0799896,18.8443956 C29.1497235,18.9294764 29.2238327,19.0110571 29.3056153,19.0847624 C29.3862536,19.1575254 29.4737577,19.2205283 29.5636176,19.2812426 L29.6979699,19.3620156 L29.8325915,19.4308072 L29.9672131,19.4888291 C30.0545152,19.524975 30.1457213,19.5510243 30.2364562,19.576737 C30.30269,19.5955167 30.3706066,19.6112674 30.4383886,19.6234507 C30.5053628,19.6355666 30.5724717,19.6439131 30.6403209,19.6486922 C30.7299116,19.6549521 30.8198388,19.654279 30.9095641,19.6546829 L31.246118,19.6547502 L31.7846043,19.6546829 C31.9194952,19.6540098 32.0549918,19.6551541 32.1884691,19.6328069 C32.2798771,19.6175946 32.3698717,19.5928243 32.4575776,19.5632748 C32.5676307,19.5262539 32.6755299,19.4843193 32.8164114,19.4279128 L32.9288877,19.385507 L32.8432684,19.240183 C32.7938623,19.1530156 32.7448601,19.0652423 32.6900018,18.9813057 C32.5804198,18.8137692 32.4548179,18.6565985 32.3170327,18.5114764 C32.2540298,18.4451753 32.1884691,18.3814993 32.120889,18.3199773 L31.9192259,18.145575 L31.582672,17.8556001 C31.4928794,17.7785966 31.4011348,17.7036797 31.3136981,17.6239837 C31.246118,17.5624616 31.1805573,17.4987856 31.1175544,17.4324845 C31.0366469,17.3473364 30.9586337,17.2582842 30.8373396,17.0969402 C30.7754137,17.0096381 30.715911,16.9213264 30.6638124,16.8276971 C30.5691061,16.6574008 30.4992375,16.4745174 30.4403406,16.2892108 C30.4190704,16.2224385 30.3994156,16.1550604 30.3815783,16.0872784 C30.3581541,15.9984955 30.3370858,15.9089721 30.3239602,15.8180353 C30.307873,15.7062993 30.3053152,15.5941596 30.3043055,15.4814813 C30.3034978,15.3918907 30.3058536,15.3013576 30.3154791,15.2122382 C30.3301528,15.0751261 30.3625293,14.9409084 30.3998868,14.8083734 C30.4450523,14.6482411 30.4987664,14.490128 30.5644617,14.3371979 C30.5938092,14.2688775 30.6258491,14.2019705 30.6586968,14.1352655 L30.7303828,14.000644 L30.8116942,13.8663589 L30.903035,13.7353722 L30.9976066,13.618386 L31.0788507,13.5352572 L31.1788073,13.4621577 C31.1411805,13.5960388 31.1013998,13.7295834 31.0752159,13.8663589 C31.0538784,13.9776237 31.0418298,14.0904366 31.0259445,14.2025763 C31.0101264,14.3144469 30.9888562,14.4257116 30.9889235,14.5391303 C30.9889235,14.6297306 31.0019145,14.7192539 31.0167229,14.8083734 C31.035368,14.921119 31.0523303,15.03548 31.0861203,15.1449274 C31.1222662,15.2620481 31.1749032,15.3735148 31.2323866,15.4814813 C31.2937741,15.5967174 31.3627676,15.7068378 31.4404443,15.8117753 C31.5760082,15.9947934 31.7374195,16.1570124 31.9030713,16.3126349 L32.1274182,16.5130191 L32.525023,16.8758243 L32.7266861,17.048813 C32.7940642,17.1084504 32.8602307,17.1692993 32.9226278,17.2341869 L33.0413641,17.3664526 L33.1450227,17.500805 L33.2339402,17.6354265 C33.2731824,17.7017277 33.3110784,17.7683653 33.3455415,17.8373589 C33.3995921,17.94546 33.448527,18.0574652 33.4815766,18.1739128 C33.500289,18.2397428 33.515434,18.3076594 33.5222323,18.3758452 C33.5333386,18.487783 33.535156,18.5999901 33.5343483,18.7123991 C33.5338771,18.7798446 33.532127,18.8469534 33.5229728,18.9816423 L33.5031834,19.1162639 C33.4840671,19.20747 33.4621238,19.2978684 33.4297473,19.385507 L33.3730043,19.5201286 L33.301251,19.6547502 L33.2183914,19.7893718 C33.1753799,19.8580961 33.1287335,19.9249357 33.082289,19.9913041 C32.9520427,20.1773511 32.8123055,20.355994 32.6649621,20.5287808 L32.496214,20.7200107 L32.3789586,20.8348429 L32.1874594,20.9832632 L32.0537802,21.0598629 C31.9680936,21.101259 31.877224,21.1268371 31.7846043,21.1475015 C31.6956195,21.1673582 31.6057596,21.1805511 31.5153612,21.1916574 L31.246118,21.2140719 C31.1114965,21.2284091 30.9781538,21.2581605 30.8422533,21.2581605 C30.7515184,21.2581605 30.6625335,21.2441598 30.5730102,21.2311688 L30.3710778,21.2028983 L30.1691454,21.1736181 C30.0565345,21.1538288 29.9441928,21.1319527 29.8325915,21.1069804 C29.672863,21.0711711 29.5139422,21.0298423 29.361416,20.9696664 C29.2691329,20.9332513 29.1802153,20.8901051 29.0921728,20.8445357 L28.9575512,20.7675321 L28.7556189,20.629747 C28.687433,20.5771099 28.6205261,20.523194 28.5546962,20.4675953 C28.4478739,20.3775334 28.3423979,20.285385 28.2484321,20.1817937 C28.1930353,20.1208101 28.143158,20.0557206 28.0448169,19.9237241 C27.9990456,19.8575576 27.9536781,19.7913238 27.9125512,19.722061 C27.8611258,19.635432 27.8163641,19.5456394 27.7772566,19.4528178 C27.7493899,19.3868532 27.7248888,19.3189367 27.7026089,19.2508855 C27.6590588,19.117812 27.6194128,18.9836616 27.5887864,18.8470207 C27.5687951,18.7578339 27.5537174,18.6679067 27.5387071,18.5777776 L27.4956955,18.3085344 L27.4662807,18.0392913 C27.4501261,17.9044678 27.4246827,17.7709905 27.4154611,17.6354265 C27.4108166,17.5682504 27.4102781,17.500805 27.4096723,17.4334942 L27.4091339,17.164251 L27.406778,17.0296294 C27.4038163,16.9619148 27.3984988,16.8949406 27.3902195,16.8276971 L27.3706321,16.6930755 L27.3535352,16.5584539 C27.3461983,16.4914124 27.3447174,16.4238323 27.343102,16.3565216 L27.3420923,16.0872784 L27.3420923,15.6834137 L27.3421596,15.4141705 C27.3424289,15.3244452 27.3419577,15.234518 27.3481503,15.1449274 L27.3612759,15.0103058 L27.3902195,14.8083734 C27.3989026,14.7411973 27.4038163,14.6740884 27.406778,14.6064411 L27.4093358,14.4045087 L27.4094031,14.2025763 L27.4094031,13.3275361 L27.4094704,13.0582929 L27.4120282,12.8563606 L27.4285867,12.6544282 L27.4652711,12.385185 L27.4740888,12.2505635 L27.4766466,12.0486311 L27.4767139,11.779388 L27.4767139,11.0389693 C27.4767812,10.9268968 27.4744253,10.8144205 27.479339,10.7024153 L27.4958975,10.500483 L27.5325818,10.2312398 L27.5413996,10.0966182 L27.5439574,9.89468588 L27.5440247,9.69275352 L27.5440247,8.95233484 L27.5440247,8.21191617 L27.5439574,7.94267302 L27.5413996,7.74074066 L27.5248411,7.53880829 L27.4881567,7.26956514 L27.479339,7.13494356 L27.4767812,6.9330112 L27.4766466,6.59645725 C27.4764447,6.50673197 27.4768485,6.41680476 27.4706559,6.3272141 C27.4629825,6.21419929 27.4442028,6.10273262 27.4285867,5.99066016 L27.4151918,5.85603858 L27.3980276,5.58679543 L27.3525255,5.25024149 L27.3229087,4.98099833 C27.2988788,4.82296607 27.2658965,4.66648868 27.2343951,4.50982282 C27.1980472,4.32919432 27.1616321,4.14872736 27.1113509,3.97133651 C27.0528579,3.76501548 26.9780083,3.56417355 26.8975719,3.36553942 C26.8609548,3.27518814 26.8243377,3.18451378 26.782807,3.09629626 C26.7400646,3.00558151 26.6968511,2.9146581 26.6479835,2.82705311 L26.5711819,2.69243153 L26.4428202,2.49049917 C26.3971835,2.42142484 26.348787,2.3536496 26.2975635,2.2885668 C26.1652978,2.1203908 26.0138485,1.96794532 25.8611877,1.81837402 C25.7738856,1.73278162 25.686045,1.64671805 25.524701,1.51231187 L25.3900795,1.40843786 C25.3237783,1.36084913 25.2571407,1.31421622 25.1881471,1.27059883 C25.0392556,1.17647142 24.8832292,1.09464843 24.7169716,1.03573802 C24.6508051,1.01228695 24.5832923,0.992571615 24.5150392,0.976268943 C24.426189,0.955059313 24.3357906,0.940829812 24.2457961,0.925832969 C24.1119822,0.903546367 23.9780337,0.880297221 23.8419313,0.880337607 L23.639999,0.894567108 L23.5053774,0.916436383 L23.303445,0.956533419 C23.1675445,0.98542321 23.0317114,1.01675638 22.8995803,1.06009107 C22.7364862,1.11357622 22.5802579,1.18482469 22.4284048,1.26441297 C22.3124283,1.3252148 22.1984711,1.39025048 22.0918508,1.46660784 C21.9461903,1.57090591 21.8156074,1.69285959 21.6882553,1.81837402 C21.599809,1.90552803 21.5141223,1.99519273 21.4301858,2.08663444 L21.3129304,2.22125601 L21.1443842,2.42318838 C21.0721597,2.5114059 20.9987236,2.59853971 20.933836,2.69243153 C20.889007,2.75736625 20.8488225,2.82461646 20.8119362,2.8943639 C20.7772038,2.96001211 20.7481256,3.02848064 20.7180376,3.09629626 L20.6595446,3.23091784 C20.611552,3.34215565 20.5640306,3.4532723 20.5233748,3.56747178 C20.4684492,3.7219635 20.4247645,3.87988807 20.3841761,4.0386473 C20.3556364,4.1501005 20.3261542,4.26194411 20.3056244,4.37520124 L20.285162,4.50982282 L20.2640264,4.71175518 C20.2478045,4.84655177 20.2224283,4.98003579 20.2132067,5.11561991 C20.2055333,5.22755102 20.2073507,5.340061 20.2071488,5.45217385 L20.2071488,5.92334937 L20.2010908,6.25990331 L20.1879652,6.39452489 L20.1681758,6.52914647 L20.1485884,6.66376804 C20.1362032,6.75369526 20.1257027,6.84375709 20.108875,6.9330112 C20.0875375,7.04616063 20.0586612,7.15803116 20.0301214,7.26956514 L19.9764747,7.4714975 C19.9434924,7.58451232 19.9076157,7.69638285 19.8703256,7.80805144 C19.840103,7.89851714 19.8086016,7.98884822 19.7727922,8.0772946 C19.7075681,8.23836931 19.6281414,8.3930495 19.5506666,8.54847011 L19.4158431,8.81771327 L19.3111075,9.01964563 C19.2215842,9.18253774 19.1208873,9.33863146 19.0143343,9.49082115 C18.9172048,9.62948138 18.8162386,9.76598765 18.7061182,9.89468588 C18.6058251,10.011874 18.4976567,10.1213886 18.3894882,10.2312398 L18.1878251,10.4331722 C18.0328084,10.5881889 17.8794744,10.7450231 17.7166496,10.8919625 C17.6317707,10.9684949 17.5402953,11.0371519 17.4474064,11.1035876 C17.3813072,11.1508398 17.3133907,11.1960054 17.2454741,11.2406324 C17.1565565,11.2991255 17.0677063,11.3578205 16.9762309,11.4123422 C16.8881884,11.4647773 16.7978573,11.5127699 16.7069878,11.5600894 L16.4414467,11.6983458 L16.3219027,11.7770994 L16.2262541,11.8729499 L16.1613665,11.988388 L16.1243456,12.1169516 L16.1075179,12.2506308 L16.1022003,12.385185 L16.1011907,12.5871174 L16.1011907,12.9236714 L16.1011907,13.2602253 C16.1011234,13.3499506 16.1020657,13.4398105 16.0985656,13.5294684 L16.0907575,13.66409 L16.0738625,13.8660224 C16.0688142,13.9562188 16.0766222,14.0456076 16.0856419,14.1352655 C16.0968828,14.2479438 16.1116238,14.3610932 16.1355865,14.4718195 C16.1648667,14.6074507 16.2094937,14.7393126 16.2426106,14.8740014 L16.2718235,14.9995361 L16.2905359,15.0997618 L16.303123,15.2122382 L16.4155994,15.1833618 L16.5158251,15.1449274 L16.6413597,15.0840111 L16.9762309,14.8945985 L17.3800956,14.6636552 L17.6493388,14.5107924 C17.7388622,14.4595689 17.8273758,14.4062588 17.918582,14.3579969 C18.0503092,14.2883976 18.1835172,14.2208176 18.3224467,14.1664978 C18.4319613,14.1236208 18.5447742,14.0889557 18.6590006,14.0612237 C18.7477162,14.0396169 18.8373742,14.0218469 18.9282438,14.012356 C18.9954873,14.0052884 19.0626634,14.003673 19.1301761,14.002596 C19.2197668,14.0012498 19.3111749,14.0073077 19.3994193,14.0227892 C19.5155304,14.0431171 19.6294203,14.0793303 19.7359732,14.1298807 C19.9305014,14.2220965 20.105846,14.3594778 20.2254573,14.5401399 C20.3182116,14.6801464 20.3642521,14.8457982 20.3888206,15.0103058 C20.4020808,15.099156 20.4078695,15.189689 20.4078022,15.2795489 C20.4078022,15.3694088 20.4072637,15.4594034 20.3966959,15.5487921 C20.3858589,15.6404694 20.3647906,15.7295216 20.338876,15.8180353 C20.3188847,15.8862211 20.2951913,15.9535319 20.270017,16.0199676 C20.2441697,16.0882208 20.2162357,16.1557335 20.1854074,16.2219 C20.1314914,16.3374053 20.0692963,16.4489393 20.0042067,16.5584539 C19.9498196,16.649862 19.8941536,16.7412027 19.8322277,16.8276971 C19.74957,16.9430678 19.662941,17.0554768 19.5717349,17.164251 C19.5141842,17.232908 19.455018,17.2999496 19.394371,17.3659141 L19.2096702,17.5618558 C19.0781449,17.7012565 18.9481678,17.8418687 18.8097768,17.9746056 C18.6730013,18.1058616 18.5325237,18.2332136 18.3895555,18.357604 L18.1917964,18.5280349 L18.0748103,18.6403093 L17.9916815,18.7355541 L17.918582,18.8470207 L18.0310583,18.8708487 L18.131284,18.8985808 C18.2872431,18.9464388 18.4400386,19.002576 18.5916898,19.0626845 C18.7049739,19.1075808 18.8175175,19.1540925 18.9282438,19.2051141 C19.0205942,19.2476545 19.1101175,19.296926 19.1974869,19.3487553 C19.3613214,19.4458848 19.5195691,19.5541879 19.6676528,19.6740011 C19.8180251,19.7956317 19.9578296,19.9297821 20.0907684,20.0700577 C20.1699932,20.1536577 20.2478045,20.2390078 20.3208367,20.3281273 C20.3743488,20.3934188 20.4248318,20.4607969 20.4734975,20.5297904 C20.5351542,20.6172271 20.5921665,20.7076928 20.6477652,20.7990336 L20.7238937,20.9336552 L20.7911372,21.0682767 L20.8489571,21.2028983 C20.8849011,21.2899985 20.9122966,21.3812719 20.936865,21.4721415 C20.966751,21.5826658 20.9909829,21.6947382 21.0031661,21.8086954 C21.0103684,21.8758043 21.012455,21.9432497 21.0138686,22.0106278 L21.0148782,22.2798709 C21.0148782,22.4595907 21.0186476,22.6397817 20.9954254,22.8183572 L20.9734148,22.9529788 C20.9555774,23.043108 20.9378074,23.1330352 20.9155948,23.222222 L20.8604673,23.4241543 L20.7836657,23.6933975 C20.755799,23.7843344 20.7247687,23.8737904 20.6908441,23.9626406 L20.5851661,24.2318838 L20.5373082,24.3665054 L20.5029124,24.5011269 L20.4947004,24.7020496 L20.5266058,24.8316229 L20.6402264,25.0099965 L20.7529719,25.1191073 C20.8144267,25.1732252 20.8807951,25.2209485 21.0149455,25.3102026 L21.1493652,25.3816194 L21.2824386,25.4361411 L21.508199,25.4973939 L21.6206753,25.5107888 L21.6206753,24.164573 L21.6207426,23.7607083 C21.6212811,23.6484339 21.6209446,23.5360249 21.6321855,23.4241543 C21.6434937,23.3109376 21.6650331,23.1987305 21.6889958,23.0876004 C21.718276,22.9513634 21.7554988,22.8173476 21.7950103,22.6837357 C21.8150016,22.6162902 21.8343198,22.5483064 21.85734,22.4818033 C21.9046595,22.3450951 21.9567581,22.2102716 22.0152512,22.0779386 C22.055503,21.9867998 22.0985146,21.8970072 22.1446898,21.8086954 C22.1927497,21.7167489 22.2433001,21.6258793 22.3008508,21.5394523 L22.45055,21.3375199 C22.5095143,21.268661 22.5696901,21.2014848 22.6330296,21.1365972 C22.7574199,21.0092452 22.8892817,20.8885569 23.0342019,20.784831 C23.1810067,20.6796916 23.3409371,20.5945434 23.5053774,20.5207035 C23.5718131,20.4908848 23.6392585,20.4628835 23.7073097,20.4368342 C23.7735436,20.4114581 23.8404505,20.3864858 23.9092421,20.3689176 L24.0438637,20.3419933 L24.1784853,20.3307524 L24.4477284,20.3278581 L24.6496608,20.3281273 C24.7170389,20.3292043 24.7843497,20.3290024 24.8515932,20.334118 C24.9196444,20.3393682 24.9868878,20.3482532 25.0535255,20.3634655 C25.2176965,20.4010922 25.3706266,20.4739898 25.524701,20.5398871 C25.6370427,20.587947 25.7501922,20.6341895 25.861255,20.685211 C25.974741,20.7373096 26.086073,20.7939853 26.1978089,20.8497186 L27.0055384,21.2535833 C27.1403619,21.3210288 27.2760604,21.3870606 27.4094031,21.4574004 L27.6113355,21.567992 L27.8805786,21.7205856 C28.0801551,21.8285521 28.2857896,21.9247392 28.4863757,22.0306864 L28.6883081,22.1398645 L28.9575512,22.2852558 L29.1594836,22.3944339 L29.4960375,22.5691727 L29.6979699,22.6783508 L29.9672131,22.8237421 L30.1691454,22.9329202 L30.5056994,23.1042262 L30.8422533,23.2721666 L31.0441857,23.3661997 L31.3134288,23.4820416 L31.582672,23.6054896 L31.8519151,23.7217353 L32.1884691,23.8667901 C32.3185808,23.9213118 32.4497022,23.9736123 32.5815641,24.0238935 L32.6817898,24.0605105 L32.7942662,24.0972622 L32.6848861,23.9847859 L32.5966417,23.8845601 L32.5033489,23.7590255 L32.4288359,23.6259521 C32.3787567,23.5202741 32.3506208,23.4067208 32.3355431,23.2912155 C32.3209367,23.1792777 32.324033,23.0655225 32.3230907,22.9529788 L32.2106143,23.0518584 L32.1103886,23.1281215 L31.9848539,23.2084906 L31.7846043,23.2993601 L31.582672,23.3441218 L31.3807396,23.3529395 L31.246118,23.3423717 L31.1114965,23.3128896 L30.9769422,23.2587717 L30.843263,23.178268 L30.7149013,23.0731959 L30.6012134,22.9500844 L30.5117573,22.818088 C30.4521873,22.7147659 30.4132817,22.5991933 30.3934923,22.4818033 C30.3551251,22.2538217 30.398406,22.0154742 30.5056994,21.8113878 L30.6268588,21.6289083 L30.729777,21.5252497 L30.8485132,21.4373418 L30.9778845,21.3655885 L31.1115638,21.3138938 C31.2204726,21.2809115 31.3347663,21.2722957 31.4480504,21.2722957 C31.5854317,21.2722957 31.7234862,21.2858925 31.8518478,21.3381257 C31.9979795,21.3976284 32.1268124,21.4942194 32.2292594,21.6138307 L32.3599097,21.8089647 L32.4161815,21.943317 L32.4638375,22.1451147 L32.4762227,22.2781882 C32.4811364,22.3910684 32.4670684,22.5042178 32.4577122,22.6164249 L32.5701886,22.5069775 L32.6704143,22.41806 C32.7517931,22.3525666 32.8350565,22.2899002 32.9290224,22.2431865 C33.0141032,22.2009154 33.1042324,22.1736545 33.1981309,22.1596539 C33.2651051,22.1496246 33.3325505,22.1486822 33.4000633,22.147336 L33.5346848,22.1523843 L33.6693064,22.1717698 L33.8709695,22.2433212 L34.002966,22.3238249 L34.1260774,22.428897 L34.2312169,22.5520084 L34.3126629,22.6840049 L34.3943782,22.885668 L34.4285721,23.0202896 L34.4450633,23.1549112 C34.4495731,23.2692722 34.4284375,23.3826236 34.3943782,23.4914651 C34.3490781,23.6361833 34.2803538,23.7726896 34.1812723,23.8882622 L34.002966,24.0533083 L33.8709695,24.133812 L33.7366172,24.1879972 C33.6503248,24.2155273 33.5597918,24.224345 33.470403,24.2352493 L33.3106072,24.2597505 L33.1981309,24.2991946 L33.4000633,24.357755 L33.6019956,24.4338162 L33.6007167,24.5462925 C33.5972166,24.6222864 33.5892066,24.6986168 33.5684075,24.7720529 C33.534281,24.8922699 33.473432,25.0012461 33.4081406,25.106924 C33.3507245,25.1997456 33.2863753,25.2879227 33.2223628,25.3761672 L33.1220024,25.5104522 L33.0186803,25.641439 L32.9086945,25.7585598 L32.7882082,25.8445157 L32.6586349,25.887258 L32.4577122,25.8847675 L32.3230907,25.866459 L32.1884691,25.852391 L31.9865367,25.8364384 L31.7846043,25.8146297 L31.6499828,25.8106583 L31.5153612,25.8214281 L31.3134288,25.841352 C31.1564601,25.8514487 30.9989528,25.8435733 30.8422533,25.8587855 C30.7519222,25.8675359 30.6624662,25.8834213 30.5730102,25.898095 L30.2364562,25.9540976 L29.8999023,26.0105041 L29.6306591,26.0627372 L29.361416,26.1167878 L29.1594836,26.1603379 L28.8902404,26.2226677 L28.5536865,26.2950268 L28.1498218,26.3943775 L27.6786463,26.5126425 L27.3420923,26.6055987 L27.0055384,26.6869775 L26.7362952,26.7577211 L26.4670521,26.8182335 L26.1304981,26.8957755 L25.861255,26.9528551 L25.524701,27.0303971 L25.1881471,27.0993234 C25.0761419,27.1217379 24.9642714,27.145364 24.8515932,27.1642783 L24.5150392,27.2117997 L24.2457961,27.2504361 L23.9765529,27.2798509 L23.7746205,27.3089965 L23.639999,27.3221221 C23.5728228,27.3267665 23.5053774,27.327305 23.4380666,27.3279108 L23.1688234,27.3281801 C23.0347404,27.3281801 22.9006573,27.3286512 22.7666415,27.3258915 L22.5408811,27.3002461 L22.4284048,27.2608693 L22.3924608,27.3733456 L22.2935813,27.6650705 C22.2624837,27.7551997 22.2318573,27.8455981 22.1959133,27.9339771 C22.1586231,28.0257891 22.1168904,28.1159182 22.0700421,28.2032203 C22.0328866,28.2724158 21.9922982,28.3389862 21.904121,28.4724635 L21.7428444,28.6741266 L21.6179829,28.806325 C21.5141896,28.9100509 21.4036653,29.0071804 21.2841214,29.0924631 L21.1494998,29.1806403 L21.0148782,29.2547494 L20.8129459,29.3412438 C20.7461062,29.3642641 20.6792666,29.3856016 20.6110135,29.4041121 C20.5004892,29.4340654 20.3884167,29.4582299 20.2744595,29.4704132 C20.2073507,29.4776155 20.1399053,29.4797021 20.0725272,29.4811156 L19.803284,29.4821253 L19.6013517,29.481856 C19.5339736,29.4807791 19.4666628,29.4809137 19.3994193,29.4758654 C19.3313681,29.4706824 19.2641919,29.4617301 19.1974869,29.447191 C19.1052038,29.4271997 19.0164209,29.3965733 18.9282438,29.363389 L18.7936222,29.3031459 L18.6592699,29.2287675 L18.4631262,29.0941459 L18.3429765,28.9891411 L18.2366254,28.8716837 L18.1501984,28.751534 L18.094465,28.6522506 L18.0532035,28.5397742 L17.918582,28.5397742 L17.8745607,28.6522506 L17.8102116,28.7524763 C17.7404776,28.8438171 17.6622625,28.9275517 17.5807491,29.008392 C17.4348193,29.1529755 17.2759659,29.2824815 17.1108525,29.404314 C16.979058,29.5015781 16.8430902,29.5929188 16.7069878,29.6839903 C16.5732412,29.773581 16.4398986,29.864114 16.303123,29.9489929 C16.1927333,30.0175153 16.0793147,30.0806528 15.9665691,30.1451365 L15.6300152,30.3363665 L15.4280828,30.4416406 L15.2934612,30.5118457 C15.1591762,30.5838683 15.0259008,30.6577755 14.8895965,30.725894 C14.7565231,30.7924644 14.6206899,30.8529095 14.4857318,30.9155085 L14.2837994,31.0096763 L13.9472454,31.1547984 L13.6780023,31.2692267 C13.5233221,31.3306141 13.3646706,31.3815011 13.2068268,31.4341381 C13.027982,31.4937755 12.8496757,31.5555668 12.6683405,31.6073288 C12.5346612,31.6454267 12.3993666,31.6782071 12.2644757,31.7119298 C12.0412732,31.7677304 11.8178687,31.8228579 11.5913679,31.8639848 L11.4567463,31.8868032 L11.1875031,31.9235549 C11.0977778,31.936142 11.0085237,31.9525658 10.91826,31.9611816 C10.7615605,31.9761919 10.6040532,31.9694608 10.4470845,31.9784132 C10.3348101,31.9848077 10.2231415,32.0015008 10.1105305,32.0015008 C10.0202667,32.0015008 9.93107995,31.9899233 9.84128736,31.9830576 C9.77397657,31.977942 9.70686771,31.9751823 9.63935499,31.9736341 C9.50480073,31.9704705 9.36990991,31.9757881 9.23549026,31.9665665 L9.10086869,31.9534409 L8.89893632,31.9242953 L8.56238238,31.8861301 C8.44943488,31.8701101 8.33769897,31.8467533 8.22582844,31.8245407 C8.06818657,31.7932412 7.90953504,31.763961 7.75465292,31.7204782 C7.59337627,31.6751781 7.43613827,31.6165504 7.2834774,31.5477587 C7.16965486,31.4965352 7.05818819,31.4397249 6.94692346,31.3832512 C6.83310092,31.3254985 6.71948031,31.2674093 6.61036952,31.2009736 C6.49392186,31.1300953 6.38317542,31.0510051 6.27381558,30.9696937 C6.18144498,30.9010367 6.09130911,30.8279372 6.00722447,30.7493182 C5.85892534,30.610658 5.73088676,30.4535546 5.61141011,30.2898547 C5.54772737,30.20262 5.48507449,30.1136351 5.42998734,30.0206116 L5.35255301,29.88599 L5.2823344,29.7513684 C5.23879778,29.6625855 5.19701797,29.5731295 5.15835466,29.4821253 C5.11147942,29.3717356 5.06712161,29.2595958 5.02991894,29.1455713 C4.98673907,29.0132383 4.95563476,28.878011 4.92786232,28.7417066 C4.90515166,28.6303073 4.88332278,28.5183694 4.87176551,28.4051527 L4.86262471,28.2705311 L4.85660039,28.1362461 C4.8494116,28.0502229 4.83893804,27.9615073 4.75236291,27.8370496 L4.58710146,27.7271311 L4.38905966,27.6425887 L4.18718114,27.5498345 L3.98524878,27.4554648 C3.89390804,27.4106358 3.80268846,27.3643933 3.71600562,27.3108812 L3.58138405,27.2256657 C3.48990195,27.1632013 3.40014975,27.0987176 3.31313036,27.0301279 C3.22666965,26.9620094 3.14243693,26.8909965 3.06216882,26.8156084 C2.98305172,26.7413646 2.90772421,26.6630148 2.83582283,26.5817034 C2.74311568,26.4769678 2.65601552,26.3679243 2.57873601,26.2512074 C2.49345997,26.1224419 2.42316731,25.9848587 2.35337949,25.8473427 C2.29685189,25.7359434 2.24210129,25.6238036 2.18889211,25.5107888 L2.13175872,25.3761672 C2.10496902,25.3104046 2.08310648,25.2422187 2.0628392,25.1742348 C2.02996461,25.0639124 2.00361917,24.9514361 1.98586931,24.8376809 C1.96845601,24.7260796 1.96151627,24.6130648 1.94697041,24.5011269 C1.93530545,24.4114017 1.91742097,24.3221476 1.91004371,24.2318838 L1.90126638,24.0972622 L1.8987153,23.8953298 C1.89833836,23.8056719 1.89851337,23.71561 1.90463865,23.6260867 C1.91392754,23.4905228 1.9393441,23.3570455 1.95548522,23.222222 L1.97641888,23.0202896 L1.99542745,22.885668 C2.01377637,22.7725859 2.0384525,22.6605134 2.06522873,22.5491141 L2.12054474,22.3471817 C2.14610938,22.2569853 2.17272406,22.1667888 2.20260332,22.0779386 C2.2562029,21.9185466 2.32042412,21.7626548 2.3832924,21.606763 C2.42885507,21.4937482 2.47511105,21.3812719 2.52523739,21.2702091 C2.56647198,21.1788684 2.61206831,21.0889412 2.66006763,21.000966 C2.74603697,20.8433914 2.84548866,20.6940961 2.93824293,20.5405602 L2.99360605,20.4403344 L3.04289774,20.3278581 Z M6.00457242,13.7314008 L5.9894073,13.8438771 L5.96349265,13.9441029 C5.92051471,14.0789264 5.86791133,14.2106536 5.80461227,14.3371979 C5.73422537,14.4779448 5.65087443,14.6112201 5.56232708,14.7410626 C5.49885974,14.8341535 5.42812956,14.9229364 5.35712341,15.0103058 C5.20463082,15.1979683 5.04035211,15.3755341 4.86023518,15.53708 C4.71191585,15.6701535 4.55222101,15.7898993 4.38911351,15.9041258 C4.27934307,15.9809274 4.16768794,16.0554404 4.05255956,16.1240974 C3.94301126,16.1893889 3.83001664,16.2483531 3.71600562,16.3054327 L3.51407326,16.4030333 C3.42534418,16.4437563 3.33516791,16.4808446 3.2448301,16.5177982 C3.15595294,16.5540787 3.06629497,16.589013 2.97558695,16.6205145 C2.88660882,16.6514101 2.79621716,16.6779979 2.7063438,16.7061338 L2.57172222,16.7510301 L2.36978986,16.8245335 C2.27990976,16.8575831 2.18918155,16.8889499 2.1005467,16.9252304 C1.87088902,17.0192636 1.64431418,17.1229222 1.42743882,17.2438124 L1.29312687,17.3208832 L1.2267517,17.3631544 L1.09992472,17.4597454 L0.991890902,17.5751834 L0.949666845,17.6383209 L0.897157699,17.7700481 L0.894768166,17.9017753 L0.945251257,18.0248868 L1.03993734,18.1300262 L1.16121119,18.2114723 L1.29307976,18.2706384 L1.42743882,18.31365 L1.5620604,18.3470362 L1.69668197,18.375576 L1.89861434,18.4146162 L2.23516828,18.4710227 L2.57172222,18.5270252 C2.6836466,18.5451318 2.79502576,18.5639789 2.90827616,18.5717196 C2.99783317,18.5779122 3.08780077,18.5775083 3.17751932,18.5777103 L3.58138405,18.5777776 C3.69349689,18.5779795 3.80601361,18.5761621 3.91793799,18.5838355 L4.05255956,18.5969611 L4.25449193,18.6259048 C4.32164117,18.6345879 4.38879714,18.6395016 4.45642429,18.6424632 L4.65835666,18.6450211 L4.92759981,18.6450884 L5.73532927,18.6450884 L8.22582844,18.6450884 L11.1875031,18.6450884 L12.1971649,18.6450884 L12.5337189,18.6450884 L12.7356513,18.6440787 C12.8258477,18.6419248 12.9153711,18.6374822 13.0048944,18.6259048 L13.2068268,18.5969611 L13.3414484,18.5838355 C13.4309044,18.577643 13.5207643,18.5780468 13.6103549,18.5778449 L14.0145562,18.5777776 L14.0893385,18.4463196 L14.1314078,18.3964423 L14.229143,18.3490555 L14.342629,18.366489 L14.4002471,18.39725 C14.458067,18.4344056 14.5122522,18.4764075 14.5722261,18.5101975 L14.6937221,18.5564401 L14.7576,18.5678156 L14.8232954,18.5738062 L14.9569746,18.577441 L15.1588396,18.5777776 L15.5627044,18.5777776 C15.6523623,18.5778449 15.7423569,18.5764987 15.8319475,18.5804027 C15.8996622,18.5833644 15.9666364,18.5886819 16.0338799,18.5969611 L16.303123,18.6336455 C16.4114934,18.6440114 16.520133,18.6442806 16.6289073,18.6450211 L16.8416093,18.6450884 L16.7961072,18.532612 L16.7447491,18.4323863 L16.669361,18.3068516 C16.5787607,18.1710185 16.4846602,18.0377431 16.3900213,17.9046697 L16.1971085,17.6357631 L16.0612081,17.4442639 L16.0112635,17.3768858 L15.9879739,17.3440381 L15.8992583,17.2315618 L15.786782,17.275785 L15.7539343,17.2914684 L15.6865562,17.3204794 L15.495057,17.4051563 L15.2261504,17.521604 L14.8895965,17.6819383 L14.5530425,17.8279354 C14.4181517,17.8875727 14.2860206,17.9535373 14.1491778,18.0087995 C14.0606641,18.0445415 13.9704677,18.0761103 13.8799347,18.1063328 C13.7683334,18.1435557 13.6565975,18.180442 13.5433807,18.2124146 C13.3003888,18.280937 13.0517427,18.3284584 12.802962,18.370393 L12.6010297,18.4034426 C12.5338535,18.414145 12.466812,18.425184 12.3990973,18.4317132 C12.2423305,18.4469254 12.0848232,18.4383769 11.9279218,18.449214 C11.7923579,18.4585029 11.6590152,18.4842156 11.5240571,18.499024 C11.4348703,18.5088513 11.3444719,18.5099283 11.2548139,18.5099283 C11.1651559,18.5099283 11.0747576,18.5088513 10.9855708,18.499024 C10.8506126,18.4842156 10.71727,18.4585029 10.581706,18.449214 C10.4473537,18.4399924 10.3123956,18.4448388 10.1778413,18.4405309 C10.0874429,18.4376365 9.99765032,18.4279438 9.90859815,18.4118565 C9.77121683,18.3870861 9.63706643,18.3471035 9.50473342,18.3032169 C9.43654759,18.2806004 9.36977529,18.2534742 9.30280105,18.2274922 L9.10086869,18.1451711 C8.98697883,18.0964381 8.8751083,18.0435992 8.76431475,17.9882024 C8.69660009,17.9543451 8.62848157,17.9206897 8.56238238,17.8836687 C8.39996145,17.7927992 8.24070412,17.6954004 8.09120686,17.584203 C8.02167482,17.5325083 7.95429672,17.4783905 7.8892745,17.421109 C7.79618368,17.3389898 7.70814117,17.2513512 7.62009866,17.1639818 L7.42079141,16.9623187 C7.35805776,16.8967579 7.29613183,16.8303895 7.23831186,16.7603863 C7.1012671,16.5944652 6.9902043,16.4105721 6.88768997,16.2219 C6.83996662,16.134194 6.79870511,16.0429879 6.756232,15.9526568 C6.69343103,15.8190449 6.62887999,15.6857696 6.57355052,15.5487921 C6.53780849,15.4602784 6.50623973,15.370082 6.47601719,15.2795489 C6.43136994,15.1458024 6.3885872,15.0117193 6.35135761,14.8756842 C6.30261113,14.6975799 6.25920914,14.5177928 6.22068044,14.3371979 L6.15030701,14.0046153 L6.11494192,13.8876292 L6.08554057,13.8335113 L6.07406408,13.8045003 L6.00457242,13.7314008 Z M9.43742263,16.2219 L9.38552601,16.1094237 L9.36358269,16.076576 L9.32299429,16.0091979 L9.23266321,15.8836633 L9.08538721,15.6834137 C9.00959526,15.5743702 8.94006321,15.4610861 8.87234856,15.3468597 C8.81984615,15.2582787 8.76922843,15.1691593 8.72211088,15.0776166 L8.66099269,14.942995 C8.62410637,14.855289 8.59233568,14.7646887 8.56433439,14.6737519 C8.53673697,14.5844977 8.51129349,14.4950417 8.4882732,14.4045087 L8.45879108,14.2698871 C8.44054985,14.1809696 8.43159752,14.0904366 8.4190104,14.000644 C8.40009607,13.8662243 8.37579688,13.7323432 8.36650799,13.5967792 C8.36186354,13.5296031 8.36132506,13.4621577 8.36071926,13.3948469 L8.36045002,13.1929145 L8.36051733,12.8563606 C8.36071926,12.7666353 8.36031539,12.6767081 8.36650799,12.5871174 C8.37424873,12.473968 8.39349961,12.3627032 8.40951958,12.2505635 L8.44694438,11.9813203 L8.47272441,11.8466987 C8.50240847,11.7099232 8.54340074,11.5761767 8.58553729,11.442834 C8.61407707,11.3525702 8.64409768,11.2625084 8.67647417,11.1735909 C8.70959107,11.082654 8.74439075,10.9920537 8.78531571,10.9043477 C8.86056917,10.7431384 8.94336144,10.5859004 9.03456756,10.4331722 C9.08942585,10.3414276 9.14542843,10.2498849 9.20923906,10.1639963 C9.26086643,10.094397 9.31646514,10.0276247 9.37711216,9.96569876 L9.50574308,9.8461548 L9.57231345,9.79472936 L9.6394223,9.75077542 L9.77397657,9.68824369 L9.90859815,9.66030972 C10.0221514,9.64933806 10.1371183,9.67558927 10.2451521,9.70789844 C10.4336896,9.76423757 10.6080245,9.85840537 10.7836384,9.94530359 C10.8729598,9.98952678 10.9619447,10.0349616 11.0528815,10.0758192 C11.1860896,10.1357258 11.3212497,10.1903149 11.4567463,10.244702 L11.7933002,10.3783812 C11.8602071,10.4036901 11.9271814,10.4283258 11.9952326,10.4503364 C12.0842174,10.4790108 12.1746158,10.5031081 12.2644757,10.5288208 L12.6683405,10.6445281 C12.7803456,10.6761641 12.8920142,10.709483 13.0048944,10.7377535 L13.3414484,10.8134781 C13.4311063,10.8336714 13.5202931,10.8564897 13.6106915,10.8733847 C13.7000129,10.8901451 13.7900074,10.9004437 13.8799347,10.9130981 L14.2164886,10.9612253 L14.418421,10.9820917 C14.5306954,10.9955538 14.6420947,11.0166221 14.7546384,11.0275264 C14.889058,11.0405847 15.0240161,11.0385654 15.1588396,11.0389693 L15.1588396,10.3658614 L15.1591089,10.163929 C15.1597147,10.0966182 15.1602532,10.0292401 15.1648976,9.96199667 C15.1741192,9.82643274 15.1998992,9.69309007 15.2147076,9.55813194 C15.224535,9.46881052 15.2248042,9.37861407 15.2258812,9.28888879 L15.2261504,8.88502406 L15.2261504,8.21191617 L15.2261504,7.74074066 C15.2260831,7.65108269 15.2274293,7.56108816 15.2235253,7.4714975 C15.2205636,7.40385016 15.2156499,7.3367413 15.2069668,7.26956514 L15.1780232,7.06763277 L15.1648976,6.9330112 C15.1602532,6.86583503 15.1597147,6.79838962 15.1591089,6.73107883 L15.1588396,6.52914647 L15.1588396,6.12528174 L15.1585704,5.92334937 C15.1574934,5.83362409 15.1572242,5.7434411 15.1473968,5.65410622 C15.1325884,5.51916155 15.1070776,5.38578522 15.0975868,5.25024149 L15.0907884,5.04830912 C15.0888364,4.98083006 15.0865478,4.9136135 15.080086,4.84637676 C15.0714702,4.75610626 15.0551137,4.66687235 15.0424593,4.5771336 C15.0266412,4.46493325 15.0136503,4.35234923 14.9949379,4.24057966 C14.9760235,4.1279216 14.9523974,4.01602414 14.929983,3.90402572 C14.8939717,3.72382128 14.8592393,3.54319951 14.8118525,3.36553942 C14.78163,3.25221497 14.7465611,3.1403579 14.7098094,3.02898547 C14.6725865,2.91593027 14.6345559,2.80280103 14.5898615,2.69243153 C14.5434171,2.57780126 14.4894338,2.46675192 14.4348448,2.35587759 C14.3791115,2.2428022 14.3217627,2.130723 14.2627984,2.01932365 L14.1850545,1.88470207 C14.1436583,1.81531811 14.0970119,1.74864005 14.048952,1.68375245 C13.9852087,1.59774272 13.9165517,1.51486968 13.8447984,1.43544295 C13.7374377,1.31669325 13.6254999,1.20268224 13.5085137,1.09338298 C13.3697189,0.963634708 13.2275585,0.835777865 13.0721379,0.725926659 C12.9451224,0.636107143 12.8092219,0.558894937 12.6683405,0.492937096 C12.5589604,0.441713586 12.4460802,0.399550108 12.3317865,0.360758901 C12.2441479,0.331000801 12.1538841,0.306418902 12.0625434,0.291159546 C11.9734239,0.276277131 11.8834967,0.272164441 11.7933002,0.270225891 L11.5240571,0.269243153 L11.3221247,0.269498934 C11.2093791,0.271302863 11.097172,0.272864474 10.9855708,0.291105697 C10.8713444,0.30977771 10.7597431,0.343352331 10.6490168,0.376341349 L10.5143952,0.417730752 L10.4470845,0.440481799 L10.3124629,0.493872716 C10.2444117,0.524357772 10.1772355,0.556343859 10.1105305,0.589696354 C9.99556369,0.647173036 9.88194307,0.707362343 9.77397657,0.777298252 C9.70464646,0.822181086 9.63740298,0.870382341 9.57211152,0.920845239 C9.47982843,0.992127364 9.39144936,1.0680472 9.30885902,1.15036157 C9.18473793,1.27393744 9.07555983,1.41145338 8.96651635,1.54814813 C8.86110766,1.68031286 8.75630476,1.81348726 8.65930992,1.95201286 C8.58338335,2.06044381 8.51216853,2.17185663 8.4495695,2.2885668 C8.37956628,2.41900165 8.32188093,2.55533292 8.26648416,2.69243153 C8.22158786,2.80352126 8.17918206,2.91527063 8.14142071,3.02898547 C8.11207321,3.11739146 8.08945678,3.20806583 8.06630187,3.29822863 L8.01635727,3.50016099 L7.98808673,3.63478257 L7.97098979,3.76940415 C7.9647972,3.83635819 7.97004744,3.90500846 7.97947095,3.97133651 C7.98916371,4.03943483 8.00619334,4.10772163 8.02685775,4.17326888 C8.0483972,4.24148836 8.07188867,4.30841548 8.09746677,4.37520124 L8.15723875,4.50982282 L8.19143263,4.5771336 L8.30276467,4.77906597 L8.48564808,5.11561991 L8.67620492,5.45217385 L8.78053665,5.65410622 L8.87813729,5.85603858 C8.92888962,5.96669752 8.97499751,6.07944309 9.0198265,6.19259252 C9.10692666,6.41249687 9.18615146,6.63563213 9.24235596,6.86570041 C9.26954952,6.97696514 9.28913696,7.08937416 9.3081186,7.20225435 C9.33073503,7.3360682 9.3561112,7.47042053 9.36385194,7.60611908 C9.36896756,7.69597898 9.36701554,7.78577157 9.3586017,7.87536223 C9.35018785,7.965626 9.33396595,8.05494742 9.32104228,8.14460539 L9.2818674,8.41384854 L9.25171216,8.54847011 C9.22828801,8.63933968 9.19833471,8.72899765 9.16791023,8.81771327 C9.13694727,8.90811166 9.10524389,8.99797156 9.0703769,9.08695642 L9.01255693,9.221578 C8.96133342,9.33540054 8.90391732,9.44646334 8.8482513,9.55813194 L8.71342779,9.82737509 C8.66752183,9.91797541 8.62141394,10.0084411 8.57093085,10.0966182 C8.49150412,10.2355477 8.40366354,10.3694289 8.31191894,10.500483 L8.16531604,10.7024153 L8.06017659,10.8370369 L7.94763295,10.9716585 C7.89068802,11.0391712 7.83024294,11.1039915 7.77578851,11.1735909 L7.67313956,11.3082124 L7.58523167,11.442834 L7.54726838,11.5101448 L7.48406355,11.6447664 C7.44031154,11.7528002 7.41399302,11.8670939 7.39245357,11.9813203 C7.37979914,12.0481599 7.36889479,12.1154707 7.36229834,12.1832527 C7.35361524,12.272776 7.35199979,12.3627032 7.35704809,12.4524958 C7.36472152,12.5881944 7.39252088,12.7214697 7.40692539,12.8563606 L7.42314729,13.0582929 C7.42913795,13.1260076 7.43708062,13.1930491 7.44764842,13.2602253 C7.45828352,13.3278053 7.47181299,13.3951834 7.48567901,13.4621577 C7.50896854,13.5748359 7.53414278,13.6869084 7.56147096,13.7987116 C7.58893376,13.9113226 7.61767547,14.0235969 7.64877305,14.1352655 C7.6740146,14.2257986 7.70309286,14.3152546 7.73250767,14.4045087 C7.77740397,14.540813 7.82290606,14.6776559 7.88254342,14.8083734 C7.93571894,14.9248884 7.99986612,15.0350762 8.06535952,15.1449274 C8.12001588,15.2367393 8.17830702,15.3268684 8.23989639,15.4141705 C8.32147707,15.5297431 8.40803874,15.6428253 8.50678367,15.7444646 L8.63231829,15.8632008 L8.76458399,15.9668594 L8.89893632,16.0547673 L9.03322134,16.1265206 L9.16515049,16.1782153 L9.29209864,16.2076974 L9.3249463,16.2142266 L9.43742263,16.2219 Z M9.50473342,11.2409016 L9.46535661,11.353378 L9.44825967,11.4536037 L9.44072086,11.5791384 C9.44072086,11.6461799 9.44280749,11.7126157 9.44893277,11.779388 C9.45916401,11.8921335 9.48151119,12.0033983 9.49355983,12.1159419 C9.50560846,12.2280144 9.5083682,12.3408272 9.52485934,12.4524958 C9.54505258,12.5888675 9.5801215,12.7230179 9.61445,12.8563606 C9.63760491,12.946557 9.66022134,13.0371573 9.68956884,13.1256037 C9.72733019,13.239359 9.7698033,13.3510275 9.81463229,13.4621577 C9.85118204,13.5526234 9.88867415,13.6426852 9.92939718,13.7314008 L10.0269978,13.9333332 C10.0840774,14.0473577 10.1430416,14.1603052 10.2083331,14.2698871 C10.2769901,14.3849886 10.3515031,14.4966572 10.4283047,14.6064411 C10.5086738,14.7211386 10.5914661,14.8346919 10.6803163,14.942995 C10.7764361,15.0602504 10.8793543,15.1713805 10.9865804,15.2785393 C11.0730075,15.3650336 11.1618577,15.4491048 11.2548139,15.5285989 C11.3415775,15.6027754 11.4318413,15.6727786 11.5240571,15.740022 C11.6527553,15.8338533 11.7854249,15.9228381 11.9279218,15.9945914 C12.0362249,16.0490459 12.1497108,16.0918555 12.2644757,16.1306266 C12.3750674,16.167984 12.4874764,16.2015048 12.6010297,16.2286984 C12.6894761,16.2499013 12.7794706,16.2694887 12.8702728,16.2774987 L13.0048944,16.2865856 L13.2068268,16.2890761 C13.3191012,16.2890761 13.4315102,16.288605 13.5433807,16.2777679 C13.6562609,16.2668636 13.7681314,16.2457953 13.8799347,16.2272848 C14.0832805,16.1936968 14.2868957,16.1595029 14.4857318,16.1044427 C14.5986793,16.0731431 14.7095401,16.0349779 14.8206029,15.9977551 L15.0463633,15.92129 L15.1588396,15.885346 L15.1464544,15.7728697 L15.1292229,15.6726439 C15.092202,15.4749522 15.044344,15.2788085 15.030276,15.0776166 C15.0239488,14.9881605 15.0240161,14.8980314 15.0245546,14.8083734 C15.0250258,14.7184462 15.0271124,14.6286536 15.0356609,14.5391303 L15.0723453,14.2698871 C15.0806245,14.2026436 15.0859421,14.1356694 15.0889037,14.0679548 C15.0928078,13.9783641 15.0914615,13.8883696 15.0915288,13.7987116 L15.0915288,13.3948469 L15.0915288,12.1832527 L14.9790525,12.1898491 L14.9462049,12.1944936 L14.8788268,12.2025036 L14.6873276,12.2313799 L14.5530425,12.2445055 C14.4411047,12.2522462 14.3286284,12.2503615 14.2164886,12.2505635 L13.7453131,12.2505635 L13.2068268,12.2505635 C13.0947543,12.2503615 12.9822107,12.2522462 12.8702728,12.2445055 C12.7570561,12.2367648 12.6456567,12.2179851 12.5337189,12.1998111 C12.3988281,12.1779351 12.2638026,12.1561264 12.1298542,12.1289329 C12.0623414,12.1152015 11.9946941,12.1011335 11.9279218,12.0839693 C11.7695395,12.0431789 11.6127054,11.9965326 11.4567463,11.9473284 L11.2548139,11.8806907 L10.91826,11.7777052 C10.7598777,11.7279625 10.6024378,11.674787 10.4470845,11.6161593 C10.3340696,11.5734843 10.2219299,11.5282514 10.1105305,11.481605 L9.71743551,11.3150108 L9.61720974,11.2776533 L9.50473342,11.2409016 Z M17.2454741,16.5584539 L17.2947456,16.6709303 L17.3502097,16.771156 C17.4165781,16.8818823 17.4890045,16.9885025 17.5588731,17.0969402 C17.6428097,17.2271866 17.726477,17.3575676 17.7869894,17.500805 C17.8499923,17.6498984 17.8888979,17.8096269 17.9068699,17.9702977 C17.919457,18.0826394 17.9176396,18.1957215 17.918582,18.3085344 L18.0310583,18.2645132 L18.0639059,18.2415602 L18.131284,18.2001641 L18.2568187,18.0965727 C18.3481594,18.0127035 18.4366058,17.9258726 18.5233694,17.8372916 C18.62898,17.729527 18.7329079,17.6202143 18.8253256,17.500805 C18.9238686,17.3735203 19.0074686,17.2351966 19.0894531,17.0969402 C19.1544753,16.987291 19.2194302,16.8770359 19.2712596,16.7603863 L19.3248389,16.6257647 L19.3462438,16.5584539 L19.3762644,16.4238323 L19.3858225,16.28948 L19.3692641,16.1575509 L19.3199926,16.0353145 L19.2821639,15.9818697 L19.1821401,15.8976639 L19.0599037,15.8498733 L18.9945449,15.8395074 L18.9279745,15.8370169 L18.8608657,15.8412575 L18.7263114,15.8640758 L18.5916898,15.9002217 C18.4284612,15.9507048 18.2751945,16.0269679 18.1205143,16.0983174 C17.985085,16.1608491 17.8494538,16.2227077 17.7167842,16.2910282 C17.6296167,16.3358571 17.5435936,16.3829074 17.4581762,16.4309 L17.3907981,16.4704114 L17.3579504,16.4886526 L17.2454741,16.5584539 Z M5.12953218,26.1165859 L5.15358232,26.0041095 L5.18276828,25.9038838 L5.2265001,25.7783492 L5.30482293,25.5780996 C5.34140635,25.4876339 5.37887826,25.397572 5.41954744,25.3088564 L5.5171952,25.106924 C5.5978941,24.9456474 5.68357401,24.7871978 5.78227855,24.6360851 C5.8380388,24.5506677 5.8962761,24.4667311 5.9613589,24.3881121 L6.01511329,24.3339943 L6.04004521,24.3049833 L6.139194,24.2318838 L6.10283944,24.3443601 L6.08637523,24.3772078 L6.05713542,24.4445859 L5.95699716,24.6360851 L5.82009375,24.9049917 L5.78793938,24.9723025 L5.72696927,25.106924 C5.69902183,25.1732925 5.67351104,25.240334 5.65113694,25.3088564 C5.62218657,25.3975047 5.59899127,25.4878358 5.57577578,25.5780996 L5.52586483,25.7798973 L5.49729813,25.9129707 L5.47777127,26.0385053 L5.47211043,26.1058834 L5.46608612,26.2512074 L5.57858264,26.2540345 L5.67882186,26.2626503 L6.00457242,26.3071427 L6.34112637,26.3298938 C6.43128244,26.3389134 6.52064424,26.3543949 6.61036952,26.3666454 L6.7449911,26.379771 C6.81216726,26.3844155 6.87961267,26.384954 6.94692346,26.3855598 L7.21616661,26.385829 C7.37313537,26.3857617 7.53084455,26.3892619 7.68734213,26.3743862 L8.02389607,26.3296918 L8.22582844,26.3134699 L8.36045002,26.2993347 L8.56238238,26.2676986 C8.65244422,26.2526883 8.74257336,26.2379472 8.83162553,26.217552 C8.89954212,26.2020033 8.96651635,26.1828197 9.0335579,26.16404 L9.23549026,26.1071624 C9.41554662,26.0561408 9.59553567,26.0043788 9.77397657,25.9479723 L9.97590893,25.8805942 C10.0885199,25.8430348 10.2011981,25.8062158 10.3124629,25.7646851 C10.4707105,25.7056535 10.6268716,25.6408332 10.7836384,25.5780996 L11.1875031,25.4147363 C11.2785073,25.3764364 11.367896,25.3344345 11.4567463,25.2914902 L11.6586786,25.1906587 L11.860611,25.086125 C11.9967807,25.012487 12.1298542,24.9331276 12.2644757,24.8565952 L12.6683405,24.6256519 L12.9375836,24.4709044 L13.2741376,24.2604236 C13.497744,24.1219653 13.7271392,23.9925266 13.9472454,23.8484815 C14.1100702,23.7419286 14.2671063,23.6270964 14.4181517,23.5043888 C14.5486673,23.3983743 14.6793849,23.2897347 14.7783317,23.1522861 C14.8372287,23.0704361 14.8823269,22.9807109 14.9156458,22.885668 C14.938666,22.8199054 14.9542821,22.7516522 14.9690905,22.6837357 C14.9978995,22.551268 15.0189005,22.4157041 15.0189005,22.2798709 C15.0189005,22.1206809 14.9881395,21.9640487 14.956638,21.8086954 C14.919819,21.6270236 14.8765382,21.4468999 14.8203337,21.2702091 C14.7915247,21.1794742 14.7602925,21.0892104 14.7244158,21.000966 L14.6659227,20.8663444 L14.6331424,20.7991009 L14.5611198,20.6656909 L14.4786641,20.5397524 L14.4326235,20.4838845 L14.3828136,20.4357573 L14.2713469,20.3684465 L14.1464854,20.3378201 L14.014287,20.329137 L13.8799347,20.3279254 L13.4760699,20.3278581 L12.7356513,20.3278581 L12.5337189,20.3279254 L12.3317865,20.3304832 L12.1971649,20.3393009 L12.1298542,20.3470416 L11.9279218,20.3759853 L11.860611,20.383726 L11.7259894,20.3925437 L11.5240571,20.3951015 L11.3221247,20.3951689 L10.7163276,20.3951689 L8.89893632,20.3951689 L7.41809898,20.3951689 L6.87961267,20.3951689 C6.7674729,20.3949669 6.65499657,20.3967843 6.54305873,20.3891109 C6.38504666,20.3783412 6.22990202,20.3446858 6.07188321,20.333916 C5.95995883,20.3262426 5.84743539,20.32806 5.73532927,20.3278581 L5.46608612,20.3279254 L5.33146454,20.3288677 L5.19684297,20.333916 L5.06222139,20.3470416 L4.79297824,20.383726 C4.70339431,20.3922745 4.61365556,20.3940919 4.52373508,20.3948996 L4.25449193,20.3951689 L3.8506272,20.3951689 L3.64874868,20.3955054 C3.52105339,20.3978613 3.38295857,20.3939573 3.27033416,20.4643643 C3.21186128,20.5009141 3.16759771,20.5526088 3.1266189,20.6070632 L3.04393433,20.7330017 L2.96629133,20.8664117 C2.8575171,21.0599302 2.75875871,21.2608529 2.68946225,21.4721415 C2.63173652,21.6481592 2.59660702,21.8298983 2.55759369,22.0106278 L2.5124618,22.2125601 C2.49198586,22.3018816 2.47025121,22.3909337 2.45730734,22.4818033 C2.43191771,22.6599076 2.43687852,22.840839 2.43710064,23.0202896 C2.43726219,23.1549112 2.43516209,23.2900712 2.44857713,23.4241543 C2.45989881,23.5373038 2.48135076,23.6496455 2.5054009,23.7607083 C2.55040489,23.9686313 2.61039227,24.175612 2.7058255,24.3665054 C2.75239111,24.4596635 2.80660995,24.5497926 2.865379,24.6357485 C2.91209942,24.704069 2.958315,24.7732645 3.01043375,24.8376809 L3.12262064,24.9723025 C3.18469465,25.0407575 3.24777832,25.1079337 3.31313036,25.1732252 C3.41975738,25.2799128 3.53009996,25.382629 3.64869483,25.4759218 C3.75575937,25.5601949 3.86956845,25.6365253 3.98524878,25.7082786 C4.05125373,25.7492709 4.1181472,25.7898593 4.18718114,25.8256013 L4.32180272,25.893114 C4.38855483,25.9237405 4.45563003,25.9534245 4.52373508,25.9809546 C4.61172374,26.0164947 4.70026436,26.0487366 4.79131566,26.0755263 L4.91679643,26.1024506 L4.98420818,26.1096529 L5.12953218,26.1165859 Z M15.5627044,21.1355875 L15.563714,21.2480639 C15.5653968,21.301374 15.5680892,21.3548861 15.5741472,21.4078597 L15.5912441,21.5397888 C15.6010715,21.6068977 15.6121778,21.6738046 15.6185723,21.7413846 C15.6292747,21.8533898 15.629342,21.9655969 15.6299478,22.0779386 L15.6290055,22.2798709 C15.62739,22.3471817 15.6261111,22.4148291 15.6185723,22.4818033 C15.6034947,22.617098 15.5798686,22.7514503 15.5572522,22.885668 C15.5306644,23.0435118 15.5029324,23.2016922 15.463219,23.3568435 C15.4282174,23.4933498 15.3839942,23.6277022 15.3375498,23.7607083 C15.3139237,23.8283556 15.2907688,23.8966088 15.2629021,23.9626406 L15.204409,24.0972622 C15.1712921,24.16565 15.1373675,24.23323 15.0996735,24.2991946 C15.0331031,24.4159115 14.9581189,24.5273108 14.8788941,24.6357485 C14.7949575,24.750648 14.7073189,24.8635282 14.6086413,24.9662445 C14.5080116,25.071182 14.3960065,25.1627247 14.2837321,25.2546712 C14.1954203,25.3270303 14.1052912,25.3974374 14.0145562,25.4667675 C13.8611549,25.583821 13.7035804,25.6947492 13.5433807,25.8021772 C13.4323179,25.8767575 13.3203801,25.9499917 13.2068268,26.020668 C13.095764,26.0897962 12.9832203,26.1565685 12.8702728,26.2226677 L12.6683405,26.3374326 C12.5337862,26.4139649 12.4006455,26.4933243 12.2644757,26.5669623 C12.1095263,26.6507643 11.9508748,26.7277005 11.7933002,26.8063195 C11.6815643,26.8620528 11.5702323,26.9187285 11.4567463,26.9708271 L11.1201923,27.1168242 L10.8509492,27.2402722 C10.7398864,27.2896783 10.6281505,27.337267 10.5143952,27.380144 C10.4032651,27.4220113 10.2904522,27.4584937 10.1778413,27.4960532 L9.97590893,27.5634313 L9.70666578,27.6449446 C9.59479525,27.6776577 9.48285741,27.7102361 9.37011184,27.7398528 C9.23609606,27.7750564 9.10140717,27.8076348 8.96624711,27.8381266 L8.76431475,27.8808016 L8.56238238,27.9258999 C8.47299365,27.9464296 8.38394148,27.9677672 8.29313923,27.981162 C8.20381781,27.9942876 8.11382329,27.9992013 8.02389607,28.0063362 L7.8892745,28.0204715 L7.75465292,28.0400589 C7.68734213,28.0492132 7.62050252,28.0579636 7.55272056,28.0625408 C7.48554439,28.0671852 7.41809898,28.0677237 7.35078819,28.0683295 L7.08154504,28.0685987 L6.81230188,28.0683295 C6.7449911,28.0677237 6.67754569,28.0671852 6.61036952,28.0625408 L6.47574794,28.0494151 C6.3860092,28.0371646 6.29666086,28.0216831 6.20650479,28.0126635 L5.87161342,27.9899797 C5.75781107,27.9780657 5.64577227,27.9548435 5.53339691,27.9339771 L5.56206457,28.0464535 L5.59904512,28.1466792 L5.65627948,28.2722139 L5.7272789,28.4052873 L5.76685764,28.4724635 C5.81083178,28.5415916 5.85554634,28.6094409 5.90557845,28.6743958 C5.99767307,28.7939398 6.10167497,28.9033871 6.20749426,29.0106805 C6.31511748,29.1198586 6.42520427,29.2274213 6.54305873,29.3255604 C6.62901461,29.3971791 6.71954762,29.4628071 6.81230188,29.5252042 C6.90000784,29.5843031 6.98973312,29.6402383 7.08154504,29.6926061 C7.16952024,29.74282 7.25944745,29.7895336 7.35078819,29.833151 C7.4388307,29.8752203 7.52815212,29.9141932 7.62003134,29.9472428 C7.7302191,29.9867543 7.84330123,30.0164383 7.95658529,30.0455166 C8.06805195,30.074191 8.17998979,30.1029327 8.29313923,30.1242702 C8.40460589,30.1452712 8.51748608,30.1574544 8.62969317,30.1734744 C8.71941845,30.1862634 8.80873987,30.2018122 8.89893632,30.2113704 L9.16817948,30.2337175 C9.30320492,30.2481894 9.43641297,30.2745752 9.57204421,30.2837968 C9.66163486,30.2899894 9.75156208,30.2895855 9.84128736,30.2897874 L10.1778413,30.2898547 L10.4470845,30.2897874 C10.5594262,30.2891143 10.6716332,30.2891143 10.7836384,30.2784119 C10.8963167,30.2677095 11.0077833,30.2464393 11.1201923,30.2329771 L11.3221247,30.2121108 C11.4122538,30.2006679 11.5017772,30.1866673 11.5913679,30.1717243 C11.6814297,30.156714 11.7715588,30.1419729 11.860611,30.1215778 C11.9512786,30.1007787 12.0403981,30.0741237 12.1298542,30.0489494 L12.3990973,29.9728882 C12.5341228,29.9339153 12.6689463,29.8943365 12.802962,29.8519981 L13.0048944,29.78462 L13.2741376,29.6934138 C13.410038,29.6443443 13.5438519,29.5896206 13.6780023,29.5359739 C13.8577221,29.4641533 14.0380477,29.3937462 14.2164886,29.318762 C14.3074928,29.2804622 14.3968815,29.2384602 14.4857318,29.1955159 L14.6876641,29.0946844 L14.8895965,28.9901507 C15.0030825,28.9287633 15.114078,28.8627987 15.2261504,28.7989208 L15.4953936,28.645856 L15.6973259,28.5262448 L16.1011907,28.2839932 L16.5050554,28.0400589 L16.7069878,27.912505 L17.0435417,27.6973797 L17.1781633,27.6051639 L17.3800956,27.461792 C17.4478103,27.4113089 17.5179481,27.3627105 17.5810184,27.306304 L17.70938,27.1872986 L17.7688155,27.1235553 L17.8230679,27.0579272 L17.912524,26.924248 L17.9759307,26.7896937 L17.9990857,26.722383 L18.0173269,26.6550722 L18.040751,26.5204506 C18.0492322,26.4535437 18.0507803,26.385829 18.0521939,26.3185182 L18.0531362,26.1165859 C18.052867,26.0268606 18.0534055,25.9369334 18.0471456,25.8473427 C18.0423665,25.7794934 18.03402,25.7123846 18.021904,25.6454103 C18.0014415,25.5316551 17.9704786,25.419448 17.9373617,25.3088564 C17.9032351,25.1951685 17.8652718,25.0824229 17.8207794,24.9723025 C17.7744696,24.8576049 17.7202844,24.7466094 17.6655607,24.6357485 C17.6319726,24.5678319 17.5975095,24.5002519 17.561027,24.4338162 C17.5108132,24.3422735 17.456628,24.253154 17.4013659,24.164573 L17.2759659,23.9626406 C17.2120206,23.8537991 17.152114,23.7423997 17.1027752,23.6260867 C17.0478496,23.4967827 17.003761,23.3626323 16.9896931,23.222222 C16.982962,23.1549785 16.9835005,23.0876004 16.9886161,23.0202896 C16.9955491,22.9299585 17.0120403,22.8403006 17.0270506,22.7510464 L17.0640715,22.5492487 L17.0811011,22.4824091 L17.1034483,22.4171176 L17.1686052,22.2997949 L17.2126937,22.2553698 L17.2639845,22.2264935 L17.3207948,22.2163295 L17.3811053,22.2264935 L17.5033417,22.2997949 L17.5619021,22.3547878 L17.6716187,22.4797167 C17.738189,22.5586722 17.8013266,22.6401856 17.8710605,22.7164487 C17.9530451,22.806174 18.0417607,22.8883605 18.1328995,22.9685276 C18.214884,23.0406175 18.3013784,23.1081975 18.3900267,23.1718062 C18.4556547,23.2189237 18.5230328,23.2627431 18.5916898,23.3053508 L18.6590006,23.3441218 L18.7936222,23.4090094 L18.9282438,23.4538384 L18.9955546,23.4683102 L19.0628654,23.477801 L19.1974869,23.4824455 C19.2658074,23.4824455 19.3330509,23.4682429 19.3994193,23.4538384 L19.4667301,23.4339817 L19.5339736,23.4088075 L19.6673835,23.3414967 L19.7943317,23.2519733 L19.8518151,23.1993363 L19.9033079,23.1422567 L19.9837443,23.0175972 L20.0121494,22.9519692 L20.0466798,22.8182899 L20.0537475,22.6837357 L20.0369198,22.5491141 C20.0169958,22.4582445 19.9919562,22.3689904 19.9654357,22.2798709 C19.9314438,22.1657118 19.8961056,22.0520239 19.8469014,21.943317 C19.7705037,21.7746362 19.6687298,21.6183405 19.555513,21.4722088 C19.4661916,21.3567708 19.3698699,21.246785 19.2621726,21.14804 C19.1031845,21.0023122 18.9220512,20.8825663 18.7263114,20.7923698 C18.6604142,20.7620127 18.5926995,20.7358288 18.524379,20.7115296 C18.4359327,20.6800281 18.3460728,20.6526999 18.2551359,20.6292758 C18.1440731,20.600736 18.0311256,20.5785908 17.918582,20.5567147 C17.851675,20.5437238 17.7844316,20.5285115 17.7166496,20.5205689 C17.649608,20.5126935 17.5812876,20.5070394 17.5147172,20.5225209 L17.3800956,20.5751579 L17.3127849,20.6174291 L17.1781633,20.7174529 L17.0435417,20.8116207 L16.9762309,20.8512668 L16.8416093,20.9172313 L16.7742986,20.9460403 L16.639677,21.0006294 L16.5050554,21.0519202 L16.3704338,21.0945279 L16.2358122,21.1214523 C16.1252206,21.1374049 16.0123404,21.1349144 15.9009411,21.1355202 L15.5627044,21.1355875 Z M18.6590006,24.9723025 L18.6590006,25.3105392 C18.6590679,25.3996587 18.6581256,25.4889801 18.6616257,25.5780996 L18.6694338,25.7127211 C18.6770399,25.8023791 18.687877,25.8918351 18.687877,25.9819643 C18.687877,26.0945079 18.6721935,26.2063785 18.6645201,26.3185182 C18.6583948,26.4081762 18.657789,26.49844 18.6476251,26.5877614 C18.6347687,26.7005743 18.6159217,26.8123775 18.5970074,26.9243153 L18.5614,27.1262477 C18.5430241,27.216848 18.5209462,27.3068425 18.4948296,27.3954908 C18.4474428,27.5562963 18.3843726,27.7113804 18.3217063,27.8666664 L18.2655018,28.0012879 L18.2109127,28.1359095 L18.1887001,28.2032203 L18.1731514,28.2705311 L18.1754399,28.4048834 L18.2313752,28.5370818 L18.3326779,28.6619433 L18.4583472,28.77341 L18.5247156,28.82322 L18.6590006,28.9111952 L18.7936222,28.9838235 L18.860933,29.0140461 L18.9282438,29.0408358 L19.0628654,29.085732 L19.1974869,29.1255127 C19.2646631,29.1438213 19.3312335,29.1639472 19.3994193,29.1782171 C19.4661916,29.1922177 19.5332331,29.2016412 19.6013517,29.206353 C19.6909423,29.2124783 19.7812734,29.2099878 19.8705948,29.201372 C19.9610605,29.1926216 20.0507858,29.1763324 20.139838,29.158495 C20.2076199,29.1449655 20.2747288,29.1294841 20.3417703,29.1125891 L20.4090811,29.0934728 L20.5437027,29.0467591 L20.6783243,28.9889391 C20.746712,28.955351 20.8142921,28.9210899 20.879247,28.8810399 C20.9886943,28.8136618 21.0924876,28.7364564 21.1812032,28.6428944 C21.3673848,28.4465488 21.4728608,28.1917102 21.5426621,27.9339771 C21.5725481,27.8235201 21.5965107,27.7115823 21.6089632,27.5977598 C21.623637,27.463744 21.6203388,27.3281127 21.6206753,27.1935585 L21.508199,27.1697305 L21.4753513,27.1600377 L21.4079732,27.1419984 C21.2749671,27.1001984 21.1425668,27.0563118 21.0148782,26.9999053 C20.8979594,26.948278 20.7827233,26.8899195 20.6793339,26.8140603 L20.5507703,26.7080458 L20.4907291,26.6480045 L20.4353323,26.584867 L20.3396837,26.4528706 L20.2988934,26.3857617 L20.2292267,26.2512074 L20.1711375,26.1165859 C20.1460306,26.0498809 20.1224718,25.9830413 20.1021439,25.9146535 C20.0822872,25.8480831 20.0648538,25.7805704 20.0502473,25.7127211 C20.0358428,25.6460161 20.0236595,25.5787727 20.0171304,25.5107888 C20.0086492,25.421602 20.0076396,25.330867 20.0169285,25.2416802 C20.0259481,25.1549839 20.0406892,25.0692973 20.0532763,24.9830722 L20.0612863,24.9156941 L20.0659307,24.8828464 L20.0725272,24.7703701 L19.9600509,24.785717 L19.8598251,24.8131124 L19.7342905,24.8594223 C19.5818315,24.9213482 19.4296418,24.9931688 19.2647977,25.0148429 C19.1973523,25.0237279 19.1308493,25.0231894 19.0632019,25.0176699 C18.9989201,25.012487 18.9355133,25.0002364 18.8717027,24.991486 L18.771477,24.9788989 L18.6590006,24.9723025 Z M22.4957156,25.6454103 L23.5053774,25.6454103 L23.8419313,25.6454103 C23.9315893,25.645343 24.0215838,25.6466892 24.1111745,25.6427852 C24.1788218,25.6398235 24.2459307,25.6349099 24.3131068,25.6262268 L24.5150392,25.5972831 L24.6496608,25.5841575 C24.8289767,25.5718397 25.0090331,25.5840229 25.1881471,25.5666567 C25.2784782,25.5579063 25.3679342,25.542021 25.4573902,25.5273472 L25.7939442,25.4713446 L26.1304981,25.4149382 L26.4670521,25.3492429 L26.7362952,25.2946538 L27.14016,25.2027746 L27.4094031,25.1473105 L27.8132678,25.0665376 L28.082511,25.0110735 L28.4863757,24.9191942 L28.8901058,24.8375463 C28.9766675,24.819507 29.0632292,24.8016023 29.1487139,24.7791205 L29.216092,24.757581 L29.2489396,24.7490326 L29.361416,24.7030593 L29.361416,24.5684377 L29.2489396,24.5104831 L29.216092,24.4910976 L29.1487139,24.453269 L28.9572147,24.3377637 L28.6883081,24.1679385 C28.5546962,24.0843385 28.4196034,24.0032964 28.2844434,23.9222542 L27.9478894,23.7219373 L27.6786463,23.5688725 L27.4094031,23.4140577 L27.2074707,23.2996294 L26.8709168,23.1083994 L26.5343629,22.9329875 L26.2651197,22.7915675 L25.9958766,22.6639463 L25.7939442,22.5697112 C25.6826795,22.5201031 25.5704724,22.4734568 25.4573902,22.4282239 C25.3683381,22.3925492 25.2786801,22.3582207 25.1881471,22.3266519 C24.9679062,22.2498503 24.7418766,22.1912899 24.5150392,22.1374413 C24.4033033,22.1109209 24.2910962,22.0870928 24.1784853,22.064813 C24.0893658,22.0471775 23.9997078,22.0310903 23.9092421,22.0221379 C23.8201226,22.0132529 23.7295223,22.0096181 23.639999,22.0119067 C23.5724862,22.0135895 23.5052428,22.0151376 23.4380666,22.0223399 C23.3700827,22.0295421 23.3027046,22.0410523 23.2361342,22.0564664 C23.120427,22.0831888 23.0050563,22.1196039 22.8995803,22.1750007 L22.765228,22.2564468 L22.6332988,22.3615862 L22.5703632,22.4215601 L22.5110624,22.4846977 L22.4576177,22.5501237 L22.3731426,22.683803 L22.3229961,22.8183572 L22.3093993,22.885668 L22.3020624,22.9529788 L22.3008508,23.0876004 L22.3054953,23.1549112 L22.3130341,23.222222 C22.3285829,23.3343617 22.3468241,23.4457611 22.3551033,23.5587759 C22.3633152,23.6708484 22.3616998,23.7833247 22.3725368,23.8953298 L22.399865,24.0972622 C22.4092212,24.1645057 22.4177024,24.2314126 22.4223468,24.2991946 C22.4331165,24.4560287 22.423693,24.613536 22.4344627,24.7703701 C22.4391072,24.8381521 22.4475883,24.905059 22.4569445,24.9723025 L22.4842727,25.1741002 C22.499283,25.3306651 22.4955809,25.4883743 22.4957156,25.6454103 Z M8.15851765,21.0366407 L8.29313923,21.0144281 L8.36045002,21.0099183 L8.4277608,21.0099183 L8.56238238,21.0233804 L8.69700396,21.0540742 L8.83162553,21.1007205 L8.89886901,21.1299334 L9.03254824,21.1998693 L9.16191957,21.2852867 L9.22303777,21.3326735 L9.2806558,21.3833585 L9.383574,21.492402 L9.42847029,21.5511643 L9.50473342,21.676699 L9.56309187,21.8089647 L9.58550636,21.8760735 L9.60354565,21.943317 L9.61720974,22.0106278 L9.6269025,22.0779386 C9.63322971,22.1453167 9.63740298,22.2121563 9.63740298,22.2798709 C9.63740298,22.3926838 9.62972955,22.5063717 9.60354565,22.6164249 L9.56309187,22.7510464 L9.53616755,22.8182899 L9.46885677,22.9519692 L9.42847029,23.0175972 L9.383574,23.0812732 L9.2806558,23.1993363 L9.16191957,23.2994274 L9.09817626,23.3416986 L8.96597787,23.4114326 L8.83162553,23.4653485 L8.76431475,23.487763 L8.62969317,23.5238416 C8.5631228,23.5379769 8.49587932,23.547535 8.4277608,23.5498236 C8.33702586,23.5527852 8.24716596,23.5426213 8.15851765,23.5238416 L8.02389607,23.487763 L7.95658529,23.4653485 L7.82223295,23.4114326 L7.69003456,23.3416986 L7.62629125,23.2994274 L7.50755502,23.1993363 L7.40463682,23.0812732 L7.35974053,23.0175972 L7.31935405,22.9519692 L7.25204326,22.8182899 L7.22511895,22.7510464 L7.18466517,22.6164249 C7.15343296,22.4850342 7.1468365,22.3471144 7.1518175,22.2125601 L7.16130832,22.0779386 L7.18473248,21.943317 L7.2029737,21.8760062 L7.2547357,21.7413846 C7.33840301,21.566242 7.47019753,21.4173505 7.62104101,21.2967296 C7.77720203,21.1718007 7.96324905,21.0807965 8.15851765,21.0366407 Z M15.8992583,23.871973 L16.0338799,23.8424236 L16.1011907,23.8350867 L16.2358122,23.829096 L16.3704338,23.829096 L16.5050554,23.8350867 L16.5723662,23.8423563 L16.639677,23.8542703 L16.7069878,23.8709633 L16.841542,23.9200329 L16.9086509,23.9518709 L16.9752213,23.9873437 L17.1045926,24.0728957 L17.2233288,24.1789102 L17.2769755,24.2389514 L17.326247,24.3020889 L17.4115298,24.4340854 C17.4718403,24.5390902 17.5181501,24.6524416 17.5462187,24.7703701 L17.5695082,24.9049917 L17.5754989,24.9723025 L17.5783259,25.0396133 L17.5754989,25.1742348 L17.5695082,25.2415456 L17.5462187,25.3761672 L17.5057649,25.5107888 L17.4788406,25.5780996 L17.4474064,25.645343 L17.3711433,25.7790223 L17.326247,25.8444483 L17.2769755,25.9075859 L17.1657108,26.0227546 C17.0352625,26.1385292 16.8737839,26.2171482 16.7069878,26.26541 C16.5542596,26.3095659 16.3941272,26.3220857 16.2358122,26.312191 C16.0746029,26.3020944 15.9113069,26.2690448 15.7646367,26.1994454 C15.6427369,26.1416928 15.5324145,26.0625353 15.4351504,25.9692425 C15.336944,25.8750748 15.25119,25.7670409 15.1895334,25.645343 C15.1258573,25.5197411 15.096106,25.3807443 15.0812303,25.2415456 C15.0740954,25.1745041 15.0707971,25.1070587 15.0723453,25.0396133 C15.0738261,24.971764 15.0812303,24.9049244 15.0898461,24.8376809 L15.1156934,24.7030593 L15.1345404,24.6357485 L15.1895334,24.5011269 L15.2701044,24.3667746 L15.3199817,24.3002042 L15.4351504,24.1716406 C15.5662045,24.0405192 15.7208174,23.9279083 15.8992583,23.871973 Z M13.0722052,26.628821 L13.2068268,26.6280805 L13.3414484,26.6414081 L13.4087591,26.6517066 C13.5001672,26.6655053 13.5924503,26.6870448 13.6780023,26.7227195 L13.8123546,26.7902995 L13.878925,26.8336477 L13.9443511,26.883525 L14.0674625,26.9986937 L14.1226574,27.0618313 L14.2168252,27.1938277 L14.2891842,27.3281801 L14.3185991,27.3954908 C14.3436387,27.4619266 14.3668609,27.5280931 14.3828136,27.5974232 C14.4030741,27.6858023 14.4127669,27.776066 14.4131034,27.8666664 L14.406507,28.0012879 L14.3980931,28.0685987 L14.3869195,28.1359095 L14.3723804,28.2032203 L14.3336094,28.3377746 L14.2770683,28.4714538 C14.207469,28.6070177 14.1095991,28.7256866 13.9942957,28.8248354 C13.8992529,28.9066853 13.7919595,28.9756116 13.677733,29.0275082 C13.5510541,29.0850589 13.4127305,29.1207337 13.2741376,29.1328496 L13.139516,29.1368209 L13.0722052,29.1329169 L13.0048944,29.1250415 L12.8702728,29.0997327 L12.7356513,29.0631156 C12.6665231,29.0407011 12.5984719,29.0150557 12.5339881,28.9811984 C12.4641195,28.944514 12.3984242,28.9006947 12.3381137,28.8498077 L12.2200506,28.734639 L12.1674136,28.6715015 L12.0778902,28.539505 L12.0103775,28.4051527 L11.9844629,28.3378419 L11.9628561,28.2705311 L11.9301431,28.1359095 L11.9176906,28.0685987 C11.9081324,28.0012206 11.8994493,27.9348522 11.899584,27.8666664 L11.908267,27.7320448 L11.918431,27.664734 L11.9318258,27.5974232 L11.9683083,27.4630709 L12.0194645,27.3308725 L12.0846213,27.2059437 L12.1613556,27.0938039 C12.23183,27.0038094 12.3179205,26.9268058 12.4115498,26.861649 L12.5364113,26.7839723 L12.6020393,26.7501823 L12.7357186,26.6961318 L12.802962,26.6758039 L12.8702728,26.6590435 C12.9372471,26.6456487 13.0038847,26.6331962 13.0722052,26.628821 Z M19.5340409,30.9629626 L19.5263674,31.0754389 L19.5077224,31.1756647 L19.4687494,31.301132 L19.442027,31.3668947 L19.410189,31.4332631 L19.3747162,31.4987565 L19.2891642,31.623618 C19.2071124,31.7245842 19.1052038,31.8053571 18.9945449,31.8728025 C18.8902132,31.9363439 18.77841,31.9865578 18.6590006,32.0134148 C18.5704196,32.0333388 18.4800886,32.0360312 18.3897575,32.0388583 L18.2551359,32.0388583 C18.1877578,32.0371755 18.1199758,32.03556 18.0532035,32.0255307 C17.9594396,32.0115301 17.8689066,31.9845385 17.7840277,31.9418634 L17.6503485,31.8613597 L17.5849224,31.8114824 L17.5217849,31.7562876 L17.4066161,31.6331761 L17.3124483,31.5011797 C17.2704464,31.4385133 17.2408296,31.3681736 17.2106744,31.2995166 L17.1855002,31.2322058 L17.1639607,31.164895 L17.133267,31.0302734 L17.1198048,30.8956518 L17.1198048,30.828341 L17.1243147,30.7610303 L17.1465272,30.6264087 C17.160124,30.5571459 17.185904,30.490239 17.2106744,30.4244763 C17.2373295,30.3537327 17.2745523,30.2877008 17.3124483,30.2226113 C17.354181,30.1507233 17.4079623,30.087182 17.4618109,30.0243137 L17.5217849,29.9622531 L17.5849224,29.9047024 L17.7169188,29.8081114 L17.8512712,29.7381755 L17.918582,29.7111839 L17.9858927,29.688029 L18.1205143,29.6516812 L18.1878251,29.6388921 L18.2551359,29.6301417 L18.3897575,29.6256992 L18.524379,29.6391613 L18.5916898,29.6524216 L18.7263114,29.6913945 C18.8443745,29.7323868 18.9592067,29.7881201 19.0601729,29.8623639 C19.2127665,29.974571 19.333724,30.1219816 19.4206222,30.2897874 C19.4537391,30.3538673 19.4781729,30.4211108 19.5027414,30.4887581 L19.5218576,30.5483282 L19.5456183,30.6157063 L19.5550418,30.6485539 L19.6013517,30.7610303 L19.6155542,30.6157063 L19.6278721,30.5483282 L19.6683259,30.4227935 L19.7305884,30.2899894 L19.8106209,30.1579256 L19.9062022,30.0330641 L19.9600509,29.975446 L20.0787871,29.8727298 C20.216505,29.7690712 20.37657,29.7018277 20.5437027,29.6627874 C20.6540251,29.6370747 20.7669053,29.6231414 20.8802566,29.6318245 C20.9486444,29.6370074 21.0160225,29.6508061 21.082189,29.6682396 C21.1505768,29.6862116 21.2185607,29.7087607 21.2840541,29.7355504 C21.4004344,29.7830718 21.5118338,29.8419688 21.6082228,29.9235494 C21.7078428,30.0078225 21.7885484,30.11101 21.8540418,30.2235536 C21.9147561,30.3278853 21.960864,30.4415733 21.9887307,30.5590979 L22.0118183,30.6937195 L22.0172705,30.7610303 L22.0192225,30.828341 L22.012626,30.9629626 C22.007645,31.0310811 21.9928367,31.0983919 21.9784995,31.164895 L21.9394592,31.2995166 L21.880495,31.4340708 C21.8135207,31.5566438 21.7213049,31.6632641 21.6177136,31.7562876 C21.5188341,31.8450705 21.407704,31.9219394 21.2841214,31.9720186 L21.1494998,32.0134148 L21.082189,32.0255307 L21.0148782,32.0328676 L20.8802566,32.0388583 L20.7456351,32.0388583 C20.678257,32.0371755 20.6105423,32.0354927 20.5437027,32.0255307 C20.4744399,32.0152322 20.4073984,31.9981352 20.3420396,31.972961 L20.2097739,31.9106985 L20.1458959,31.8728025 L20.0842393,31.830666 L19.9694071,31.7350847 L19.8664889,31.623618 L19.8200444,31.5624998 L19.7391368,31.4332631 C19.703866,31.3695871 19.6767397,31.3024109 19.649075,31.2352348 L19.6264586,31.1756647 L19.5987265,31.1082866 L19.5868125,31.0754389 L19.5340409,30.9629626 Z" id="Combined-Shape"></path>
                            </g>
                        </g>
                    </g>
                </g>
            </g>
        </g>
    </g>
</svg>