<?xml version="1.0" encoding="UTF-8"?>
<svg width="136px" height="20px" viewBox="0 0 136 20" version="1.1" xmlns="http://www.w3.org/2000/svg" xmlns:xlink="http://www.w3.org/1999/xlink">
    <!-- Generator: Sketch 62 (91390) - https://sketch.com -->
    <title>Nawhas.com</title>
    <desc>Created with Sketch.</desc>
    <g id="Symbols" stroke="none" stroke-width="1" fill="none" fill-rule="evenodd" fill-opacity="0.9">
        <g id="Logo/Wordmark---Dark" transform="translate(-58.000000, -13.000000)" fill="#000000">
            <g id="Logo">
                <path d="M75.5531525,14.9375 L75.5531525,17 L73.7250275,17.3515625 L73.7250275,32 L70.3148712,32 L63.4242462,20.515625 L63.3539337,20.5273438 L63.3539337,29.5976562 L65.1820587,29.9492188 L65.1820587,32 L58.1156525,32 L58.1156525,29.9492188 L59.9320587,29.5976562 L59.9320587,17.3515625 L58.1156525,17 L58.1156525,14.9375 L63.3539337,14.9375 L70.2445587,26.421875 L70.3148712,26.4101562 L70.3148712,17.3515625 L68.4867462,17 L68.4867462,14.9375 L75.5531525,14.9375 Z M83.689397,32 C83.5956465,31.7890614 83.5136161,31.5722667 83.4433032,31.3496094 C83.3729904,31.126952 83.3183034,30.9023449 83.2792407,30.6757812 C82.8729887,31.1445336 82.378853,31.5234361 81.7968189,31.8125 C81.2147847,32.1015639 80.5487757,32.2460938 79.798772,32.2460938 C78.5565783,32.2460938 77.57026,31.9082065 76.8397876,31.2324219 C76.1093152,30.5566372 75.7440845,29.6367246 75.7440845,28.4726562 C75.7440845,27.2851503 76.2206422,26.3671907 77.173772,25.71875 C78.1269018,25.0703093 79.5253253,24.7460938 81.3690845,24.7460938 L83.1151782,24.7460938 L83.1151782,23.5039062 C83.1151782,22.8945282 82.9393988,22.4218767 82.5878345,22.0859375 C82.2362702,21.7499983 81.7167442,21.5820312 81.0292407,21.5820312 C80.6386138,21.5820312 80.290961,21.6269527 79.986272,21.7167969 C79.681583,21.8066411 79.4354917,21.9140619 79.2479907,22.0390625 L79.0253345,23.3984375 L76.4472095,23.3984375 L76.4589282,20.5859375 C77.0839314,20.1640604 77.8007211,19.8085952 78.6093189,19.5195312 C79.4179167,19.2304673 80.2987672,19.0859375 81.251897,19.0859375 C82.8222174,19.0859375 84.0975952,19.4706993 85.0780689,20.2402344 C86.0585425,21.0097695 86.548772,22.1054616 86.548772,23.5273438 L86.548772,28.765625 C86.548772,28.9609385 86.5507251,29.1445304 86.5546314,29.3164062 C86.5585376,29.4882821 86.5722094,29.652343 86.595647,29.8085938 L87.6386157,29.9492188 L87.6386157,32 L83.689397,32 Z M80.7245532,29.7148438 C81.2401808,29.7148438 81.7089261,29.6035167 82.1308032,29.3808594 C82.5526804,29.158202 82.8808021,28.8789079 83.1151782,28.5429688 L83.1151782,26.609375 L81.3690845,26.609375 C80.6425184,26.609375 80.0917426,26.7792952 79.7167407,27.1191406 C79.3417389,27.4589861 79.1542407,27.8671851 79.1542407,28.34375 C79.1542407,28.7734396 79.2929112,29.109375 79.5702564,29.3515625 C79.8476015,29.5937512 80.2323633,29.7148438 80.7245532,29.7148438 Z M105.747516,21.3828125 L104.470173,21.546875 L101.821735,32 L98.9623602,32 L96.6068915,24.453125 L96.536579,24.453125 L94.1811102,32 L91.333454,32 L88.6732977,21.546875 L87.395954,21.3828125 L87.395954,19.3203125 L93.1381415,19.3203125 L93.1381415,21.3828125 L91.7904852,21.640625 L92.9857977,27.4414062 L93.0561102,27.4414062 L95.4232977,19.3203125 L97.7201727,19.3203125 L100.110798,27.4648438 L100.18111,27.4648438 L101.364704,21.6523438 L100.005329,21.3828125 L100.005329,19.3203125 L105.747516,19.3203125 L105.747516,21.3828125 Z M105.610323,29.9492188 L107.262667,29.5976562 L107.262667,16.1328125 L105.434542,15.78125 L105.434542,13.71875 L110.672823,13.71875 L110.672823,20.9375 C111.071263,20.3515596 111.559539,19.896486 112.137667,19.5722656 C112.715795,19.2480453 113.356414,19.0859375 114.059542,19.0859375 C115.387674,19.0859375 116.428679,19.5253862 117.182589,20.4042969 C117.936499,21.2832075 118.313448,22.6406158 118.313448,24.4765625 L118.313448,29.5976562 L119.954073,29.9492188 L119.954073,32 L113.415011,32 L113.415011,29.9492188 L114.891573,29.5976562 L114.891573,24.453125 C114.891573,23.4687451 114.717747,22.7714864 114.370089,22.3613281 C114.022431,21.9511698 113.504858,21.7460938 112.817355,21.7460938 C112.34079,21.7460938 111.924778,21.8320304 111.569308,22.0039062 C111.213837,22.1757821 110.915012,22.4179672 110.672823,22.7304688 L110.672823,29.5976562 L112.149386,29.9492188 L112.149386,32 L105.610323,32 L105.610323,29.9492188 Z M128.008287,32 C127.914536,31.7890614 127.832506,31.5722667 127.762193,31.3496094 C127.69188,31.126952 127.637193,30.9023449 127.59813,30.6757812 C127.191878,31.1445336 126.697743,31.5234361 126.115709,31.8125 C125.533674,32.1015639 124.867665,32.2460938 124.117662,32.2460938 C122.875468,32.2460938 121.88915,31.9082065 121.158677,31.2324219 C120.428205,30.5566372 120.062974,29.6367246 120.062974,28.4726562 C120.062974,27.2851503 120.539532,26.3671907 121.492662,25.71875 C122.445792,25.0703093 123.844215,24.7460938 125.687974,24.7460938 L127.434068,24.7460938 L127.434068,23.5039062 C127.434068,22.8945282 127.258289,22.4218767 126.906724,22.0859375 C126.55516,21.7499983 126.035634,21.5820312 125.34813,21.5820312 C124.957504,21.5820312 124.609851,21.6269527 124.305162,21.7167969 C124.000473,21.8066411 123.754381,21.9140619 123.56688,22.0390625 L123.344224,23.3984375 L120.766099,23.3984375 L120.777818,20.5859375 C121.402821,20.1640604 122.119611,19.8085952 122.928209,19.5195312 C123.736806,19.2304673 124.617657,19.0859375 125.570787,19.0859375 C127.141107,19.0859375 128.416485,19.4706993 129.396959,20.2402344 C130.377432,21.0097695 130.867662,22.1054616 130.867662,23.5273438 L130.867662,28.765625 C130.867662,28.9609385 130.869615,29.1445304 130.873521,29.3164062 C130.877427,29.4882821 130.891099,29.652343 130.914537,29.8085938 L131.957505,29.9492188 L131.957505,32 L128.008287,32 Z M125.043443,29.7148438 C125.559071,29.7148438 126.027816,29.6035167 126.449693,29.3808594 C126.87157,29.158202 127.199692,28.8789079 127.434068,28.5429688 L127.434068,26.609375 L125.687974,26.609375 C124.961408,26.609375 124.410632,26.7792952 124.03563,27.1191406 C123.660629,27.4589861 123.47313,27.8671851 123.47313,28.34375 C123.47313,28.7734396 123.611801,29.109375 123.889146,29.3515625 C124.166491,29.5937512 124.551253,29.7148438 125.043443,29.7148438 Z M142.34375,23.6796875 L140.046875,23.6796875 L139.683594,22.0976562 C139.449218,21.9101553 139.154299,21.7539069 138.798828,21.6289062 C138.443358,21.5039056 138.050783,21.4414062 137.621094,21.4414062 C137.019528,21.4414062 136.542971,21.5761705 136.191406,21.8457031 C135.839842,22.1152357 135.664062,22.453123 135.664062,22.859375 C135.664062,23.2421894 135.83203,23.5605456 136.167969,23.8144531 C136.503908,24.0683606 137.175776,24.2929678 138.183594,24.4882812 C139.753914,24.8007828 140.917965,25.2597626 141.675781,25.8652344 C142.433598,26.4707062 142.8125,27.3046822 142.8125,28.3671875 C142.8125,29.5078182 142.322271,30.4394495 141.341797,31.1621094 C140.361323,31.8847692 139.070321,32.2460938 137.46875,32.2460938 C136.492183,32.2460938 135.595707,32.1035171 134.779297,31.8183594 C133.962887,31.5332017 133.238284,31.1250027 132.605469,30.59375 L132.570312,27.7460938 L134.960938,27.7460938 L135.429688,29.3984375 C135.632814,29.5703134 135.910154,29.6972652 136.261719,29.7792969 C136.613283,29.8613285 136.980467,29.9023438 137.363281,29.9023438 C138.058597,29.9023438 138.587889,29.777345 138.951172,29.5273438 C139.314455,29.2773425 139.496094,28.9375021 139.496094,28.5078125 C139.496094,28.1328106 139.312502,27.8085951 138.945312,27.5351562 C138.578123,27.2617174 137.902349,27.0195323 136.917969,26.8085938 C135.425774,26.5039047 134.298832,26.0527374 133.537109,25.4550781 C132.775387,24.8574189 132.394531,24.0429739 132.394531,23.0117188 C132.394531,21.9492134 132.832027,21.033207 133.707031,20.2636719 C134.582036,19.4941368 135.828117,19.109375 137.445312,19.109375 C138.429692,19.109375 139.361324,19.2421862 140.240234,19.5078125 C141.119145,19.7734388 141.808591,20.1132792 142.308594,20.5273438 L142.34375,23.6796875 Z M147.409682,32 L143.999526,32 L143.999526,29 L147.409682,29 L147.409682,32 Z M154.174833,29.6210938 C154.784211,29.6210938 155.272487,29.4433612 155.639677,29.0878906 C156.006866,28.7324201 156.190458,28.2578155 156.190458,27.6640625 L159.284208,27.6640625 L159.319364,27.734375 C159.350614,29.0156314 158.87015,30.0878863 157.877958,30.9511719 C156.885765,31.8144574 155.651403,32.2460938 154.174833,32.2460938 C152.284198,32.2460938 150.827182,31.6484435 149.803739,30.453125 C148.780296,29.2578065 148.268583,27.7226656 148.268583,25.8476562 L148.268583,25.4960938 C148.268583,23.6288969 148.793968,22.093756 149.844755,20.890625 C150.895541,19.687494 152.393573,19.0859375 154.338895,19.0859375 C155.362338,19.0859375 156.280297,19.2382797 157.092802,19.5429688 C157.905306,19.8476578 158.58108,20.277341 159.120145,20.8320312 L159.16702,24.21875 L156.389677,24.21875 L155.827177,22.2382812 C155.655301,22.089843 155.444365,21.9667974 155.194364,21.8691406 C154.944363,21.7714839 154.659209,21.7226562 154.338895,21.7226562 C153.37014,21.7226562 152.686553,22.0742152 152.288114,22.7773438 C151.889675,23.4804723 151.690458,24.3867132 151.690458,25.4960938 L151.690458,25.8476562 C151.690458,26.9804744 151.87405,27.8925747 152.241239,28.5839844 C152.608428,29.2753941 153.252953,29.6210938 154.174833,29.6210938 Z M159.744671,25.5429688 C159.744671,23.6523343 160.273963,22.1035217 161.332562,20.8964844 C162.391161,19.6894471 163.854037,19.0859375 165.721233,19.0859375 C167.596243,19.0859375 169.063025,19.687494 170.121624,20.890625 C171.180223,22.093756 171.709515,23.6445218 171.709515,25.5429688 L171.709515,25.7890625 C171.709515,27.695322 171.180223,29.2480409 170.121624,30.4472656 C169.063025,31.6464904 167.604055,32.2460938 165.744671,32.2460938 C163.861849,32.2460938 162.391161,31.6464904 161.332562,30.4472656 C160.273963,29.2480409 159.744671,27.695322 159.744671,25.7890625 L159.744671,25.5429688 Z M163.166546,25.7890625 C163.166546,26.9453183 163.369669,27.8730434 163.775921,28.5722656 C164.182173,29.2714879 164.838416,29.6210938 165.744671,29.6210938 C166.627488,29.6210938 167.273966,29.2695348 167.684124,28.5664062 C168.094282,27.8632777 168.299358,26.9375057 168.299358,25.7890625 L168.299358,25.5429688 C168.299358,24.4179631 168.092329,23.5000036 167.678265,22.7890625 C167.2642,22.0781214 166.611863,21.7226562 165.721233,21.7226562 C164.830604,21.7226562 164.182173,22.0781214 163.775921,22.7890625 C163.369669,23.5000036 163.166546,24.4179631 163.166546,25.5429688 L163.166546,25.7890625 Z M171.67779,21.3828125 L171.67779,19.3203125 L176.681697,19.3203125 L176.822322,20.9960938 C177.228574,20.3867157 177.738334,19.9160173 178.351619,19.5839844 C178.964903,19.2519515 179.67388,19.0859375 180.478572,19.0859375 C181.291076,19.0859375 181.986381,19.2656232 182.564509,19.625 C183.142637,19.9843768 183.580133,20.5273401 183.877009,21.2539062 C184.267636,20.5742154 184.775444,20.0429707 185.400447,19.6601562 C186.02545,19.2773418 186.759818,19.0859375 187.603572,19.0859375 C188.853578,19.0859375 189.839896,19.5175738 190.562556,20.3808594 C191.285216,21.2441449 191.64654,22.5585849 191.64654,24.3242188 L191.64654,29.5976562 L193.298884,29.9492188 L193.298884,32 L186.748103,32 L186.748103,29.9492188 L188.224665,29.5976562 L188.224665,24.3125 C188.224665,23.3515577 188.068417,22.6835956 187.755915,22.3085938 C187.443414,21.9335919 186.978575,21.7460938 186.361384,21.7460938 C185.877007,21.7460938 185.457089,21.8535146 185.101619,22.0683594 C184.746148,22.2832042 184.462948,22.5820293 184.252009,22.9648438 C184.252009,23.113282 184.255915,23.2402338 184.263728,23.3457031 C184.271541,23.4511724 184.275447,23.5585932 184.275447,23.6679688 L184.275447,29.5976562 L185.658259,29.9492188 L185.658259,32 L179.482478,32 L179.482478,29.9492188 L180.86529,29.5976562 L180.86529,24.3125 C180.86529,23.3749953 180.709042,22.7128926 180.39654,22.3261719 C180.084039,21.9394512 179.615294,21.7460938 178.99029,21.7460938 C178.529351,21.7460938 178.125058,21.8339835 177.7774,22.0097656 C177.429742,22.1855478 177.142635,22.4335921 176.916072,22.7539062 L176.916072,29.5976562 L178.392634,29.9492188 L178.392634,32 L171.853572,32 L171.853572,29.9492188 L173.505915,29.5976562 L173.505915,21.734375 L171.67779,21.3828125 Z" id="Nawhas.com"></path>
            </g>
        </g>
    </g>
</svg>