<svg width="154" height="142" viewBox="0 0 154 142" fill="none" xmlns="http://www.w3.org/2000/svg">
<path d="M72.6975 96.3869L72.6967 96.3863L72.6832 96.374C64.4393 88.8627 57.6364 82.6645 52.8878 76.8311C48.1423 71.0017 45.5 65.5973 45.5 59.6839C45.5 50.0548 53.0224 42.5 62.6 42.5C68.0157 42.5 73.2221 45.0356 76.6186 49.0432L77 49.4932L77.3814 49.0432C80.7779 45.0356 85.9843 42.5 91.4 42.5C100.978 42.5 108.5 50.0548 108.5 59.6839C108.5 65.5973 105.858 71.0018 101.112 76.8353C96.3801 82.6523 89.6082 88.8354 81.4032 96.3272L81.3039 96.4178L81.3029 96.4188L77.0013 100.324L72.6975 96.3869Z" fill="#F44336" stroke="#F44336"/>
<path d="M70.5225 108.054L70.5217 108.053L70.489 108.023C58.3912 97.0007 48.389 87.8874 41.4034 79.3062C34.4173 70.7244 30.5 62.7352 30.5 53.9733C30.5 39.7021 41.6524 28.5 55.85 28.5C63.8757 28.5 71.5871 32.2564 76.6186 38.1931L77 38.6432L77.3814 38.1931C82.4129 32.2564 90.1243 28.5 98.15 28.5C112.348 28.5 123.5 39.7021 123.5 53.9733C123.5 62.7352 119.583 70.7244 112.597 79.3122C105.635 87.8694 95.6785 96.9606 83.6375 107.955L83.4789 108.1L83.4779 108.101L77.0013 113.98L70.5225 108.054Z" stroke="#F44336" stroke-opacity="0.75"/>
<path d="M68.3475 119.721L68.3467 119.72L68.2949 119.673C52.3431 105.139 39.1415 93.1104 29.919 81.7813C20.6923 70.447 15.5 59.873 15.5 48.2626C15.5 29.3494 30.2824 14.5 49.1 14.5C59.7357 14.5 69.952 19.4772 76.6186 27.3431L77 27.7931L77.3814 27.3431C84.0479 19.4772 94.2643 14.5 104.9 14.5C123.718 14.5 138.5 29.3494 138.5 48.2626C138.5 59.873 133.308 70.447 124.081 81.7892C114.89 93.0866 101.749 105.086 85.8717 119.583L85.6539 119.782L85.6529 119.783L77.0013 127.636L68.3475 119.721Z" stroke="#F44336" stroke-opacity="0.5"/>
<path d="M66.1725 131.387L66.1717 131.387L66.101 131.322C46.2952 113.277 29.8941 98.3334 18.4346 84.2563C6.96734 70.1696 0.5 57.0109 0.5 42.5519C0.5 18.9968 18.9124 0.5 42.35 0.5C55.5957 0.5 68.317 6.69797 76.6186 16.493L77 16.9431L77.3814 16.493C85.6829 6.69797 98.4043 0.5 111.65 0.5C135.088 0.5 153.5 18.9968 153.5 42.5519C153.5 57.0109 147.033 70.1696 135.565 84.2661C124.146 98.3038 107.819 113.211 88.1062 131.21L87.8289 131.463L87.8279 131.464L77.0013 141.292L66.1725 131.387Z" stroke="#F44336" stroke-opacity="0.25"/>
</svg>
